<svg width="75" height="75" viewBox="0 0 75 75" fill="none" xmlns="http://www.w3.org/2000/svg">
<rect width="75" height="75" rx="37.5" fill="white"/>
<path d="M46.0379 13.9531L48.4389 17.9547C48.4693 17.9214 48.4995 17.8877 48.531 17.8558C48.9193 17.4623 49.4329 17.1618 50.0186 17.1571C50.6043 17.1524 51.1319 17.4541 51.5164 17.8545C51.5379 17.8771 51.5584 17.9013 51.5794 17.9244L53.9622 13.9531C52.6153 14.5362 51.3167 14.8515 50.0001 14.8515C48.6834 14.8515 47.3849 14.5362 46.0379 13.9531ZM31.876 14.0971L35.2739 18.0946C35.3627 17.9897 35.4575 17.89 35.5578 17.796C35.9502 17.4296 36.4573 17.1613 37.0191 17.1572C37.5808 17.1532 38.1007 17.4219 38.49 17.7954C38.5803 17.8827 38.6657 17.9749 38.7456 18.0717L42.1242 14.0971C38.8331 15.1204 35.1671 15.1204 31.876 14.0971ZM19.6317 14.9688L21.6908 18.4005C22.2144 17.7713 22.8459 17.3654 23.6182 17.3602C24.1819 17.3565 24.7155 17.606 25.1308 17.974C25.2667 18.0944 25.3931 18.2287 25.513 18.3739L27.556 14.9688C26.2091 15.5518 24.9105 15.8672 23.5938 15.8672C22.2772 15.8672 20.9786 15.5518 19.6317 14.9688ZM14.2501 18.7109V20.539H20.4708C20.5237 20.4211 20.5775 20.3046 20.6321 20.1896L19.745 18.7109H14.2501ZM27.4426 18.7109L26.5415 20.213C26.5885 20.3205 26.6349 20.4292 26.6804 20.539H33.9669C34.071 20.2793 34.1808 20.0219 34.2962 19.767L33.3986 18.7109H27.4426ZM40.6018 18.7109L39.6909 19.7824C39.7953 20.0326 39.8945 20.2848 39.9887 20.539H47.0513C47.1561 20.2721 47.2659 20.0071 47.3807 19.7442L46.7608 18.7109H40.6018ZM53.2395 18.7109L52.6122 19.7565C52.7165 20.0156 52.8164 20.2765 52.9117 20.539H59.7501V18.7109H53.2395ZM50.0281 18.9837C50.0286 18.9837 50.032 18.9855 50.033 18.9859C50.0384 18.9844 50.0386 18.985 50.033 18.985C50.0276 18.985 50.0257 18.9835 50.028 18.9837H50.0281ZM50.033 18.9859C50.0178 18.99 49.9563 19.0141 49.8323 19.1398C49.6647 19.3096 49.4328 19.6461 49.2053 20.1402C47.0204 24.8829 46.0392 32.7438 46.0392 38.7931C46.0392 39.9564 46.4119 42.4498 47.1667 44.4996C47.544 45.5244 48.0202 46.4456 48.5282 47.0515C48.808 47.3853 49.0743 47.6135 49.3407 47.7515L50.0548 44.6759L51.8355 45.0892L51.348 47.1904C51.3892 47.1452 51.4303 47.1013 51.4719 47.0515C51.9799 46.4456 52.4562 45.5244 52.8335 44.4996C53.5858 42.4565 53.9576 39.9755 53.96 38.8073C53.884 37.4305 53.7875 36.0549 53.6705 34.6809L52.6601 36.2772L51.1154 35.2996L52.8159 32.6132C52.33 32.5188 51.8642 32.3581 51.4478 32.1341C51.1357 31.9662 50.8462 31.7689 50.5666 31.5616L50.5824 35.4821L48.7545 35.4895L48.7212 27.271L50.2973 28.879C50.9366 29.5313 51.6397 30.1617 52.3138 30.5243C52.6516 30.7059 52.9636 30.8249 53.2733 30.8696C52.771 26.8376 51.9987 22.9858 50.7832 20.1138C50.5718 19.6142 50.3519 19.2813 50.1976 19.1206C50.091 19.0095 50.0455 18.989 50.0331 18.9858L50.033 18.9859ZM37.0324 18.985C37.03 18.985 36.9686 18.9798 36.8053 19.1323C36.642 19.2848 36.4166 19.5861 36.1928 20.0338C34.0487 24.3217 33.0392 32.7276 33.0392 38.2851C33.0392 39.3283 33.4057 41.3116 34.1376 42.8869C34.5037 43.6744 34.9593 44.3626 35.4492 44.8169C35.9392 45.2711 36.4222 45.496 37.0001 45.496C37.4099 45.496 37.7717 45.3806 38.1223 45.1529L37.4456 42.9386L39.1938 42.4043L39.5348 43.5203C39.6528 43.3138 39.7622 43.1024 39.8625 42.8868C40.5911 41.3189 40.9564 39.3495 40.9598 38.3025C40.9214 37.6716 40.879 37.0409 40.8326 36.4105L40.8316 36.413L39.1341 35.7345L40.4064 32.5511C39.2019 32.4941 38.1827 32.2357 37.2933 31.7401L36.8196 37.1351L34.9984 36.9751L35.7901 27.9604L37.1796 29.3783C38.083 30.3001 38.8723 30.6871 40.2861 30.7454C39.7807 26.6522 39.0031 22.6373 37.7945 20.0067C37.5868 19.5545 37.3736 19.2577 37.2242 19.1144C37.0748 18.9711 37.0347 18.985 37.0324 18.985ZM23.6305 19.1882C23.5364 19.1888 23.1237 19.3716 22.6409 20.2633C20.319 24.5522 19.2322 32.736 19.2322 38.2851C19.2322 39.3126 19.6263 41.291 20.4163 42.861C21.2063 44.4309 22.2629 45.496 23.5966 45.496C23.8548 45.496 24.1024 45.4557 24.3397 45.38L24.2099 41.4893L26.037 41.4283L26.1212 43.9524C26.3571 43.6274 26.5758 43.2607 26.777 42.861C27.5637 41.2976 27.9566 39.3319 27.9598 38.3008C27.9184 37.6665 27.8698 37.0091 27.8162 36.3412L27.457 37.7569L25.6852 37.3072L26.4699 34.2142C25.8652 34.2215 25.2745 34.0974 24.7394 33.8929C24.4084 33.7664 24.0961 33.6075 23.7922 33.4379L24.3102 37.3241L22.4979 37.5656L21.4124 29.4193L23.1812 30.8119C23.8988 31.377 24.677 31.9121 25.392 32.1854C26.107 32.4587 26.6882 32.4982 27.3086 32.1844L27.4003 32.138C26.8637 27.6655 25.9878 23.1503 24.5377 20.2352C24.314 19.7856 24.0862 19.491 23.9181 19.3421C23.75 19.1932 23.6776 19.1879 23.6305 19.1882ZM22.3751 40.1081C22.5906 40.1081 22.7972 40.1937 22.9496 40.3461C23.102 40.4985 23.1876 40.7051 23.1876 40.9206C23.1876 41.1361 23.102 41.3428 22.9496 41.4951C22.7972 41.6475 22.5906 41.7331 22.3751 41.7331C22.1596 41.7331 21.9529 41.6475 21.8006 41.4951C21.6482 41.3428 21.5626 41.1361 21.5626 40.9206C21.5626 40.7051 21.6482 40.4985 21.8006 40.3461C21.9529 40.1937 22.1596 40.1081 22.3751 40.1081ZM35.3751 40.75C35.5906 40.75 35.7972 40.8356 35.9496 40.988C36.102 41.1403 36.1876 41.347 36.1876 41.5625C36.1876 41.778 36.102 41.9846 35.9496 42.137C35.7972 42.2894 35.5906 42.375 35.3751 42.375C35.1596 42.375 34.9529 42.2894 34.8006 42.137C34.6482 41.9846 34.5626 41.778 34.5626 41.5625C34.5626 41.347 34.6482 41.1403 34.8006 40.988C34.9529 40.8356 35.1596 40.75 35.3751 40.75ZM48.1734 42.6666C48.3889 42.6666 48.5955 42.7522 48.7479 42.9045C48.9003 43.0569 48.9859 43.2636 48.9859 43.4791C48.9859 43.6946 48.9003 43.9012 48.7479 44.0536C48.5955 44.206 48.3889 44.2916 48.1734 44.2916C47.9579 44.2916 47.7512 44.206 47.5989 44.0536C47.4465 43.9012 47.3609 43.6946 47.3609 43.4791C47.3609 43.2636 47.4465 43.0569 47.5989 42.9045C47.7512 42.7522 47.9579 42.6666 48.1734 42.6666ZM58.18 44.117C58.4094 45.1803 58.2125 47.3258 57.505 47.8367C57.0701 48.1508 56.4413 47.4044 57.0158 50.8188C57.6724 50.2439 58.9106 49.3882 59.1288 47.8985C59.3234 46.57 59.0055 45.5156 58.18 44.117ZM21.0704 47.003C21.4687 48.0988 22.8719 49.0998 22.6848 50.2906C22.4928 51.5109 20.6742 52.1366 20.0606 53.0869C21.1615 52.1349 23.6286 52.1347 23.8877 50.6436C24.1502 49.1318 22.0199 47.81 21.0704 47.003ZM15.8751 47.0469C13.9869 49.953 13.1277 53.165 13.0153 56.2589C12.5056 57.2752 12.8282 60.1434 12.8282 61.4687H26.9C26.7658 61.2572 26.6337 61.0443 26.5036 60.8302C27.094 58.3341 27.63 55.8489 27.2501 53.5469C26.6786 55.2904 25.6291 56.4316 24.4272 57.5467C23.8792 56.8276 23.2389 56.1524 22.3751 55.4978C22.8819 56.4438 23.2869 57.3672 23.6256 58.2758C22.6666 59.1414 21.6599 60.0644 20.7501 61.3044C18.0041 57.0089 13.6966 56.2671 15.8751 47.0469ZM41.8247 48.8355C42.9462 54.0187 44.5852 59.7636 42.5013 61.4687H61.172V59.693C60.7676 60.2601 60.2886 60.7638 59.7727 61.2134C59.9729 57.5438 60.1073 53.9283 58.0746 52.0855C59.2152 57.4921 55.4812 58.1216 53.2501 61.2635C52.0846 59.151 47.9406 58.4593 52.3202 54.2763C49.0596 54.1553 46.243 56.7406 46.6997 61.1514C45.3378 55.375 44.3526 53.9866 41.8247 48.8355ZM36.4059 49.1191C35.8945 50.2555 34.1942 54.5353 35.4228 53.6161C36.9518 52.4723 37.0623 55.3575 39.0201 55.5938C38.0581 54.9986 38.0598 51.6805 36.5597 52.0246C35.6144 52.2415 36.5162 50.2798 36.4059 49.1191ZM28.8751 51.2786C29.2478 57.0831 28.4754 59.8652 27.0158 61.4687H31.5361C30.7434 60.4766 30.5147 58.3328 32.1251 53.75L29.7939 58.0593C29.7481 56.48 29.5469 52.2317 28.8751 51.2786ZM35.3356 56.5176C37.4194 58.9006 37.6058 60.5515 36.4373 61.4687H40.901C39.3629 60.6593 38.6514 59.0985 38.5747 56.9605C38.2644 57.4443 38.0321 57.952 37.8536 58.4764C37.2002 57.8807 36.3732 57.2316 35.3356 56.5176Z" fill="url(#paint0_radial_2915_325)"/>
<defs>
<radialGradient id="paint0_radial_2915_325" cx="0" cy="0" r="1" gradientUnits="userSpaceOnUse" gradientTransform="translate(17.4091 23.9354) rotate(39.2533) scale(47.6436 47.4687)">
<stop stop-color="#D4AC55"/>
<stop offset="1" stop-color="#6E592C"/>
</radialGradient>
</defs>
</svg>
