<svg width="75" height="75" viewBox="0 0 75 75" fill="none" xmlns="http://www.w3.org/2000/svg">
<rect width="75" height="75" rx="37.5" fill="white"/>
<path d="M37.4609 18C30.8289 18 24.8266 19.0857 20.565 20.793C18.4332 21.6461 16.7422 22.6516 15.6291 23.7078C14.517 24.7539 14 25.8 14 26.8359C14 27.8719 14.517 28.918 15.6291 29.9641C16.7422 31.0203 18.4332 32.0258 20.565 32.8789C24.8266 34.5852 30.8289 35.6719 37.4609 35.6719C44.093 35.6719 50.0953 34.5852 54.3609 32.8789C56.4836 32.0258 58.1797 31.0203 59.2969 29.9641C60.4039 28.918 60.9219 27.8719 60.9219 26.8359C60.9219 25.8 60.4039 24.7539 59.2969 23.7078C58.1797 22.6516 56.4836 21.6461 54.3609 20.793C50.0953 19.0857 44.093 18 37.4609 18ZM37.4711 19.3741C42.6812 19.3741 47.4039 20.0414 50.8875 21.1586C52.6344 21.7172 54.0766 22.3773 55.143 23.1898C56.2195 23.9922 56.9711 25.018 56.9711 26.2266C56.9711 27.4352 56.2195 28.4609 55.143 29.2633C54.0766 30.0758 52.6344 30.7359 50.8875 31.2945C47.4039 32.4117 42.6812 33.082 37.4711 33.082C32.2609 33.082 27.5383 32.4117 24.0547 31.2945C22.3078 30.7359 20.8626 30.0758 19.7941 29.2633C18.7267 28.4609 17.9711 27.4352 17.9711 26.2266C17.9711 25.018 18.7267 23.9922 19.7941 23.1898C20.8626 22.3773 22.3078 21.7172 24.0547 21.1586C27.5383 20.0414 32.2609 19.3741 37.4711 19.3741ZM37.4711 21.1992C32.4133 21.1992 27.843 21.8695 24.6031 22.8953C22.9883 23.4133 21.7086 24.0328 20.8971 24.6422C20.0836 25.2617 19.7992 25.7898 19.7992 26.2266C19.7992 26.6633 20.0836 27.1914 20.8971 27.8109C21.7086 28.4203 22.9883 29.0398 24.6031 29.5578C27.843 30.5836 32.4133 31.2539 37.4711 31.2539C42.5289 31.2539 47.0992 30.5836 50.3391 29.5578C51.9539 29.0398 53.2336 28.4203 54.0461 27.8109C54.8586 27.1914 55.143 26.6633 55.143 26.2266C55.143 25.7898 54.8586 25.2617 54.0461 24.6422C53.2336 24.0328 51.9539 23.4133 50.3391 22.8953C47.0992 21.8695 42.5289 21.1992 37.4711 21.1992ZM14 30.9187V47.9609C14 49.3016 14.5972 50.4594 15.7977 51.5562C16.9971 52.6531 18.7998 53.6281 21.0098 54.4102C25.4258 55.9844 31.4484 56.7969 37.4609 56.7969C43.4734 56.7969 49.4961 55.9844 53.9141 54.4102C56.118 53.6281 57.9258 52.6531 59.1242 51.5562C60.3227 50.4594 60.9219 49.3016 60.9219 47.9609V30.9187C60.8 31.0508 60.6781 31.1727 60.5461 31.2945C59.1953 32.5742 57.3164 33.6711 55.0312 34.575C50.4813 36.4031 44.2859 37.5 37.4609 37.5C30.6359 37.5 24.4406 36.4031 19.8855 34.575C17.6055 33.6711 15.7276 32.5742 14.3738 31.2945C14.2438 31.1727 14.1198 31.0508 14 30.9187ZM21.2109 39.8359L27.7516 44.7313C31.1336 43.1773 35.0438 41.268 41.5336 41.268C45.5961 41.268 53.7211 43.8984 53.7211 45.9398C53.7211 47.9609 45.5961 50.6016 41.5336 50.6016C35.0438 50.6016 31.1336 48.682 27.7516 47.1281L21.2109 52.0234V39.8359Z" fill="url(#paint0_radial_2900_266)"/>
<defs>
<radialGradient id="paint0_radial_2900_266" cx="0" cy="0" r="1" gradientUnits="userSpaceOnUse" gradientTransform="translate(18.5345 26.1506) rotate(34.5607) scale(43.391 41.2196)">
<stop stop-color="#D4AC55"/>
<stop offset="1" stop-color="#6E592C"/>
</radialGradient>
</defs>
</svg>
