<svg width="75" height="75" viewBox="0 0 75 75" fill="none" xmlns="http://www.w3.org/2000/svg">
<rect width="75" height="75" rx="37.5" fill="white"/>
<path d="M58.257 14.0391C55.982 14.8566 54.3672 15.5564 54.3672 15.5564L54.0625 15.6884L48.4766 14.0645C48.893 15.1816 49.0453 16.2308 49.0148 17.2037C50.6297 18.1422 51.7266 18.8724 51.7266 18.8724L51.9297 19.0055L54.4383 18.0762L54.743 18.1889C54.743 18.1889 56.9062 18.9638 59.7602 19.7428C59.9938 19.7083 60.2273 19.6788 60.4609 19.6514V14.0391H58.257ZM38.0562 14.8841C37.9648 14.8841 37.8836 14.8851 37.7922 14.8881C35.3547 14.942 31.9422 15.8002 29.0781 16.7355C25.8078 17.805 23.2078 18.9334 23.2078 18.9334L22.9031 19.0654L17.3223 17.4414C17.7224 18.5291 17.8809 19.5509 17.8605 20.5025C18.2089 20.4741 18.5512 20.4568 18.8853 20.4517V20.4527C19.2926 20.4466 19.6887 20.4598 20.0695 20.4934C21.8367 20.6518 23.8578 21.3973 25.7875 22.2961C26.793 22.6109 28.0625 22.9867 29.4641 23.3523C32.7242 24.2055 36.6852 24.9266 39.0719 24.6117C39.3461 24.5711 39.6406 24.5102 39.9555 24.4391C39.7727 23.9719 39.5289 23.4844 39.2039 22.9563L37.9852 20.9453L44.1805 22.7531C44.9523 22.3672 45.7039 21.9609 46.4148 21.5588C47.6945 20.8265 48.7609 20.1562 49.543 19.6514C48.7406 19.1538 47.6437 18.4966 46.293 17.7755C43.8148 16.441 40.7273 15.0892 38.7773 14.9155C38.5438 14.8952 38.3102 14.8841 38.0562 14.8841ZM41.4992 16.9722C41.7416 16.9722 41.9741 17.0685 42.1456 17.2399C42.317 17.4113 42.4133 17.6438 42.4133 17.8863C42.4133 18.1287 42.317 18.3612 42.1456 18.5326C41.9741 18.704 41.7416 18.8003 41.4992 18.8003C41.2568 18.8003 41.0243 18.704 40.8529 18.5326C40.6815 18.3612 40.5852 18.1287 40.5852 17.8863C40.5852 17.6438 40.6815 17.4113 40.8529 17.2399C41.0243 17.0685 41.2568 16.9722 41.4992 16.9722ZM33.3031 17.2616L33.5672 19.0715C32.3687 19.2391 32.0945 19.5955 32.0945 19.6179C32.0844 19.6291 32.0742 19.6402 32.1148 19.755C32.1656 19.8688 32.2773 20.0556 32.4805 20.2455C32.8664 20.6254 33.5367 21.0093 34.207 21.1789C34.8773 21.3485 35.507 21.3089 35.9641 21.054L36.8578 22.6414C35.8727 23.2 34.7453 23.2 33.7602 22.9563C32.7648 22.7023 31.8609 22.2047 31.2008 21.5527C30.8656 21.2277 30.5914 20.862 30.4187 20.4263C30.2461 19.9906 30.1953 19.4534 30.3883 18.9577C30.7742 17.9655 31.8203 17.4698 33.3031 17.2616ZM60.4609 21.5151C58.2773 21.7984 55.6977 22.4891 53.4531 23.2203C50.1828 24.2867 47.5828 25.4242 47.5828 25.4242L47.2781 25.5461L41.7023 23.9313C42.2102 25.3328 42.332 26.6227 42.1695 27.7906C42.0578 28.6641 41.8141 29.4562 41.5195 30.2078L47.6539 27.9328L47.9586 28.0445C47.9586 28.0445 50.5687 28.9891 53.8391 29.832C55.9617 30.3906 58.3688 30.8883 60.4609 31.0813V29.4461C59.6891 29.6594 58.8766 29.6188 58.1352 29.4359C57.1398 29.182 56.2359 28.6844 55.5758 28.0344C55.2406 27.7094 54.9664 27.3438 54.7938 26.907C54.6211 26.4805 54.5703 25.9422 54.7633 25.4445C55.1492 24.4492 56.1953 23.9516 57.6781 23.7484L57.9422 25.5562C56.7438 25.7289 56.4695 26.0844 56.4695 26.1047C56.4594 26.1148 56.4492 26.125 56.4898 26.2367C56.5406 26.3484 56.6523 26.5414 56.8555 26.7242C57.2414 27.1102 57.9117 27.4859 58.582 27.6586C59.2523 27.8313 59.882 27.7906 60.3391 27.5367L60.4609 27.75V21.5151ZM18.9239 22.2859C17.3873 22.3164 15.4657 22.6719 13.5391 23.1594V24.8352C13.8173 24.7641 14.117 24.7031 14.4379 24.6625L14.6918 26.4703C14.118 26.5516 13.7595 26.6836 13.5391 26.7852V27.5672C13.5604 27.5977 13.5827 27.618 13.6061 27.6383C13.9951 28.0242 14.6634 28.4 15.3337 28.5727C16.004 28.7453 16.6388 28.7047 17.0907 28.4508L17.9905 30.0352C17.0054 30.5938 15.8801 30.5938 14.8868 30.35C14.4105 30.2281 13.9565 30.0453 13.5391 29.8219V31.132L15.9969 31.8531C17.1263 32.0055 18.1998 32.0969 19.1311 32.0766C20.1406 31.6703 21.8164 31.0203 23.8781 30.35C24.7008 30.0859 25.5641 29.8117 26.4375 29.568C26.8133 29.3648 27.1891 29.1617 27.5445 28.9586C28.8242 28.2172 29.8906 27.557 30.6727 27.0492C29.8703 26.5516 28.7734 25.8914 27.4227 25.1703C24.9445 23.8398 21.857 22.4891 19.907 22.3164C19.6775 22.2961 19.4358 22.2859 19.1819 22.2859H18.9239ZM22.6289 24.368C22.8713 24.368 23.1038 24.4643 23.2752 24.6357C23.4467 24.8071 23.543 25.0396 23.543 25.282C23.543 25.5245 23.4467 25.757 23.2752 25.9284C23.1038 26.0998 22.8713 26.1961 22.6289 26.1961C22.3865 26.1961 22.154 26.0998 21.9826 25.9284C21.8111 25.757 21.7148 25.5245 21.7148 25.282C21.7148 25.0396 21.8111 24.8071 21.9826 24.6357C22.154 24.4643 22.3865 24.368 22.6289 24.368ZM33.1609 30.2383C30.7234 30.2891 27.3109 31.1523 24.4469 32.0867C21.1766 33.1531 18.5755 34.2906 18.5755 34.2906L18.2719 34.4227L13.5391 33.0312V38.6984L18.6426 36.7992L18.9574 36.9109C18.9574 36.9109 21.5625 37.8555 24.8328 38.6984C28.093 39.5516 32.0539 40.2727 34.4406 39.9578C36.3602 39.7039 39.3664 38.282 41.7836 36.9109C43.0633 36.1695 44.1297 35.4992 44.9117 35.0016C44.1094 34.5039 43.0125 33.8438 41.6617 33.1227C39.1836 31.782 36.0961 30.4414 34.1461 30.2688C33.9227 30.2484 33.6789 30.2383 33.425 30.2383H33.1609ZM36.868 32.3203C37.1104 32.3203 37.3429 32.4166 37.5143 32.588C37.6857 32.7595 37.782 32.992 37.782 33.2344C37.782 33.4768 37.6857 33.7093 37.5143 33.8807C37.3429 34.0521 37.1104 34.1484 36.868 34.1484C36.6255 34.1484 36.393 34.0521 36.2216 33.8807C36.0502 33.7093 35.9539 33.4768 35.9539 33.2344C35.9539 32.992 36.0502 32.7595 36.2216 32.588C36.393 32.4166 36.6255 32.3203 36.868 32.3203ZM28.6719 32.6148L28.9359 34.4227C27.7375 34.5953 27.4633 34.9508 27.4633 34.9711C27.4531 34.9813 27.443 34.9914 27.4836 35.1031C27.5344 35.2148 27.6461 35.4078 27.8492 35.5906C28.2352 35.9766 28.9055 36.3523 29.5758 36.525C30.2461 36.6977 30.8758 36.657 31.3328 36.4031L32.2266 37.9875C31.2414 38.5461 30.1242 38.5461 29.1289 38.3023C28.1336 38.0484 27.2297 37.5508 26.5695 36.9008C26.2344 36.5758 25.9602 36.2102 25.7875 35.7734C25.6148 35.3469 25.5641 34.8086 25.757 34.3109C26.143 33.3156 27.1891 32.818 28.6719 32.6148ZM54.3164 35.0422C54.8242 36.4438 54.9461 37.7437 54.7836 38.9117C54.6719 39.7852 54.4281 40.5773 54.1336 41.3289L60.268 39.0539L60.4609 39.125V36.4336C60.3594 36.4742 60.1969 36.5453 60.1969 36.5453L59.8922 36.6773L54.3164 35.0422ZM13.5391 39.8156V49.332C15.4596 48.9562 18.2201 47.6359 20.4707 46.3563C21.7555 45.6148 22.8219 44.9445 23.6039 44.4469C22.8016 43.9492 21.7047 43.2891 20.357 42.568C18.153 41.3797 15.4779 40.1914 13.5391 39.8156ZM46.232 40.7195C43.7945 40.7703 40.382 41.6336 37.518 42.568C34.2477 43.6344 31.6477 44.7719 31.6477 44.7719L31.343 44.9039L25.7672 43.2687C26.275 44.6703 26.3969 45.9703 26.2344 47.1383C26.1227 48.0117 25.8789 48.8039 25.5844 49.5555L31.7188 47.2805L32.0234 47.3922C32.0234 47.3922 34.6336 48.3367 37.9039 49.1797C41.1641 50.0328 45.125 50.7539 47.5117 50.4391C49.4313 50.1852 52.4375 48.7633 54.8547 47.3922C56.1344 46.6508 57.2008 45.9805 57.9828 45.4828C57.1805 44.9852 56.0836 44.325 54.7328 43.6039C52.2547 42.2734 49.1672 40.9227 47.2172 40.75C46.9836 40.7297 46.75 40.7195 46.4961 40.7195H46.232ZM15.5602 41.7656C15.8026 41.7656 16.0351 41.8619 16.2065 42.0333C16.3779 42.2048 16.4742 42.4373 16.4742 42.6797C16.4742 42.9221 16.3779 43.1546 16.2065 43.326C16.0351 43.4974 15.8026 43.5938 15.5602 43.5938C15.3177 43.5938 15.0852 43.4974 14.9138 43.326C14.7424 43.1546 14.6461 42.9221 14.6461 42.6797C14.6461 42.4373 14.7424 42.2048 14.9138 42.0333C15.0852 41.8619 15.3177 41.7656 15.5602 41.7656ZM49.9391 42.8016C50.1815 42.8016 50.414 42.8979 50.5854 43.0693C50.7568 43.2407 50.8531 43.4732 50.8531 43.7156C50.8531 43.958 50.7568 44.1905 50.5854 44.362C50.414 44.5334 50.1815 44.6297 49.9391 44.6297C49.6966 44.6297 49.4641 44.5334 49.2927 44.362C49.1213 44.1905 49.025 43.958 49.025 43.7156C49.025 43.4732 49.1213 43.2407 49.2927 43.0693C49.4641 42.8979 49.6966 42.8016 49.9391 42.8016ZM41.743 43.0961L42.007 44.9039C40.8086 45.0766 40.5344 45.432 40.5344 45.4523C40.5242 45.4625 40.5141 45.4727 40.5547 45.5844C40.6055 45.6961 40.7172 45.8891 40.9203 46.0719C41.3063 46.4578 41.9766 46.8336 42.6469 47.0063C43.3172 47.1789 43.9469 47.1383 44.4039 46.8844L45.2977 48.4688C44.3125 49.0273 43.1953 49.0273 42.2 48.7836C41.2047 48.5297 40.3008 48.032 39.6406 47.382C39.3055 47.057 39.0312 46.6914 38.8586 46.2547C38.6859 45.8281 38.6352 45.2898 38.8281 44.7922C39.2141 43.7969 40.2602 43.2992 41.743 43.0961ZM54.1031 51.5359C51.6656 51.5867 48.2531 52.45 45.3891 53.3844C42.1187 54.4508 39.5187 55.5883 39.5187 55.5883L39.2141 55.7203L33.6383 54.0852C34.0547 55.2328 34.207 56.3195 34.1664 57.3148C35.3141 57.9445 36.3398 58.5539 37.0914 59.0211L39.5898 58.0969L39.8945 58.2086C39.8945 58.2086 42.5047 59.1531 45.775 59.9961C47.1969 60.3719 48.7508 60.7172 50.2437 60.9609H56.6828C57.8305 60.6258 59.1508 60.057 60.4609 59.407V53.3438C58.5109 52.4398 56.5 51.6883 55.0883 51.5664C54.8547 51.5461 54.6211 51.5359 54.3672 51.5359H54.1031ZM57.8102 53.618C58.0526 53.618 58.2851 53.7143 58.4565 53.8857C58.6279 54.0571 58.7242 54.2896 58.7242 54.532C58.7242 54.7745 58.6279 55.007 58.4565 55.1784C58.2851 55.3498 58.0526 55.4461 57.8102 55.4461C57.5677 55.4461 57.3352 55.3498 57.1638 55.1784C56.9924 55.007 56.8961 54.7745 56.8961 54.532C56.8961 54.2896 56.9924 54.0571 57.1638 53.8857C57.3352 53.7143 57.5677 53.618 57.8102 53.618ZM49.6141 53.9125L49.8781 55.7203C48.6797 55.893 48.4055 56.2484 48.4055 56.2687C48.3953 56.2789 48.3852 56.2891 48.4258 56.4008C48.4766 56.5125 48.5883 56.7055 48.7914 56.8883C49.1773 57.2742 49.8477 57.65 50.518 57.8227C51.1883 57.9953 51.818 57.9547 52.275 57.7008L53.1688 59.2852C52.1836 59.8438 51.0664 59.8438 50.0711 59.6C49.0758 59.3461 48.1719 58.8484 47.5117 58.1984C47.1766 57.8734 46.9023 57.5078 46.7297 57.0711C46.557 56.6445 46.5062 56.1062 46.6992 55.6086C47.0852 54.6133 48.1313 54.1156 49.6141 53.9125ZM24.4875 55.8828C22.05 55.9336 18.6375 56.7969 15.7724 57.7313C14.9782 57.9852 14.2266 58.2492 13.5391 58.5031V60.9609H16.9871C16.9343 60.6359 16.9526 60.2906 17.0805 59.9555C17.4655 58.9602 18.5187 58.4625 20.0035 58.2594L20.2574 60.0672C19.0661 60.2398 18.7959 60.5953 18.7858 60.6156C18.7817 60.6258 18.7665 60.6359 18.8122 60.7477C18.8345 60.7984 18.8752 60.8797 18.9341 60.9609H35.7406C35.9133 60.8492 36.0859 60.7477 36.2383 60.6461C35.4359 60.1484 34.3391 59.4883 32.9883 58.7672C30.5102 57.4266 27.4227 56.0859 25.4727 55.9133C25.2391 55.893 25.0055 55.8828 24.7516 55.8828H24.4875ZM28.1945 57.9648C28.437 57.9648 28.6695 58.0611 28.8409 58.2326C29.0123 58.404 29.1086 58.6365 29.1086 58.8789C29.1086 59.1213 29.0123 59.3538 28.8409 59.5252C28.6695 59.6967 28.437 59.793 28.1945 59.793C27.9521 59.793 27.7196 59.6967 27.5482 59.5252C27.3768 59.3538 27.2805 59.1213 27.2805 58.8789C27.2805 58.6365 27.3768 58.404 27.5482 58.2326C27.7196 58.0611 27.9521 57.9648 28.1945 57.9648Z" fill="url(#paint0_radial_2915_476)"/>
<defs>
<radialGradient id="paint0_radial_2915_476" cx="0" cy="0" r="1" gradientUnits="userSpaceOnUse" gradientTransform="translate(18.0735 23.8966) rotate(39.7978) scale(46.5094)">
<stop stop-color="#D4AC55"/>
<stop offset="1" stop-color="#6E592C"/>
</radialGradient>
</defs>
</svg>
