<svg width="75" height="75" viewBox="0 0 75 75" fill="none" xmlns="http://www.w3.org/2000/svg">
<rect width="75" height="75" rx="37.5" fill="white"/>
<g clip-path="url(#clip0_2915_272)">
<path d="M26.167 51.8C27.9725 51.8 29.5073 51.1681 30.7712 49.9042C32.035 48.6403 32.667 47.1056 32.667 45.3V32.3C32.667 31.6861 32.875 31.1719 33.291 30.7573C33.707 30.3428 34.2212 30.1348 34.8337 30.1333C35.4461 30.1319 35.9611 30.3399 36.3785 30.7573C36.7959 31.1748 37.0032 31.689 37.0003 32.3V45.3C37.0003 47.1056 37.6323 48.6403 38.8962 49.9042C40.16 51.1681 41.6948 51.8 43.5003 51.8C45.3059 51.8 46.8406 51.1681 48.1045 49.9042C49.3684 48.6403 50.0003 47.1056 50.0003 45.3V30.1333C50.0003 29.5194 50.2083 29.0052 50.6243 28.5907C51.0403 28.1761 51.5546 27.9681 52.167 27.9667H54.7128L52.167 30.4583L55.2003 33.5458L63.0003 25.8L55.2003 18L52.167 21.0875L54.7128 23.6333H52.167C50.3614 23.6333 48.8267 24.2653 47.5628 25.5292C46.2989 26.7931 45.667 28.3278 45.667 30.1333V45.3C45.667 45.9139 45.459 46.4288 45.043 46.8448C44.627 47.2608 44.1128 47.4681 43.5003 47.4667C42.8879 47.4652 42.3737 47.2572 41.9577 46.8427C41.5417 46.4281 41.3337 45.9139 41.3337 45.3V32.3C41.3337 30.4944 40.7017 28.9597 39.4378 27.6958C38.1739 26.4319 36.6392 25.8 34.8337 25.8C33.0281 25.8 31.4934 26.4319 30.2295 27.6958C28.9656 28.9597 28.3337 30.4944 28.3337 32.3V45.3C28.3337 45.9139 28.1257 46.4288 27.7097 46.8448C27.2937 47.2608 26.7794 47.4681 26.167 47.4667C25.5545 47.4652 25.0403 47.2572 24.6243 46.8427C24.2083 46.4281 24.0003 45.9139 24.0003 45.3V25.8H19.667V45.3C19.667 47.1056 20.2989 48.6403 21.5628 49.9042C22.8267 51.1681 24.3614 51.8 26.167 51.8ZM17.5003 58.3C16.3087 58.3 15.2889 57.8761 14.441 57.0282C13.5931 56.1803 13.1684 55.1598 13.167 53.9667V36.6333H60.8337V53.9667C60.8337 55.1583 60.4097 56.1788 59.5618 57.0282C58.7139 57.8775 57.6934 58.3014 56.5003 58.3H17.5003Z" fill="url(#paint0_radial_2915_272)"/>
</g>
<defs>
<radialGradient id="paint0_radial_2915_272" cx="0" cy="0" r="1" gradientUnits="userSpaceOnUse" gradientTransform="translate(17.9828 26.4664) rotate(33.9692) scale(45.7604 43.1188)">
<stop stop-color="#D4AC55"/>
<stop offset="1" stop-color="#6E592C"/>
</radialGradient>
<clipPath id="clip0_2915_272">
<rect width="52" height="52" fill="white" transform="translate(11 11.5)"/>
</clipPath>
</defs>
</svg>
