<svg width="75" height="75" viewBox="0 0 75 75" fill="none" xmlns="http://www.w3.org/2000/svg">
<rect width="75" height="75" rx="37.5" fill="white"/>
<path d="M32.22 14.6541C31.8215 14.6576 31.4207 14.671 31.0175 14.6941C31.2252 15.0679 31.4302 15.3568 31.557 15.6752C31.7056 16.0639 31.938 16.2149 32.3534 16.242C33.5303 16.3256 34.6717 16.582 35.8191 17.0515C35.2173 17.1341 34.6691 17.1799 34.135 17.2906C33.5977 17.404 33.0739 17.5821 32.4939 17.7412C32.618 18.1274 32.7284 18.443 32.8093 18.7614C32.8716 19.003 32.9903 19.0407 33.2307 19.0126C33.9082 18.9273 34.591 18.8818 35.271 18.817C34.4984 19.2842 33.6887 19.8938 33.409 20.242C33.3089 20.3121 33.2063 20.4524 33.2089 20.5631C33.2118 20.8816 33.2684 21.2067 33.2952 21.4645C34.8177 20.8518 36.2887 20.1675 37.8216 19.6655C39.3465 19.1623 40.9308 18.8344 42.499 18.4309C41.1362 16.7937 39.3196 15.8587 37.2846 15.2866C35.6289 14.8206 33.9464 14.6396 32.22 14.6541ZM47.0796 19.718C44.7899 19.7041 42.5198 19.9303 40.2803 20.4592C35.8459 21.5009 23.919 26.9071 22.7125 29.0985C22.4185 29.6384 23.1904 30.4995 23.8249 30.3576C27.7329 31.2346 31.8326 32.7976 35.1468 33.2024C35.2522 33.2146 35.4437 33.0917 35.4977 32.9812C35.8027 32.4089 36.0728 31.8233 36.3723 31.2107C36.8445 31.4373 37.1443 33.178 36.8445 33.8151C36.8688 33.8583 36.8934 33.8975 36.9175 33.9406C37.8434 33.8464 38.7687 33.7477 39.6838 33.6493C38.696 34.6453 37.5033 35.3657 36.1563 35.8433C36.0186 35.896 35.8349 35.9473 35.7758 36.0552C35.4789 36.6194 35.2172 37.2051 34.8985 37.8637C37.8458 37.2968 42.5826 33.7382 43.0927 33.9527C42.7849 34.4925 42.518 34.977 42.1938 35.5531C43.2549 35.9297 44.2558 36.3306 45.2868 36.6437C46.8956 37.1336 48.5419 37.4683 50.2397 37.1835C51.6566 36.9446 52.8767 36.3832 53.4812 34.9677C53.8322 34.162 53.8075 33.3254 53.5675 32.4912C53.1948 33.3186 52.5877 33.9042 51.8672 34.4008C50.4666 35.3591 48.8415 35.0999 47.8455 33.726C47.0304 32.6046 46.7742 31.2806 46.5341 29.9597C46.2749 28.5439 46.6151 27.2594 47.4597 26.1164C48.5233 24.6859 50.0857 24.6979 51.1171 26.1405C51.3736 26.5065 51.5488 26.9355 51.7781 27.3701C53.0304 24.8761 55.3917 24.5145 56.585 27.1528C56.6037 26.9192 56.6282 26.7601 56.6364 26.598C56.6796 24.4793 55.7429 22.868 54.0456 21.6722C52.0968 20.3026 49.878 19.7723 47.5379 19.7239C47.385 19.7209 47.2323 19.719 47.0796 19.718ZM46.034 20.6501L46.8196 22.1167L48.2699 21.2995L48.7866 22.2162L47.318 23.0464L48.1146 24.5299L47.1849 25.0279L46.4026 23.5613L44.9528 24.3748L44.4327 23.4653L45.9049 22.6351L45.1077 21.1444L46.034 20.6501ZM12.9504 21.2379C13.6228 21.9949 14.2596 22.6842 14.8614 23.4009C15.0638 23.6398 15.2582 23.7746 15.5742 23.8083C17.3929 24.0497 19.4981 24.7441 21.2663 25.6171C19.6549 25.4644 18.0975 25.5683 16.5805 26.0338C16.8129 26.7208 17.0611 27.3644 17.2421 28.0283C17.3229 28.32 17.4257 28.4427 17.7197 28.4736C18.362 28.5412 18.9962 28.645 19.6307 28.734C19.0557 29.1594 18.4592 29.4911 17.8733 29.8461C17.7573 29.9163 17.6334 30.0824 17.6279 30.2106C17.5901 31.1701 17.5819 32.1321 17.5629 33.1834C18.3351 33.0727 19.1256 32.9633 20.038 32.8313C19.2739 33.5926 18.0536 34.2404 17.0883 35.0323C16.8074 35.7664 16.5806 36.5207 16.2918 37.379C19.5388 36.144 22.6534 34.854 25.0769 32.2576C24.8127 32.1725 24.6128 32.1174 24.4187 32.043C23.6442 31.7556 22.8154 31.5534 22.1054 31.1483C20.794 30.3954 20.6076 28.9569 21.5686 27.7841C22.154 27.0701 22.9178 26.6033 23.7169 26.181C24.135 25.9542 24.5613 25.7451 25.0663 25.4819C21.5899 22.3065 17.4146 21.4524 12.9504 21.2379ZM37.962 23.8515C37.962 23.8515 37.6705 24.2499 37.1737 24.7585C36.6718 25.2647 35.9541 25.8625 35.1872 26.3889C34.4209 26.9138 33.6003 27.3673 32.9472 27.6495C32.2939 27.9247 31.8135 28.0499 31.8135 28.0499C31.8135 28.0499 32.1052 27.6519 32.6044 27.1432C33.1013 26.6371 33.8219 26.0392 34.591 25.5131C35.3601 24.9921 36.1777 24.5411 36.8309 24.2567C37.4868 23.9798 37.962 23.8515 37.962 23.8515ZM41.8053 25.0959C41.8053 25.0959 41.5247 25.494 41.0389 26.0028C40.5474 26.5087 39.8457 27.1094 39.0957 27.6397C38.3425 28.1607 37.5355 28.6167 36.8932 28.9027C36.2482 29.181 35.776 29.3103 35.776 29.3103C35.776 29.3103 36.0591 28.9081 36.5423 28.3995C37.0337 27.8933 37.7352 27.2968 38.4857 26.7664C39.244 26.2415 40.0457 25.7881 40.6906 25.5033C41.3329 25.224 41.8053 25.0959 41.8053 25.0959ZM44.7638 26.4538C44.7638 26.4538 44.5232 26.8489 44.0996 27.3577C43.6759 27.8637 43.0494 28.4671 42.3694 29.0001C41.6895 29.5303 40.9526 29.9961 40.3615 30.2874C39.7648 30.5763 39.3224 30.7112 39.3224 30.7112C39.3224 30.7112 39.5624 30.3144 39.9861 29.807C40.4097 29.3009 41.0389 28.7004 41.7134 28.1634C42.3963 27.6329 43.1331 27.1743 43.7244 26.88C44.3209 26.5914 44.7637 26.4537 44.7637 26.4537L44.7638 26.4538ZM49.48 28.5534C48.6999 28.5534 48.0659 29.1876 48.0659 29.9717C48.0659 30.7572 48.6999 31.3912 49.48 31.3912H59.6294C60.4149 31.3912 61.0494 30.7572 61.0494 29.9717C61.0494 29.1875 60.4149 28.5534 59.6293 28.5534H49.48ZM36.2801 39.644C36.5364 39.938 36.7872 40.2321 37.0408 40.5265C40.7224 44.8232 34.364 51.1618 33.5976 52.1766C32.8477 53.1783 32.3598 54.6723 32.4591 56.0807C30.5277 54.6112 30.6907 52.3753 31.6921 50.1146C29.0335 51.3211 27.1436 52.6951 26.1109 55.9403C25.7031 58.0604 31.0125 60.3468 31.973 60.3468C38.3511 60.3468 38.9119 55.7016 39.3383 52.2711C40.7915 53.574 39.591 57.5581 41.4569 58.9769C43.2256 60.3216 46.3963 60.5989 48.1183 59.2129C48.6283 58.8027 52.3935 51.5694 46.8632 48.8974C47.9604 51.8013 46.5364 54.3349 43.3599 55.514C44.031 53.6174 45.0197 51.6313 44.6314 49.1307C44.1213 46.2092 42.5472 41.6116 39.9315 40.386C39.3243 40.1041 36.8737 39.6439 36.2801 39.6439V39.644Z" fill="url(#paint0_radial_2915_415)"/>
<defs>
<radialGradient id="paint0_radial_2915_415" cx="0" cy="0" r="1" gradientUnits="userSpaceOnUse" gradientTransform="translate(17.5987 24.2528) rotate(38.3594) scale(46.714 46.2247)">
<stop stop-color="#D4AC55"/>
<stop offset="1" stop-color="#6E592C"/>
</radialGradient>
</defs>
</svg>
