<svg width="75" height="75" viewBox="0 0 75 75" fill="none" xmlns="http://www.w3.org/2000/svg">
<rect width="75" height="75" rx="37.5" fill="white"/>
<path d="M21.8335 57C20.0279 57 18.4932 56.3681 17.2293 55.1042C15.9654 53.8403 15.3335 52.3056 15.3335 50.5C15.3335 48.6944 15.9654 47.1597 17.2293 45.8958C18.4932 44.6319 20.0279 44 21.8335 44H52.1668C53.9724 44 55.5071 44.6319 56.771 45.8958C58.0349 47.1597 58.6668 48.6944 58.6668 50.5C58.6668 52.3056 58.0349 53.8403 56.771 55.1042C55.5071 56.3681 53.9724 57 52.1668 57H21.8335ZM21.8335 52.6667H52.1668C52.7807 52.6667 53.2957 52.4587 53.7117 52.0427C54.1277 51.6267 54.3349 51.1124 54.3335 50.5C54.3321 49.8876 54.1241 49.3733 53.7095 48.9573C53.2949 48.5413 52.7807 48.3333 52.1668 48.3333H21.8335C21.2196 48.3333 20.7054 48.5413 20.2908 48.9573C19.8763 49.3733 19.6683 49.8876 19.6668 50.5C19.6654 51.1124 19.8734 51.6274 20.2908 52.0448C20.7083 52.4623 21.2225 52.6696 21.8335 52.6667ZM32.6668 39.6667C32.0529 39.6667 31.5387 39.4587 31.1242 39.0427C30.7096 38.6267 30.5016 38.1124 30.5002 37.5V20.1667C30.5002 19.5528 30.7082 19.0386 31.1242 18.624C31.5402 18.2094 32.0544 18.0014 32.6668 18H50.0002C50.6141 18 51.129 18.208 51.545 18.624C51.961 19.04 52.1683 19.5542 52.1668 20.1667V37.5C52.1668 38.1139 51.9588 38.6288 51.5428 39.0448C51.1268 39.4608 50.6126 39.6681 50.0002 39.6667H32.6668ZM15.3335 35.225V31.0542H26.0043V35.225H15.3335ZM37.0002 28.8333H45.6668V24.5542H37.0002V28.8333ZM19.6668 28.8333H26.0043V24.5542H19.6668V28.8333Z" fill="url(#paint0_radial_2913_95)"/>
<defs>
<radialGradient id="paint0_radial_2913_95" cx="0" cy="0" r="1" gradientUnits="userSpaceOnUse" gradientTransform="translate(19.5212 26.1933) rotate(36.8623) scale(41.2468 40.2558)">
<stop stop-color="#D4AC55"/>
<stop offset="1" stop-color="#6E592C"/>
</radialGradient>
</defs>
</svg>
