<svg width="75" height="75" viewBox="0 0 75 75" fill="none" xmlns="http://www.w3.org/2000/svg">
<circle cx="37.5" cy="37.5" r="37.5" fill="white"/>
<path d="M43.8364 16.5C43.8813 19.2757 45.1403 21.6763 47.2626 24.3303L47.6313 24.7924L43.6835 30.4807H49.1331L50.2662 25.779L50.8417 25.7168C52.5234 25.5479 54.5288 24.8102 56.2374 23.9481C56.8759 23.6192 57.4604 23.2815 58 22.9437C57.6223 22.9437 57.3345 22.9553 56.9029 22.9437C54.8885 22.8895 52.5234 22.7198 50.8417 22.0318C49.0072 21.2755 47.0108 19.5619 45.3831 18.0278C44.7896 17.467 44.277 16.9577 43.8364 16.5ZM19.7204 16.6067C17.9767 20.8586 19.6763 26.73 21.8625 30.4807H23.6835C23.6116 30.2674 23.5756 30.0452 23.5756 29.8141C23.5756 28.5965 24.5918 27.5921 25.8238 27.5921C27.0558 27.5921 28.072 28.5965 28.072 29.8141C28.072 30.0452 28.036 30.2674 27.9641 30.4807H33.4227C31.9839 27.1744 29.6637 23.1304 25.9767 20.0854C26.4353 21.7892 27.0738 23.4415 28.117 25.0235L26.7501 25.8945C25.2033 23.5303 24.4749 21.0604 23.9713 18.626C22.6943 17.8145 21.2824 17.1248 19.7204 16.6067ZM25.8238 29.192C25.4641 29.192 25.1943 29.4586 25.1943 29.8141C25.1943 30.1696 25.4641 30.4363 25.8238 30.4363C26.1835 30.4363 26.4533 30.1696 26.4533 29.8141C26.4533 29.4586 26.1835 29.192 25.8238 29.192ZM20.9857 32.0805V34.7469H38.6565C38.8094 34.2314 38.9533 33.707 39.1061 33.1826L40.6709 33.6093C40.563 33.9914 40.4551 34.3647 40.3471 34.7469H51.0216V32.0805H20.9857ZM22.5864 36.3467L25.4191 51.234C29.7177 49.492 32.4875 47.0745 34.4749 44.2392C36.1385 41.8661 37.2446 39.1731 38.1529 36.3467H22.5864ZM39.8615 36.3467C38.8993 39.422 37.7033 42.435 35.7968 45.1547C33.6026 48.2743 30.4461 50.9763 25.7159 52.8338L26.6062 57.5H45.4011L49.4209 36.3467H39.8615Z" fill="url(#paint0_radial_2913_82)"/>
<defs>
<radialGradient id="paint0_radial_2913_82" cx="0" cy="0" r="1" gradientUnits="userSpaceOnUse" gradientTransform="translate(22.7689 25.1134) rotate(41.2127) scale(39.4814 39.7912)">
<stop stop-color="#D4AC55"/>
<stop offset="1" stop-color="#6E592C"/>
</radialGradient>
</defs>
</svg>
