<svg width="139" height="137" viewBox="0 0 139 137" fill="none" xmlns="http://www.w3.org/2000/svg">
<path fill-rule="evenodd" clip-rule="evenodd" d="M0 0.14624H139V136.62H134.654C134.654 134.236 132.715 132.301 130.316 132.301C127.91 132.301 125.971 134.236 125.971 136.62H117.279C117.279 134.236 115.34 132.301 112.941 132.301C110.535 132.301 108.596 134.236 108.596 136.62H99.9044C99.9044 134.236 97.9646 132.301 95.5663 132.301C93.1604 132.301 91.2206 134.236 91.2206 136.62H82.5294C82.5294 134.236 80.5896 132.301 78.1913 132.301C75.7854 132.301 73.8456 134.236 73.8456 136.62H65.1544C65.1544 134.236 63.2146 132.301 60.8163 132.301C58.4104 132.301 56.4706 134.236 56.4706 136.62H47.7794C47.7794 134.236 45.8396 132.301 43.4413 132.301C41.0354 132.301 39.0956 134.236 39.0956 136.62H30.4044C30.4044 134.236 28.4646 132.301 26.0663 132.301C23.6604 132.301 21.7206 134.236 21.7206 136.62H13.0294C13.0294 134.236 11.0896 132.301 8.69126 132.301C6.28537 132.301 4.34563 134.236 4.34563 136.62H0L0 0.14624Z" fill="#E31E24"/>
<path fill-rule="evenodd" clip-rule="evenodd" d="M69.5 17.4135L72.4397 41.6293L80.3941 18.5492L78.1988 42.8472L90.8146 21.9114L83.5744 45.2158L100.31 27.3434L88.3336 48.6453L108.453 34.6134L92.2732 52.9864L114.889 43.4001L96.5812 57.0211L97.1376 57.6637L119.347 53.3301L97.0323 63.5888L121.625 63.9623L97.6488 69.3943L116.234 73.6084L113.708 74.5647L110.498 74.9981L97.0323 75.1998L101.385 77.1948L96.7993 78.8311L44.9149 91.421L41.5617 91.6675L46.7268 85.8022L24.1115 95.381L43.7871 80.7513L19.6531 85.4585L41.9677 75.1998L17.375 74.8262L41.3511 69.3943L17.375 63.9623L41.9677 63.5888L19.6531 53.3301L43.7871 58.0373L24.1115 43.4001L46.7268 52.9864L30.5472 34.6134L50.6664 48.6453L38.6896 27.3434L55.4256 45.2158L48.1854 21.9114L60.8012 42.8472L58.6058 18.5492L66.5603 41.6293L69.5 17.4135Z" fill="white"/>
<path fill-rule="evenodd" clip-rule="evenodd" d="M59.7787 66.6523C59.8764 66.727 59.9441 66.8689 59.884 67.0632L53.764 74.2211C51.4859 77.0977 49.5762 78.6892 48.6515 82.4326C48.05 84.8683 48.7041 88.0065 49.7567 89.8221L81.5971 82.1187L93.619 79.2272C94.9121 75.5287 96.1827 72.3681 97.4458 68.5351L100.04 60.2714C100.137 59.9651 100.461 59.0759 100.416 58.8144C100.378 58.5828 99.9269 57.8281 99.7615 57.6787C99.7615 57.6787 97.4082 57.3724 96.9797 57.873C96.7391 58.2017 96.2805 59.7783 96.1076 60.249L95.273 62.6623C95.1001 63.021 94.6264 63.0733 94.243 63.2153C91.5063 64.2165 86.4915 66.5626 84.033 67.8851C83.6496 68.0868 82.1309 68.976 81.8226 69.0208C81.3339 67.7058 80.8152 66.3982 80.2663 65.0384C79.9581 64.2613 78.7476 61.564 78.695 60.9065C79.537 60.234 81.7399 56.1096 81.785 54.6601L77.8755 50.8645C75.9583 49.0937 76.5447 49.8409 76.0109 46.9493C75.5598 44.5583 75.4545 45.4176 77.1913 42.8697C77.7251 42.0777 78.2664 41.2932 78.7777 40.5684C80.2062 38.5287 79.6799 38.7976 80.5971 36.5935C80.74 36.2348 80.6873 35.8538 80.6197 35.4503C80.5295 34.9049 80.5144 34.875 79.7551 34.3445C78.7326 33.6347 77.056 32.484 76.8454 32.4168C75.7929 32.088 76.3943 32.3421 75.3944 31.7966C75.1087 31.6397 75.0335 31.5874 74.6426 31.5202C74.1163 31.4305 74.1088 31.5874 73.7704 31.6472C72.8607 31.7966 70.4699 29.5476 69.2368 31.0719C68.4624 31.1167 68.4549 31.3633 68.1617 31.8415C67.3798 32.1403 67.7482 31.9909 67.3347 32.5961C66.8009 32.4242 66.1693 31.7966 65.5829 31.6621C65.3423 31.7443 65.1919 31.8863 64.9739 31.9984C64.7935 32.0955 64.38 32.215 64.2146 32.2673C62.4928 32.8277 61.117 33.0967 59.3652 33.5525L59.2449 34.606L60.0043 34.9721C60.1095 35.6072 59.914 36.6159 59.9065 37.2734C59.884 38.7453 60.3351 40.8449 59.6058 41.7041C58.7562 42.6979 59.3953 42.4961 59.4479 43.3703C58.5006 44.394 57.3954 45.044 56.1398 45.7015C55.3729 46.105 55.5007 45.8958 55.3429 46.8223C55.2301 47.5097 55.5458 47.5919 55.5458 48.3615L55.5684 54.0624C55.591 57.9701 55.5459 56.8643 57.5006 59.6363C57.9818 60.3088 57.9743 60.0099 57.7412 60.9364C57.4555 62.087 56.621 64.605 56.5458 65.5091C57.5382 65.9424 58.6885 66.3609 59.7787 66.6523Z" fill="#E31E24"/>
<path fill-rule="evenodd" clip-rule="evenodd" d="M96.9797 57.8729C96.7391 58.2017 96.2805 59.7782 96.1076 60.249L95.273 62.6623C95.1001 63.021 94.6265 63.0807 94.243 63.2152C91.5063 64.2164 86.4916 66.5626 84.033 67.8851C83.6496 68.0868 82.1309 68.9759 81.8226 69.0208C81.334 67.7057 80.8152 66.3982 80.2663 65.0383C79.9581 64.2613 78.7476 61.564 78.695 60.9065C79.5371 60.234 81.7399 56.1096 81.785 54.6601L77.8755 50.8645C75.9583 49.0937 76.5447 49.8408 76.0109 46.9493C75.5598 44.5583 75.4546 45.4176 77.1913 42.8697C77.7251 42.0777 78.2664 41.2932 78.7777 40.5684C80.2062 38.5286 79.6799 38.7976 80.5971 36.5934C80.74 36.2348 80.6874 35.8537 80.6197 35.4503C80.5295 34.9048 80.5144 34.8749 79.7551 34.3445C78.7326 33.6346 77.056 32.484 76.8455 32.4167C75.7929 32.088 76.3944 32.342 75.3944 31.7966C75.1087 31.6397 75.0335 31.5874 74.6426 31.5201C74.1163 31.4305 74.1088 31.5874 73.7704 31.6472C72.8607 31.7966 70.4699 29.5476 69.2369 31.0718C68.4625 31.1167 68.4549 31.3632 68.1617 31.8414C67.3798 32.1403 67.7482 31.9909 67.3347 32.5961C66.8009 32.4242 66.1694 31.7966 65.5829 31.6621C65.3423 31.7443 65.192 31.8863 64.9739 31.9983C64.7935 32.0955 64.38 32.215 64.2146 32.2673C62.4929 32.8277 61.117 33.0967 59.3652 33.5524L59.2449 34.606L60.0043 34.9721C60.1095 35.6072 59.9141 36.6159 59.9065 37.2734C59.884 38.7453 60.3351 40.8449 59.6058 41.7041C58.7562 42.6979 59.3953 42.4961 59.4479 43.3703C58.5006 44.3939 57.3954 45.044 56.1398 45.7015C55.3729 46.105 55.5008 45.8958 55.3429 46.8223C55.2301 47.5096 55.5459 47.5918 55.5459 48.3614L55.5684 54.0624C55.591 57.9701 55.5459 56.8643 57.5007 59.6363C57.9818 60.3162 57.9743 60.0099 57.7412 60.9364C57.4555 62.087 56.621 64.605 56.5458 65.5091C57.5382 65.9424 58.6886 66.3608 59.7787 66.6522C59.8765 66.727 59.9441 66.8689 59.884 67.0632L53.764 74.2211C51.4859 77.0977 49.5763 78.6892 48.6515 82.4325C48.05 84.8683 48.7041 88.0064 49.7567 89.8221L81.5971 82.1187L93.619 79.2272C94.9122 75.5286 96.1828 72.3681 97.4459 68.5351L100.04 60.2714C100.137 59.965 100.461 59.0759 100.416 58.8144C100.378 58.5828 99.9269 57.8281 99.7615 57.6787C99.7615 57.6787 97.4083 57.3723 96.9797 57.8729ZM52.8167 73.4216L57.9893 67.3845L57.7713 67.3097C57.1698 67.1005 56.5834 66.8614 56.0496 66.6298L55.2376 66.2786L55.3128 65.4044C55.3729 64.7096 55.7714 63.3423 56.1248 62.1318C56.2902 61.5715 56.4481 61.0484 56.5458 60.645L56.5909 60.4731L56.4932 60.3461C56.0722 59.7409 55.7714 59.3673 55.5384 59.0684C55.0647 58.4632 54.7865 58.112 54.591 57.5517C54.3504 56.8568 54.3504 56.0947 54.3429 54.3015C54.3279 52.3214 54.3129 50.334 54.3129 48.354C54.3129 48.197 54.2753 48.085 54.2452 47.9804C54.1174 47.6143 54.0121 47.2855 54.1249 46.6205L54.17 46.3515C54.2452 45.9032 54.2753 45.6791 54.5083 45.3578C54.7414 45.029 54.9369 44.9319 55.3053 44.7526L55.5609 44.6256V44.6181C56.1774 44.2893 56.7413 43.9755 57.215 43.6542C57.5007 43.4674 57.7638 43.2657 58.0269 43.0416C57.7488 42.4662 57.7187 42.0179 58.6585 40.9121C58.8615 40.673 58.7938 39.6643 58.7337 38.7079C58.6961 38.2298 58.666 37.7516 58.6735 37.2584C58.6735 36.9596 58.7036 36.6532 58.7337 36.3394C58.7562 36.1377 58.7788 35.9359 58.7863 35.7491L57.9142 35.3307L58.2375 32.5811L59.057 32.3644C59.6208 32.215 60.1471 32.088 60.6584 31.9684C61.7034 31.7144 62.6808 31.4753 63.8311 31.1017C63.8462 31.0943 63.9589 31.0569 63.974 31.0569C64.1319 31.0046 64.3725 30.9299 64.41 30.9149C64.4326 30.9 64.4777 30.8701 64.5228 30.8402C64.7033 30.7207 64.8762 30.6086 65.1769 30.504L65.5153 30.3844L65.8611 30.4666C66.3047 30.5638 66.6731 30.773 67.0265 30.9971C67.1016 30.9523 67.1919 30.9075 67.3046 30.8552C67.6054 30.3396 67.8535 30.0258 68.6504 29.8988C70.0037 28.6958 71.6127 29.4579 72.9434 30.093C73.2968 30.2649 73.4998 30.4293 73.5674 30.4367L73.575 30.4293C73.5675 30.4293 73.5675 30.4293 73.575 30.4293C73.8832 30.3022 74.1614 30.1976 74.8456 30.3097C75.4245 30.4068 75.5598 30.4816 75.9508 30.6982L75.9884 30.7207H75.9959C76.3192 30.8925 76.4395 30.9672 76.5222 31.0121V31.0195C76.5823 31.0569 76.5748 31.0569 76.5898 31.0644H76.5974C76.6124 31.0718 76.6124 31.0644 76.6801 31.0868C76.7552 31.1092 76.868 31.1391 77.2214 31.2512C77.4319 31.3184 77.883 31.5949 78.4168 31.946C79.0559 32.3644 79.8754 32.9323 80.4618 33.3432C80.943 33.6795 81.1911 33.8588 81.4166 34.1427C81.7099 34.5238 81.755 34.7703 81.8377 35.2485C81.8828 35.4876 81.9204 35.7342 81.9204 36.0181C81.9279 36.3693 81.8828 36.713 81.7324 37.0642C81.4467 37.7516 81.3114 38.2073 81.1986 38.5735C80.958 39.3655 80.8302 39.7839 79.7852 41.2708C79.6348 41.4874 79.3566 41.8909 79.0108 42.384L78.2138 43.5571C77.8755 44.0502 77.6048 44.4313 77.3868 44.7302C77.1161 45.1037 76.9658 45.3055 76.9507 45.3503C76.9507 45.3503 76.9958 45.567 77.0861 46.0302V46.0377C77.1086 46.1423 77.1312 46.2395 77.2214 46.7326C77.3492 47.4125 77.4169 47.8907 77.462 48.2493C77.5146 48.608 77.5372 48.8023 77.5748 48.8695C77.6123 48.9517 77.8153 49.1385 78.289 49.5793C79.9055 51.0587 81.4618 52.6278 83.0331 54.1595L83.0181 54.69C82.988 55.5567 82.4467 56.9988 81.7775 58.3511C81.2362 59.442 80.5821 60.5329 80.0408 61.2352C80.2663 61.8703 80.755 63.0284 81.0934 63.8204C81.2437 64.1791 81.3715 64.478 81.4166 64.5826C81.6723 65.2177 81.9354 65.8752 82.2136 66.5999L82.4993 67.3322L83.4466 66.8017C84.7548 66.0993 86.7923 65.1056 88.8448 64.1716C90.6793 63.3273 92.5138 62.5428 93.8145 62.0646C93.9573 62.0123 94.0551 61.9824 94.1528 61.9525C94.3633 61.8927 94.7919 60.2863 94.9498 59.838C94.9798 59.7558 95.0475 59.5391 95.1302 59.2776C95.3708 58.5454 95.6941 57.5517 95.9647 57.1706L96.0399 57.0809C96.4384 56.6177 97.1 56.4234 97.7992 56.3786C98.7841 56.3039 100.19 56.528 100.19 56.528L100.431 56.6177L100.604 56.7746C100.769 56.9315 101.032 57.3051 101.235 57.6488C101.423 57.9775 101.588 58.3586 101.634 58.6201C101.716 59.1207 101.468 59.8754 101.303 60.3834C100.386 63.2152 99.5585 66.0919 98.6187 68.9162C97.8519 71.2399 97.1 73.3021 96.3331 75.3717C95.7993 76.8138 95.2655 78.2708 94.7843 79.6306L94.5663 80.2657L81.8903 83.3067L49.1402 91.2342L48.6816 90.4348C48.0576 89.3514 47.5613 87.872 47.3283 86.3328C47.1253 84.9356 47.1328 83.4562 47.4561 82.1411C48.2606 78.8909 49.6966 77.1724 51.4634 75.0729C51.9145 74.5349 52.3881 73.9745 52.7866 73.4664L52.8167 73.4216ZM73.575 30.4367C73.5975 30.4293 73.5825 30.4293 73.575 30.4293V30.4367Z" fill="white"/>
<path fill-rule="evenodd" clip-rule="evenodd" d="M72.8758 54.8543C73.5449 55.0112 74.6426 55.0112 75.5072 55.1756L77.4996 58.1867C77.6875 58.4707 77.9883 59.0161 78.2514 59.2029C78.8454 58.7919 80.4543 55.6015 80.334 55.1383C80.3115 55.0635 72.951 47.4947 72.6277 47.3378C72.5299 47.9953 72.3269 50.5805 72.372 51.1782L72.8758 54.8543Z" fill="white"/>
<path fill-rule="evenodd" clip-rule="evenodd" d="M72.7927 65.0832C73.5897 65.4418 73.304 64.7395 74.0107 64.9487C74.1535 64.9935 74.349 65.0608 74.6347 65.1728C75.7474 65.6062 74.4092 66.4356 76.0407 67.25C76.1309 67.2948 76.1234 67.2724 76.1985 67.3247C76.7549 67.7431 76.7549 70.7916 77.0782 71.86C77.5293 71.7256 79.1833 70.6571 79.6796 70.3657C80.1908 70.0668 80.6344 69.9921 80.6645 69.2599C80.6795 68.7892 80.5592 68.4529 80.2885 68.2437C79.7999 67.8851 79.6871 68.3035 79.845 67.377C79.9051 67.0258 79.9502 66.6896 79.6044 66.331C79.236 65.935 78.7924 65.8677 78.439 65.4642C78.3037 64.7843 78.5969 64.1791 78.4766 63.5814C78.3563 62.9986 77.8451 62.8491 77.5368 62.5353C77.4466 61.818 77.6195 61.8554 77.3113 61.1979C75.1986 61.2576 73.0483 62.8491 72.5371 64.3435C72.3491 64.8889 72.3491 64.8889 72.7927 65.0832Z" fill="white"/>
<path fill-rule="evenodd" clip-rule="evenodd" d="M68.4987 41.5249C68.5513 42.1974 69.7617 44.2148 70.0399 45.0367C70.0324 45.1936 68.5137 46.927 68.4611 47.0914C68.4987 48.1449 69.0475 48.7202 68.8295 49.9232C68.6114 51.1635 68.5513 51.679 68.7092 53.009C68.837 54.0625 69.1152 58.6203 69.3783 59.1508C69.5888 59.3077 69.9347 59.4422 70.273 59.4646C70.3407 58.0972 70.4985 56.6029 70.6564 55.2281C70.8218 53.7711 70.8594 52.3739 71.0399 50.9169L71.6338 44.5585C71.694 43.9234 71.8293 42.967 71.7917 42.3468C70.6865 42.0629 69.649 41.0393 68.4987 41.5249Z" fill="white"/>
<path fill-rule="evenodd" clip-rule="evenodd" d="M62.0704 45.2682C62.2584 45.6567 63.0328 46.105 63.341 46.5384C63.4012 47.4723 63.3636 47.3304 63.6719 48.0402L65.4537 51.8956C65.6793 52.3813 65.8973 52.6278 65.8973 53.2704C65.9048 53.9802 65.98 57.1557 66.1228 57.7161C66.2281 58.1121 66.183 58.2017 66.401 58.4259C66.5364 58.0149 66.9799 53.248 66.8446 52.4859C66.7394 51.8956 66.6115 51.268 66.4837 50.7076C65.9574 48.3166 65.574 45.8734 65.0402 43.5123C64.747 43.5048 64.1981 43.5048 63.92 43.5646C63.4388 43.6617 62.3035 44.8871 62.0704 45.2682Z" fill="white"/>
<path fill-rule="evenodd" clip-rule="evenodd" d="M66.0408 66.6525C65.8679 66.264 65.6273 66.1445 65.6423 65.6214C65.695 64.1644 67.364 65.5094 67.4092 64.665C67.4317 64.2616 66.5521 62.5281 65.5296 62.1097C64.6198 61.7361 64.3567 62.0201 63.9131 62.3787C63.4921 62.7224 62.1312 63.7834 62.0711 64.1943C61.9809 64.8369 62.4019 66.0922 62.7477 66.4583C62.8605 66.5853 63.0109 66.6451 63.1688 66.7497C63.5522 67.0037 63.9507 67.4894 64.477 67.6612C65.4093 67.9526 66.0483 67.7434 66.0408 66.6525Z" fill="white"/>
<path fill-rule="evenodd" clip-rule="evenodd" d="M81.8828 72.6222C82.176 73.0182 82.3565 72.8912 82.973 72.5699C84.9879 71.5089 89.5441 68.8639 94.0025 68.2886L94.0476 66.0994C92.4086 66.2413 86.1458 69.4019 84.409 70.3956C84.003 70.6272 82.8226 71.3371 82.0858 71.8227C81.5219 72.1888 81.6272 72.271 81.8828 72.6222Z" fill="white"/>
<path fill-rule="evenodd" clip-rule="evenodd" d="M95.7091 64.4928C95.9121 64.7469 96.1076 64.9486 96.2579 65.2027C96.5587 66.2786 94.634 70.5225 94.3107 71.9123C94.6415 71.9571 94.9948 71.7927 95.2354 71.6582C95.5211 71.4266 98.0699 63.5365 98.536 62.1019C98.7089 61.5564 98.8894 61.0409 99.0698 60.4955C99.3179 59.7259 99.4532 59.6661 99.2502 58.762L97.8293 58.7097C97.3932 59.3 95.7392 64.0968 95.7091 64.4928Z" fill="white"/>
<path fill-rule="evenodd" clip-rule="evenodd" d="M63.4097 33.2238C63.4247 33.956 63.9059 34.5986 64.1389 35.3084C64.5299 36.5114 64.2066 36.5861 63.7029 37.3856C63.2668 38.058 61.8082 40.3892 62.109 41.4427C62.4699 41.4427 62.718 40.972 62.8759 40.7628C63.6051 39.8214 67.1839 34.9498 67.3944 34.2699L65.9058 32.7755L63.4097 33.2238Z" fill="white"/>
<path fill-rule="evenodd" clip-rule="evenodd" d="M83.4776 75.3195C83.6506 75.5437 83.831 75.6782 84.0415 75.5512C87.6353 73.5338 89.7705 72.6148 93.0034 71.8302L93.1012 69.8502C90.8457 70.164 86.1392 72.824 83.6431 74.6247C83.1468 74.9833 83.2371 74.9982 83.4776 75.3195Z" fill="white"/>
<path fill-rule="evenodd" clip-rule="evenodd" d="M59.4767 59.6809C60.033 60.3757 59.8676 59.524 60.6947 60.4729L60.3864 61.1005L60.5293 61.377C61.1834 61.5114 61.5518 61.3695 61.6345 62.1391C61.3488 62.692 60.8977 62.9161 61.2811 63.611C61.7172 63.6035 62.672 62.7816 62.9126 62.565C63.1005 62.4081 63.4389 62.0644 63.5817 61.885C63.7847 61.6235 63.9952 61.3844 64.0103 60.9062C63.6419 60.5326 62.5517 58.3509 61.9953 57.6486C61.642 57.6934 60.8826 58.2463 60.5217 58.4555C60.1458 58.6722 59.5895 59.2699 59.4767 59.6809Z" fill="white"/>
<path fill-rule="evenodd" clip-rule="evenodd" d="M58.6593 53.5765C58.6443 53.8828 58.6894 54.1369 58.5992 54.3984C58.4864 54.7197 58.321 54.7197 58.4488 55.1306C58.5465 55.4743 59.0352 55.9152 59.2081 56.2738C59.2232 56.5278 58.6142 57.006 58.7721 57.4992C58.7796 57.5066 58.8548 57.6785 58.8698 57.7158C58.9976 57.9998 58.9751 57.9699 59.3134 57.8952C60.0352 57.7383 61.0201 57.2451 61.6065 57.0658C61.6366 56.1916 61.5388 53.7484 60.9299 53.1357C60.7494 52.9564 60.6592 53.0161 60.4412 52.8368C60.1103 52.5603 60.1329 52.3213 59.7044 52.6351C59.351 52.904 58.9224 53.3822 58.6593 53.5765Z" fill="white"/>
<path fill-rule="evenodd" clip-rule="evenodd" d="M76.7393 35.383C78.055 35.8762 77.4761 35.8986 76.9047 37.6694C76.7769 38.0654 76.8897 38.2895 76.5062 38.4763C76.1754 38.6407 75.9047 38.5809 75.6266 38.8574C75.5363 39.7839 76.6115 39.1712 77.0175 38.9769C77.4911 38.7528 77.9422 38.4988 78.476 38.1326C79.9346 37.1314 79.7692 36.8998 79.5963 34.8899C79.0925 34.6508 77.0851 33.2013 76.7017 33.2013C76.5137 33.7766 76.7017 34.7853 76.7393 35.383Z" fill="white"/>
<path fill-rule="evenodd" clip-rule="evenodd" d="M92.2124 73.6158C90.438 74.0118 86.5435 76.0292 85.3556 77.2172C85.4684 77.404 85.8292 77.6655 86.0774 77.6655C86.2127 77.6655 86.7089 77.4115 86.8969 77.3218C88.4682 76.6045 90.3252 75.962 92.1146 75.5959L92.2124 73.6158Z" fill="white"/>
<path fill-rule="evenodd" clip-rule="evenodd" d="M56.8009 46.7777L57.9888 48.0703C58.2444 48.3467 58.9587 49.1313 59.2895 49.333L60.3571 47.2932C60.5451 46.9271 60.8383 46.5834 60.6654 46.1276C60.5225 45.7391 60.4022 45.3132 60.1691 45.0367C59.6654 45.2011 58.9361 45.6195 58.4474 45.8661C58.064 46.0604 56.9964 46.4937 56.8009 46.7777Z" fill="white"/>
<path fill-rule="evenodd" clip-rule="evenodd" d="M67.861 36.2871C66.9137 36.4739 67.0415 36.1228 66.5753 36.9148C66.3272 37.3332 66.0265 37.774 65.8987 38.1476C66.0415 38.4091 66.3272 38.6631 66.628 38.9247C67.2219 39.4477 68.0414 39.2011 68.8158 39.1189C69.094 39.089 69.1617 39.089 69.2444 38.7453C69.3346 38.3269 69.1692 38.3269 68.8534 38.1625L68.891 37.7292C68.906 37.4976 68.906 37.4826 68.703 37.3481C68.5301 37.2286 68.4098 37.1165 68.6504 36.9745C68.7933 36.8849 69.7857 36.8326 69.1391 36.2124C68.891 35.9733 68.7632 35.7716 68.5226 35.54C67.9813 35.0169 68.0565 35.9658 67.861 36.2871Z" fill="white"/>
<path fill-rule="evenodd" clip-rule="evenodd" d="M70.3499 36.4812C70.3724 37.1237 70.0567 37.445 70.0416 38.0876C70.5078 38.4462 70.395 38.8572 70.3424 39.5222C71.0115 39.3354 71.0717 38.7899 72.2145 38.4014C72.3122 38.364 72.2896 38.3865 72.3874 38.3342C72.628 38.1997 72.4475 38.1025 72.8385 37.2732C72.5753 36.8846 72.034 36.6007 71.6581 36.1674L71.6731 35.4277C71.2295 35.4202 70.9063 35.4725 70.4927 35.4202C70.1394 35.3679 69.801 35.2782 69.4552 35.3455C69.5605 35.4202 70.177 36.2271 70.3499 36.4812Z" fill="white"/>
<path fill-rule="evenodd" clip-rule="evenodd" d="M69.5676 31.6323C68.5301 31.692 69.109 31.6024 68.6053 32.2001C68.3797 32.4616 68.2444 32.3346 68.0564 32.5214C67.8083 32.768 67.6805 33.5002 67.8459 33.8364L68.3121 33.8887L68.6654 33.3732C69.3646 33.8215 69.6052 33.4628 69.7556 32.7979L70.3646 32.8576L70.7029 32.3122C71.4021 32.3122 72.8757 33.2536 72.8983 32.0357C72.3946 31.5351 70.8232 31.0943 70.2819 31.1018C69.7631 31.1092 69.7706 31.3409 69.5676 31.6323Z" fill="white"/>
<path fill-rule="evenodd" clip-rule="evenodd" d="M74.011 32.1104C74.1163 32.5736 74.4395 32.6484 74.3193 33.1191C73.9809 34.5013 73.3494 34.7404 72.3419 35.1962V35.637C72.7404 35.6221 73.6125 35.3681 73.8306 35.1813C74.3794 34.718 75.4395 33.4329 75.1763 32.6558C74.9282 31.9236 74.3193 31.9012 74.011 32.1104Z" fill="white"/>
<path fill-rule="evenodd" clip-rule="evenodd" d="M64.4786 40.277L65.1102 42.3617C65.3733 42.1823 66.3883 41.3231 66.6815 41.0765C66.486 40.8673 65.5011 39.9558 65.2681 39.8287L64.4786 40.277Z" fill="white"/>
<path fill-rule="evenodd" clip-rule="evenodd" d="M70.8608 33.2087L70.8758 33.8961C70.5826 33.9036 69.4849 33.8737 69.4323 34.2921C69.4022 34.5835 69.6127 34.5611 70.53 34.6507C70.8382 34.6806 71.2968 34.6283 71.5675 34.5088C72.1013 34.2697 72.4622 33.6346 71.966 33.007L70.8608 33.2087Z" fill="white"/>
<path fill-rule="evenodd" clip-rule="evenodd" d="M55.0873 88.537L52.7867 89.0899C52.7942 88.2381 52.6137 87.4013 52.5761 86.5196C52.531 85.6155 52.516 84.7638 52.531 83.8298C52.5536 82.1038 52.8694 80.5348 53.343 79.0927L53.952 79.1525L53.8843 82.0739C54.3129 82.059 55.7414 81.14 56.2301 80.8486C56.6135 80.617 56.6812 80.6543 56.7338 80.1089C56.8691 78.6967 57.1022 77.1874 57.4255 75.8649L57.9292 75.9023L57.9593 79.6382C58.4405 79.541 59.7562 78.3829 60.2299 78.0168C60.6133 77.7179 60.6659 77.7926 60.7336 77.18C60.8388 76.3207 61.2524 73.2125 61.5757 72.7119C62.0643 72.682 62.0493 72.8389 62.0042 73.2947C61.9365 74.0493 61.8463 75.8649 61.9741 76.5075L63.1846 75.3344C63.4552 75.0654 63.5154 74.9758 63.771 74.7292C64.0266 74.4752 64.1921 74.3706 64.2672 73.9522C64.4326 73.0182 64.7334 70.4554 65.1243 69.8128L65.5378 69.8054C65.5228 70.7244 65.2747 71.8003 65.38 72.8015C65.8311 72.3756 67.831 69.626 67.9738 69.0208C65.9438 65.7631 70.2068 66.5178 70.312 68.5501C70.3722 69.8427 69.064 69.4691 68.9136 69.6335C68.658 70.3358 68.688 72.3159 68.7632 73.205C68.861 74.4677 69.079 75.3494 69.3196 76.4851L70.6804 74.5499C72.2894 71.8302 71.7856 72.6521 71.3571 71.7779C70.7932 70.6571 71.7931 69.8502 72.981 70.4031C74.0938 70.9261 74.8606 72.8762 72.8608 72.9061C73.0186 74.5051 73.7103 75.977 74.0938 77.4938C74.5524 77.0529 75.4245 75.5959 75.5749 75.043C75.3719 74.6844 74.7704 74.0867 75.1839 73.4067C75.7704 72.4279 77.7627 73.1826 77.9206 74.4229C78.0259 75.2298 77.477 75.4764 76.7778 75.5436C76.9884 76.3132 78.1612 78.0541 78.7176 78.7714C78.9582 78.4502 79.4018 77.6731 79.5596 77.3219C78.1913 76.4701 79.0108 74.5574 80.7626 75.4092C81.5069 75.7678 81.9355 76.7092 81.552 77.3294C81.3189 77.703 80.6122 77.7553 80.0934 77.6208C79.8904 77.972 79.4093 79.3318 79.4018 79.6307C79.4168 79.6606 81.2362 81.8722 81.6122 82.1188L79.2439 82.7016C79.1161 82.3952 78.7627 81.917 78.492 81.7527L77.8906 83.0303L74.9358 83.7551C74.6802 83.2844 74.0787 82.2533 73.793 81.2595C73.7479 80.9756 73.59 81.0279 73.4622 81.2446L72.0788 83.12L72.748 84.2856L65.9138 85.9592L65.2371 84.1586C64.9439 84.3752 64.0642 85.2644 63.9214 85.5707L64.2898 86.3254L57.3729 87.9916C57.1323 86.3478 56.7037 85.4138 56.5759 83.6131C55.9444 83.9493 55.0121 84.5471 54.3505 84.9281C54.3279 85.6155 54.9068 87.7749 55.0873 88.537ZM71.1766 81.5434L73.2216 79.16C72.763 77.1725 72.5149 75.4166 72.1014 73.5935C72.0488 74.1016 70.5526 76.784 70.2519 77.292C69.7707 78.1064 69.7557 78.226 70.1842 79.1899C70.4925 79.8922 70.8158 80.9681 71.1766 81.5434ZM66.8987 82.1636C67.0114 82.7987 67.9061 84.6666 68.2294 85.0253C68.4475 84.9057 69.4474 83.6953 69.6504 83.4338C69.6354 83.1275 69.2143 82.1337 69.0865 81.7825C68.9437 81.4015 68.7031 80.3629 68.47 80.1238L66.8987 82.1636ZM76.011 82.2533C76.4019 82.0739 77.5673 80.6244 77.7703 80.348C77.65 79.8922 76.7778 78.3231 76.4094 77.038C76.3042 76.6943 76.1914 76.1264 76.0561 75.85C75.8681 76.3655 75.6125 76.9782 75.3945 77.4863C74.6501 79.2123 74.0863 78.7714 76.011 82.2533ZM62.1471 78.8835C62.1471 79.6456 62.35 80.5945 62.5004 81.2969L63.0117 83.2321C63.0793 83.3441 63.0793 83.3217 63.132 83.374C63.3274 83.2545 64.4251 82.2533 64.6206 82.0067C64.4627 81.4239 63.9214 78.0243 64.0567 76.8064L62.1471 78.8835ZM58.2525 82.4027C58.26 83.6654 58.8465 85.481 59.2374 86.5196L61.3802 84.8161C61.117 83.7775 60.7186 81.8573 60.6208 80.4675C59.899 81.1101 58.4405 82.1935 58.2525 82.4027ZM66.2822 80.3031C66.4025 80.1537 68.0114 78.5099 68.1091 78.2335C67.6806 76.4552 67.6129 73.4366 67.8009 71.6285C67.2445 72.5699 65.8611 74.2062 65.4777 75.0729C65.1619 75.8052 66.0416 79.5634 66.2822 80.3031Z" fill="white"/>
<path d="M17.4355 97.518L121.618 72.2635V73.9148L17.4355 99.1693V97.518Z" fill="white"/>
<path fill-rule="evenodd" clip-rule="evenodd" d="M68.5907 111.198C68.6809 109.562 68.7711 107.926 68.8689 106.29L70.162 105.976L71.9514 96.6659L70.147 97.1068L70.162 94.3945C73.9287 93.483 77.703 92.5714 81.4772 91.6524L81.4622 94.3572L79.9058 94.7382L79.8607 103.63C80.4998 103.473 81.1389 103.316 81.7779 103.166L81.7479 108.008L78.8984 108.703L78.9059 106.559L71.4552 108.367L71.4401 110.511C70.4928 110.735 69.538 110.967 68.5907 111.198ZM34.3444 111.243L35.0587 105.602L35.9759 105.378L36.9307 110.616L34.3444 111.243ZM40.1862 113.201L37.5924 102.3L33.367 103.346C32.6528 107.373 31.9385 111.4 31.2168 115.427L30.2469 115.674L30.3221 118.431L33.5399 117.624L34.0286 113.754L37.3593 112.947L38.0134 116.518L41.2688 115.704L41.1937 112.947L40.1862 113.201ZM112.528 84.1284L115.287 91.6599L118.182 82.761L121.618 81.9242L121.603 84.6215L120.024 85.0026L114.851 99.9834L111.919 100.701L113.859 95.2015L110.588 87.2964L108.619 87.782L108.573 96.6734L110.122 96.2923L110.107 98.9971L105.701 100.066L105.732 94.1629L101.739 95.1268L101.709 101.037L97.3034 102.105L97.3184 99.3931L98.8747 99.0195L98.9199 90.1282L97.3636 90.5017L97.3786 87.797L101.784 86.736L101.754 92.422L105.747 91.4581L105.777 85.7647L112.528 84.1284ZM95.8223 102.464L91.4165 103.532L91.4616 94.9773L87.4769 104.481L83.0185 105.565L83.0335 102.86C83.5523 102.733 84.071 102.606 84.5823 102.486L84.6274 93.595L83.0786 93.9686L83.0936 91.2639L87.4994 90.1954L87.4543 98.6833L91.4315 89.239L95.8975 88.1631L95.8824 90.8679L94.3261 91.2414L94.281 100.133L95.8373 99.7592L95.8223 102.464ZM77.0564 95.4331L74.673 96.0084L72.9363 105.311L77.0113 104.317L77.0564 95.4331ZM25.4276 115.831C25.8787 114.957 26.0366 113.918 25.7509 112.992C25.5253 112.23 24.9539 111.751 24.1495 111.617C23.3224 111.49 22.5255 111.714 21.7361 111.908C21.721 111.908 21.4428 111.976 21.4428 111.976C21.4278 111.923 21.4278 111.662 21.4278 111.624L21.4353 109.719C21.4353 109.689 21.4504 109.338 21.4579 109.323C21.5331 109.308 21.6534 109.278 21.7361 109.256L22.3826 109.099C23.6533 108.785 24.7058 108.157 25.2396 106.932C25.4577 106.439 25.5629 105.879 25.5629 105.251C25.5629 104.354 25.2697 103.45 24.3224 103.174C23.4503 102.92 22.0594 103.353 21.2774 103.824C21.0369 103.966 20.8339 104.115 20.6158 104.28C20.6158 105.229 20.6158 106.17 20.6083 107.119L17.7739 107.821L17.7814 103.316C17.7814 103.316 18.0896 102.912 18.9167 102.352C20.3828 101.351 22.4127 100.506 24.1495 100.312C25.202 100.185 26.187 100.23 27.1042 100.828C27.638 101.171 28.0365 101.627 28.262 102.217C28.3748 102.509 28.4575 102.815 28.5101 103.136C28.653 103.928 28.6154 104.818 28.4274 105.602C28.2019 106.521 27.7583 107.388 27.1192 108.083C26.5779 108.68 25.984 109.039 25.3223 109.472C25.999 109.465 26.4952 109.42 27.1493 109.659C27.9914 109.966 28.5252 110.78 28.7958 111.587C28.9612 112.073 29.0439 112.64 29.0364 113.305C29.0364 114.202 28.8936 115.031 28.6079 115.794C28.1417 117.041 27.4425 118.057 26.3975 118.894C25.3223 119.761 24.0517 120.299 22.7135 120.628C21.6007 120.904 20.3677 121.098 19.2099 120.986C18.7663 120.942 17.6611 120.77 17.4355 120.411V116.003L20.2775 115.3C20.2775 116.242 20.27 117.191 20.27 118.132C22.2624 118.468 24.4728 117.691 25.4276 115.831ZM64.5383 95.7021C65.0044 95.59 65.3954 95.5377 65.7412 95.5377C67.6659 95.5452 67.7411 97.2263 67.7336 98.6833L67.696 105.087C67.6885 107.448 67.5381 109.413 64.4856 110.152L61.0798 110.974C60.561 111.101 60.0949 111.169 59.6964 111.169C58.3281 111.161 57.6514 110.317 57.6665 107.986L57.6965 100.992C57.7116 98.3471 58.6288 97.1292 61.155 96.5165L64.5383 95.7021ZM60.6137 99.3483L60.5686 108.397L64.7789 107.38L64.824 98.3321L60.6137 99.3483ZM49.3812 97.1964L49.3511 103.6L51.2758 103.136C51.4187 103.099 51.5615 103.069 51.6969 103.024C52.9675 102.666 53.3283 102.113 53.3359 100.155L53.3434 98.3471C53.3509 97.0619 53.1404 96.5763 52.3585 96.5688C52.0953 96.5688 51.7645 96.6211 51.3585 96.7182L49.3812 97.1964ZM51.3736 93.6698L51.8998 93.5427C52.6216 93.3709 53.2306 93.2887 53.7419 93.2887C55.9598 93.3037 56.3507 94.8652 56.3432 96.9424L56.3282 99.8339C56.3056 103.839 54.7719 105.266 51.9525 105.953L49.3361 106.588L49.3135 110.847L53.2832 109.883L53.2682 112.775L44.6672 114.86L44.6822 111.968L46.2611 111.587L46.3362 97.7792L44.7499 98.1677L44.7649 95.2762L45.607 95.067L51.3736 93.6698Z" fill="white"/>
</svg>
