<svg width="107" height="107" viewBox="0 0 107 107" fill="none" xmlns="http://www.w3.org/2000/svg">
<path fill-rule="evenodd" clip-rule="evenodd" d="M0 0.972656H107V106.028H103.655C103.655 104.193 102.162 102.703 100.315 102.703C98.4634 102.703 96.9702 104.193 96.9702 106.028H90.2798C90.2798 104.193 88.7866 102.703 86.9404 102.703C85.0884 102.703 83.5952 104.193 83.5952 106.028H76.9048C76.9048 104.193 75.4116 102.703 73.5654 102.703C71.7134 102.703 70.2202 104.193 70.2202 106.028H63.5298C63.5298 104.193 62.0366 102.703 60.1904 102.703C58.3384 102.703 56.8452 104.193 56.8452 106.028H50.1548C50.1548 104.193 48.6616 102.703 46.8154 102.703C44.9634 102.703 43.4702 104.193 43.4702 106.028H36.7798C36.7798 104.193 35.2866 102.703 33.4404 102.703C31.5884 102.703 30.0952 104.193 30.0952 106.028H23.4048C23.4048 104.193 21.9116 102.703 20.0654 102.703C18.2134 102.703 16.7202 104.193 16.7202 106.028H10.0298C10.0298 104.193 8.53662 102.703 6.69039 102.703C4.83838 102.703 3.3452 104.193 3.3452 106.028H0L0 0.972656Z" fill="#E31E24"/>
<path fill-rule="evenodd" clip-rule="evenodd" d="M53.501 14.2646L55.7639 32.9057L61.8871 15.1389L60.1972 33.8432L69.9086 17.7271L64.3352 35.6664L77.2183 21.9086L67.9988 38.3064L83.4862 27.5049L71.0314 41.6481L88.4403 34.2688L74.3477 44.754L74.776 45.2486L91.8724 41.9127L74.6949 49.8097L93.626 50.0972L75.1695 54.2787L89.4763 57.5226L87.5317 58.2588L85.0604 58.5924L74.6949 58.7477L78.0459 60.2834L74.5155 61.543L34.5757 71.2345L31.9945 71.4243L35.9705 66.9092L18.5616 74.2828L33.7076 63.0211L15.1296 66.6447L32.307 58.7477L13.376 58.4601L31.8324 54.2787L13.376 50.0972L32.307 49.8097L15.1296 41.9127L33.7076 45.5362L18.5616 34.2688L35.9705 41.6481L23.5157 27.5049L39.0032 38.3064L29.7836 21.9086L42.6667 35.6664L37.0933 17.7271L46.8048 33.8432L45.1148 15.1389L51.238 32.9057L53.501 14.2646Z" fill="white"/>
<path fill-rule="evenodd" clip-rule="evenodd" d="M46.0177 52.1676C46.0929 52.2252 46.145 52.3344 46.0987 52.484L41.3877 57.994C39.634 60.2084 38.164 61.4335 37.4521 64.3151C36.9891 66.1901 37.4927 68.6058 38.3029 70.0034L62.8131 64.0735L72.0674 61.8476C73.0629 59.0006 74.041 56.5676 75.0133 53.6171L77.01 47.2558C77.0852 47.0199 77.3341 46.3355 77.2993 46.1342C77.2704 45.9559 76.9232 45.375 76.7958 45.2599C76.7958 45.2599 74.9843 45.0241 74.6544 45.4095C74.4692 45.6626 74.1162 46.8762 73.9831 47.2385L73.3407 49.0963C73.2076 49.3724 72.8429 49.4126 72.5478 49.5219C70.4411 50.2926 66.5808 52.0986 64.6883 53.1167C64.3931 53.272 63.224 53.9564 62.9868 53.9909C62.6106 52.9786 62.2112 51.9721 61.7887 50.9253C61.5515 50.3271 60.6197 48.2508 60.5791 47.7446C61.2273 47.227 62.9231 44.0521 62.9578 42.9363L59.9483 40.0145C58.4725 38.6513 58.9239 39.2265 58.513 37.0006C58.1657 35.1601 58.0847 35.8215 59.4216 33.8602C59.8326 33.2506 60.2493 32.6466 60.6428 32.0887C61.7424 30.5185 61.3373 30.7256 62.0434 29.0289C62.1534 28.7528 62.1128 28.4595 62.0608 28.1489C61.9913 27.729 61.9797 27.706 61.3952 27.2976C60.6081 26.7512 59.3175 25.8655 59.1554 25.8137C58.3452 25.5606 58.8082 25.7562 58.0384 25.3363C57.8185 25.2155 57.7606 25.1753 57.4597 25.1235C57.0545 25.0545 57.0487 25.1753 56.7883 25.2213C56.088 25.3363 54.2476 23.6051 53.2984 24.7784C52.7023 24.8129 52.6965 25.0027 52.4708 25.3708C51.8689 25.6009 52.1525 25.4859 51.8342 25.9517C51.4233 25.8195 50.9371 25.3363 50.4857 25.2328C50.3005 25.2961 50.1847 25.4053 50.0169 25.4916C49.878 25.5664 49.5597 25.6584 49.4323 25.6987C48.107 26.1301 47.0479 26.3371 45.6994 26.688L45.6068 27.4989L46.1913 27.7808C46.2723 28.2697 46.1219 29.0461 46.1161 29.5523C46.0987 30.6853 46.446 32.3015 45.8846 32.963C45.2306 33.7279 45.7225 33.5726 45.763 34.2456C45.0338 35.0336 44.183 35.534 43.2165 36.0401C42.6262 36.3507 42.7246 36.1896 42.6031 36.9028C42.5162 37.432 42.7593 37.4953 42.7593 38.0877L42.7767 42.4762C42.794 45.4843 42.7593 44.633 44.2641 46.7669C44.6345 47.2845 44.6287 47.0545 44.4493 47.7677C44.2294 48.6534 43.5869 50.5917 43.5291 51.2876C44.293 51.6212 45.1785 51.9433 46.0177 52.1676Z" fill="#E31E24"/>
<path fill-rule="evenodd" clip-rule="evenodd" d="M74.6543 45.4096C74.4691 45.6627 74.116 46.8763 73.9829 47.2386L73.3405 49.0964C73.2074 49.3725 72.8428 49.4185 72.5476 49.522C70.441 50.2927 66.5807 52.0987 64.6881 53.1168C64.393 53.2721 63.2239 53.9565 62.9866 53.991C62.6104 52.9787 62.2111 51.9722 61.7886 50.9254C61.5513 50.3272 60.6195 48.2509 60.579 47.7447C61.2272 47.2271 62.9229 44.0522 62.9577 42.9364L59.9482 40.0146C58.4723 38.6514 58.9238 39.2266 58.5128 37.0007C58.1656 35.1602 58.0846 35.8216 59.4215 33.8603C59.8324 33.2507 60.2491 32.6467 60.6427 32.0888C61.7423 30.5186 61.3372 30.7257 62.0432 29.029C62.1532 28.7529 62.1127 28.4596 62.0606 28.149C61.9912 27.7291 61.9796 27.7061 61.395 27.2977C60.6079 26.7513 59.3173 25.8656 59.1553 25.8138C58.345 25.5607 58.808 25.7563 58.0383 25.3364C57.8183 25.2156 57.7605 25.1754 57.4595 25.1236C57.0544 25.0546 57.0486 25.1754 56.7882 25.2214C56.0879 25.3364 54.2474 23.6052 53.2983 24.7785C52.7022 24.813 52.6964 25.0028 52.4707 25.3709C51.8688 25.601 52.1523 25.486 51.834 25.9519C51.4231 25.8196 50.937 25.3364 50.4855 25.2329C50.3003 25.2962 50.1846 25.4054 50.0167 25.4917C49.8778 25.5665 49.5595 25.6585 49.4322 25.6988C48.1069 26.1302 47.0477 26.3372 45.6992 26.6881L45.6066 27.499L46.1912 27.7809C46.2722 28.2698 46.1217 29.0462 46.1159 29.5524C46.0986 30.6854 46.4458 32.3016 45.8844 32.9631C45.2304 33.728 45.7224 33.5727 45.7629 34.2457C45.0337 35.0337 44.1829 35.5341 43.2164 36.0402C42.6261 36.3508 42.7244 36.1897 42.6029 36.9029C42.5161 37.4321 42.7592 37.4954 42.7592 38.0878L42.7765 42.4763C42.7939 45.4844 42.7592 44.6331 44.2639 46.767C44.6343 47.2904 44.6285 47.0546 44.4491 47.7678C44.2292 48.6535 43.5868 50.5918 43.5289 51.2878C44.2929 51.6213 45.1784 51.9434 46.0175 52.1677C46.0928 52.2253 46.1449 52.3345 46.0986 52.4841L41.3875 57.9941C39.6339 60.2085 38.1639 61.4336 37.452 64.3152C36.989 66.1902 37.4925 68.6059 38.3028 70.0035L62.813 64.0736L72.0672 61.8477C73.0627 59.0007 74.0408 56.5677 75.0131 53.6172L77.0098 47.2559C77.085 47.02 77.3339 46.3356 77.2992 46.1343C77.2702 45.956 76.923 45.3751 76.7957 45.26C76.7957 45.26 74.9842 45.0242 74.6543 45.4096ZM40.6583 57.3787L44.6401 52.7314L44.4723 52.6739C44.0093 52.5128 43.5578 52.3288 43.1469 52.1505L42.5219 51.8802L42.5798 51.2072C42.6261 50.6723 42.9328 49.6198 43.2048 48.688C43.3321 48.2566 43.4537 47.854 43.5289 47.5434L43.5636 47.4112L43.4884 47.3134C43.1643 46.8475 42.9328 46.5599 42.7534 46.3298C42.3888 45.864 42.1746 45.5936 42.0241 45.1623C41.8389 44.6274 41.8389 44.0407 41.8332 42.6603C41.8216 41.1361 41.81 39.6062 41.81 38.082C41.81 37.9612 41.7811 37.875 41.7579 37.7944C41.6595 37.5126 41.5785 37.2595 41.6653 36.7476L41.7 36.5406C41.7579 36.1955 41.7811 36.0229 41.9605 35.7756C42.1399 35.5225 42.2904 35.4478 42.574 35.3097L42.7707 35.212V35.2062C43.2453 34.9531 43.6794 34.7116 44.044 34.4643C44.2639 34.3205 44.4665 34.1652 44.6691 33.9926C44.4549 33.5497 44.4318 33.2046 45.1552 32.3534C45.3115 32.1694 45.2594 31.3929 45.2131 30.6567C45.1841 30.2886 45.161 29.9205 45.1668 29.5409C45.1668 29.3108 45.1899 29.075 45.2131 28.8334C45.2304 28.6781 45.2478 28.5228 45.2536 28.379L44.5822 28.0569L44.8311 25.9403L45.4619 25.7736C45.896 25.6585 46.3011 25.5607 46.6947 25.4687C47.4992 25.2732 48.2515 25.0891 49.137 24.8015C49.1486 24.7958 49.2354 24.767 49.247 24.767C49.3685 24.7268 49.5537 24.6692 49.5827 24.6577C49.6 24.6462 49.6348 24.6232 49.6695 24.6002C49.8084 24.5082 49.9415 24.4219 50.173 24.3414L50.4334 24.2494L50.6997 24.3126C51.0411 24.3874 51.3247 24.5485 51.5967 24.721C51.6546 24.6865 51.7241 24.652 51.8109 24.6117C52.0424 24.2149 52.2334 23.9733 52.8468 23.8755C53.8886 22.9495 55.1271 23.5362 56.1515 24.0251C56.4235 24.1573 56.5798 24.2839 56.6319 24.2896L56.6377 24.2839C56.6319 24.2839 56.6319 24.2839 56.6377 24.2839C56.875 24.1861 57.0891 24.1056 57.6158 24.1919C58.0614 24.2666 58.1656 24.3241 58.4665 24.4909L58.4955 24.5082H58.5013C58.7501 24.6405 58.8427 24.698 58.9064 24.7325V24.7383C58.9527 24.767 58.9469 24.767 58.9585 24.7728H58.9643C58.9758 24.7785 58.9758 24.7728 59.0279 24.79C59.0858 24.8073 59.1726 24.8303 59.4446 24.9166C59.6067 24.9683 59.9539 25.1811 60.3649 25.4515C60.8568 25.7736 61.4876 26.2107 61.9391 26.527C62.3095 26.7858 62.5005 26.9239 62.6741 27.1424C62.8998 27.4358 62.9345 27.6256 62.9982 27.9937C63.0329 28.1777 63.0618 28.3675 63.0618 28.5861C63.0676 28.8564 63.0329 29.121 62.9172 29.3913C62.6972 29.9205 62.5931 30.2713 62.5062 30.5531C62.321 31.1628 62.2227 31.4849 61.4182 32.6295C61.3024 32.7963 61.0883 33.1069 60.8221 33.4865L60.2086 34.3895C59.9481 34.7691 59.7398 35.0624 59.572 35.2925C59.3636 35.5801 59.2479 35.7354 59.2363 35.7699C59.2363 35.7699 59.271 35.9367 59.3405 36.2933V36.299C59.3578 36.3795 59.3752 36.4543 59.4446 36.8339C59.543 37.3573 59.5951 37.7254 59.6298 38.0015C59.6703 38.2776 59.6877 38.4271 59.7166 38.4789C59.7456 38.5422 59.9018 38.6859 60.2665 39.0253C61.5108 40.1641 62.7088 41.372 63.9184 42.551L63.9068 42.9594C63.8837 43.6266 63.467 44.7367 62.9519 45.7777C62.5352 46.6174 62.0317 47.4572 61.615 47.9978C61.7886 48.4867 62.1648 49.3782 62.4252 49.9879C62.541 50.264 62.6394 50.494 62.6741 50.5745C62.8709 51.0634 63.0734 51.5696 63.2876 52.1275L63.5075 52.6911L64.2367 52.2828C65.2437 51.7421 66.8122 50.9772 68.3922 50.2582C69.8043 49.6083 71.2165 49.0044 72.2177 48.6363C72.3277 48.596 72.4029 48.573 72.4782 48.55C72.6402 48.504 72.9701 47.2674 73.0916 46.9223C73.1148 46.859 73.1669 46.6922 73.2305 46.4909C73.4157 45.9272 73.6646 45.1623 73.873 44.8689L73.9308 44.7999C74.2376 44.4433 74.7469 44.2938 75.2851 44.2593C76.0433 44.2017 77.1256 44.3743 77.1256 44.3743L77.3108 44.4433L77.4439 44.5641C77.5712 44.6849 77.7738 44.9725 77.93 45.237C78.0747 45.4901 78.202 45.7834 78.2368 45.9848C78.3004 46.3701 78.1094 46.951 77.9821 47.3421C77.276 49.522 76.6394 51.7364 75.916 53.9105C75.3256 55.6992 74.7469 57.2867 74.1566 58.8799C73.7456 59.99 73.3347 61.1115 72.9643 62.1583L72.7965 62.6472L63.0387 64.9881L37.8282 71.0906L37.4751 70.4752C36.9948 69.6412 36.6128 68.5023 36.4334 67.3175C36.2771 66.242 36.2829 65.1031 36.5318 64.0909C37.151 61.5889 38.2565 60.266 39.6165 58.6498C39.9638 58.2357 40.3284 57.8043 40.6351 57.4132L40.6583 57.3787ZM56.6377 24.2896C56.655 24.2839 56.6435 24.2839 56.6377 24.2839V24.2896Z" fill="white"/>
<path fill-rule="evenodd" clip-rule="evenodd" d="M56.0998 43.0859C56.6148 43.2067 57.4598 43.2067 58.1254 43.3333L59.6591 45.6512C59.8038 45.8697 60.0353 46.2896 60.2378 46.4334C60.6951 46.117 61.9336 43.6611 61.841 43.3045C61.8236 43.247 56.1576 37.4206 55.9088 37.2998C55.8335 37.8059 55.6773 39.796 55.712 40.2561L56.0998 43.0859Z" fill="white"/>
<path fill-rule="evenodd" clip-rule="evenodd" d="M56.0354 50.9601C56.6489 51.2362 56.429 50.6955 56.973 50.8566C57.083 50.8911 57.2335 50.9428 57.4534 51.0291C58.3099 51.3627 57.2798 52.0011 58.5357 52.6281C58.6051 52.6626 58.5993 52.6453 58.6572 52.6856C59.0855 53.0077 59.0855 55.3543 59.3343 56.1768C59.6816 56.0733 60.9549 55.2508 61.3368 55.0265C61.7304 54.7964 62.0719 54.7389 62.095 54.1752C62.1066 53.8129 62.014 53.5541 61.8056 53.393C61.4294 53.1169 61.3426 53.439 61.4642 52.7258C61.5105 52.4555 61.5452 52.1967 61.279 51.9206C60.9954 51.6158 60.6539 51.564 60.3819 51.2534C60.2777 50.73 60.5034 50.2641 60.4108 49.804C60.3182 49.3554 59.9247 49.2403 59.6874 48.9988C59.6179 48.4466 59.751 48.4754 59.5138 47.9692C57.8875 48.0153 56.2322 49.2403 55.8387 50.3907C55.694 50.8105 55.694 50.8105 56.0354 50.9601Z" fill="white"/>
<path fill-rule="evenodd" clip-rule="evenodd" d="M52.7301 32.8252C52.7706 33.3429 53.7024 34.8958 53.9166 35.5285C53.9108 35.6493 52.7417 36.9837 52.7012 37.1102C52.7301 37.9212 53.1526 38.3641 52.9848 39.2901C52.8169 40.2448 52.7706 40.6417 52.8922 41.6655C52.9905 42.4765 53.2047 45.985 53.4073 46.3933C53.5693 46.5141 53.8355 46.6176 54.096 46.6349C54.1481 45.5823 54.2696 44.432 54.3911 43.3737C54.5185 42.2522 54.5474 41.1766 54.6863 40.055L55.1435 35.1604C55.1898 34.6715 55.294 33.9353 55.2651 33.4579C54.4143 33.2394 53.6156 32.4514 52.7301 32.8252Z" fill="white"/>
<path fill-rule="evenodd" clip-rule="evenodd" d="M47.7812 35.7068C47.9259 36.0059 48.5221 36.351 48.7593 36.6846C48.8056 37.4035 48.7767 37.2942 49.014 37.8406L50.3856 40.8085C50.5593 41.1823 50.7271 41.3721 50.7271 41.8668C50.7329 42.4132 50.7908 44.8576 50.9007 45.289C50.9818 45.5938 50.947 45.6628 51.1149 45.8354C51.219 45.519 51.5605 41.8495 51.4563 41.2629C51.3753 40.8085 51.2769 40.3253 51.1785 39.894C50.7734 38.0534 50.4782 36.1727 50.0673 34.3552C49.8416 34.3494 49.4191 34.3494 49.205 34.3954C48.8346 34.4702 47.9607 35.4134 47.7812 35.7068Z" fill="white"/>
<path fill-rule="evenodd" clip-rule="evenodd" d="M50.8368 52.1681C50.7037 51.869 50.5185 51.777 50.5301 51.3744C50.5706 50.2528 51.8554 51.2881 51.8902 50.6382C51.9075 50.3276 51.2304 48.9932 50.4433 48.6711C49.743 48.3835 49.5404 48.6021 49.199 48.8782C48.8749 49.1428 47.8273 49.9595 47.781 50.2758C47.7116 50.7705 48.0357 51.7367 48.3019 52.0186C48.3887 52.1163 48.5045 52.1624 48.626 52.2429C48.9212 52.4384 49.2279 52.8123 49.633 52.9446C50.3507 53.1689 50.8426 53.0079 50.8368 52.1681Z" fill="white"/>
<path fill-rule="evenodd" clip-rule="evenodd" d="M63.0333 56.7634C63.259 57.0682 63.3979 56.9704 63.8725 56.7231C65.4236 55.9064 68.9308 53.8703 72.3628 53.4274L72.3975 51.7422C71.1359 51.8515 66.3148 54.2844 64.9779 55.0494C64.6654 55.2277 63.7568 55.7741 63.1896 56.1479C62.7555 56.4298 62.8365 56.493 63.0333 56.7634Z" fill="white"/>
<path fill-rule="evenodd" clip-rule="evenodd" d="M73.6761 50.5055C73.8324 50.701 73.9828 50.8563 74.0986 51.0519C74.3301 51.8801 72.8485 55.147 72.5996 56.2168C72.8543 56.2513 73.1263 56.1248 73.3115 56.0213C73.5314 55.843 75.4934 49.7693 75.8522 48.6649C75.9853 48.2451 76.1242 47.8482 76.2631 47.4283C76.4541 46.8359 76.5583 46.7899 76.402 46.094L75.3082 46.0537C74.9725 46.5081 73.6992 50.2006 73.6761 50.5055Z" fill="white"/>
<path fill-rule="evenodd" clip-rule="evenodd" d="M48.8127 26.4349C48.8243 26.9986 49.1947 27.4932 49.3741 28.0396C49.675 28.9657 49.4262 29.0232 49.0384 29.6386C48.7027 30.1562 47.5799 31.9507 47.8114 32.7617C48.0892 32.7617 48.2802 32.3994 48.4018 32.2383C48.9632 31.5136 51.718 27.7636 51.8801 27.2402L50.7342 26.0898L48.8127 26.4349Z" fill="white"/>
<path fill-rule="evenodd" clip-rule="evenodd" d="M64.2599 58.8396C64.3931 59.0121 64.532 59.1157 64.694 59.0179C67.4604 57.4649 69.1041 56.7575 71.5927 56.1536L71.668 54.6294C69.9317 54.871 66.3087 56.9185 64.3873 58.3047C64.0053 58.5808 64.0747 58.5923 64.2599 58.8396Z" fill="white"/>
<path fill-rule="evenodd" clip-rule="evenodd" d="M45.7852 46.8013C46.2134 47.3362 46.0861 46.6805 46.7227 47.4109L46.4854 47.8941L46.5954 48.1069C47.0989 48.2104 47.3825 48.1011 47.4462 48.6935C47.2263 49.1192 46.879 49.2917 47.1742 49.8266C47.5098 49.8209 48.2449 49.1882 48.4301 49.0214C48.5747 48.9006 48.8352 48.636 48.9452 48.498C49.1014 48.2967 49.2635 48.1126 49.275 47.7445C48.9915 47.4569 48.1523 45.7775 47.724 45.2368C47.452 45.2713 46.8674 45.6969 46.5896 45.858C46.3002 46.0248 45.872 46.4849 45.7852 46.8013Z" fill="white"/>
<path fill-rule="evenodd" clip-rule="evenodd" d="M45.1557 42.1023C45.1441 42.3381 45.1789 42.5337 45.1094 42.735C45.0226 42.9823 44.8953 42.9823 44.9937 43.2986C45.0689 43.5632 45.4451 43.9026 45.5782 44.1786C45.5898 44.3742 45.121 44.7423 45.2425 45.1219C45.2483 45.1276 45.3062 45.2599 45.3178 45.2887C45.4162 45.5073 45.3988 45.4842 45.6592 45.4267C46.2148 45.3059 46.973 44.9263 47.4244 44.7883C47.4476 44.1154 47.3723 42.2346 46.9035 41.7629C46.7646 41.6249 46.6952 41.6709 46.5274 41.5329C46.2727 41.3201 46.2901 41.136 45.9602 41.3776C45.6882 41.5846 45.3583 41.9528 45.1557 42.1023Z" fill="white"/>
<path fill-rule="evenodd" clip-rule="evenodd" d="M59.0736 28.0974C60.0864 28.477 59.6407 28.4943 59.2009 29.8574C59.1025 30.1623 59.1893 30.3348 58.8942 30.4786C58.6395 30.6051 58.4311 30.5591 58.217 30.7719C58.1476 31.4851 58.9752 31.0135 59.2877 30.864C59.6523 30.6914 59.9996 30.4959 60.4105 30.214C61.5333 29.4433 61.4059 29.265 61.2728 27.7178C60.8851 27.5338 59.3398 26.418 59.0446 26.418C58.8999 26.8608 59.0446 27.6373 59.0736 28.0974Z" fill="white"/>
<path fill-rule="evenodd" clip-rule="evenodd" d="M70.9843 57.5283C69.6184 57.8332 66.6205 59.3861 65.7061 60.3006C65.7929 60.4444 66.0707 60.6457 66.2617 60.6457C66.3658 60.6457 66.7478 60.4501 66.8925 60.3811C68.1021 59.829 69.5316 59.3343 70.9091 59.0525L70.9843 57.5283Z" fill="white"/>
<path fill-rule="evenodd" clip-rule="evenodd" d="M43.7246 36.8684L44.639 37.8635C44.8358 38.0763 45.3856 38.6802 45.6403 38.8355L46.4621 37.2653C46.6068 36.9835 46.8325 36.7189 46.6994 36.3681C46.5894 36.069 46.4968 35.7411 46.3174 35.5283C45.9297 35.6549 45.3683 35.9769 44.9921 36.1667C44.6969 36.3163 43.8751 36.6499 43.7246 36.8684Z" fill="white"/>
<path fill-rule="evenodd" clip-rule="evenodd" d="M52.24 28.793C51.5108 28.9368 51.6092 28.6665 51.2504 29.2761C51.0594 29.5982 50.8279 29.9376 50.7295 30.2252C50.8395 30.4265 51.0594 30.622 51.2909 30.8233C51.7481 31.2259 52.3789 31.0361 52.9751 30.9729C53.1892 30.9499 53.2413 30.9499 53.3049 30.6853C53.3744 30.3632 53.2471 30.3632 53.004 30.2367L53.0329 29.9031C53.0445 29.7248 53.0445 29.7133 52.8882 29.6097C52.7551 29.5177 52.6625 29.4314 52.8477 29.3221C52.9577 29.2531 53.7216 29.2129 53.2239 28.7355C53.0329 28.5514 52.9345 28.3961 52.7493 28.2178C52.3326 27.8152 52.3905 28.5457 52.24 28.793Z" fill="white"/>
<path fill-rule="evenodd" clip-rule="evenodd" d="M54.1545 28.9426C54.1719 29.4372 53.9288 29.6845 53.9173 30.1792C54.2761 30.4552 54.1893 30.7716 54.1487 31.2835C54.6638 31.1397 54.7101 30.7198 55.5898 30.4207C55.6651 30.392 55.6477 30.4092 55.723 30.369C55.9082 30.2654 55.7693 30.1907 56.0702 29.5522C55.8676 29.2532 55.4509 29.0346 55.1616 28.701L55.1731 28.1316C54.8317 28.1258 54.5828 28.1661 54.2645 28.1258C53.9925 28.0856 53.732 28.0166 53.4658 28.0683C53.5468 28.1258 54.0214 28.747 54.1545 28.9426Z" fill="white"/>
<path fill-rule="evenodd" clip-rule="evenodd" d="M53.5526 25.2097C52.7539 25.2557 53.1995 25.1867 52.8118 25.6468C52.6381 25.8481 52.534 25.7504 52.3893 25.8942C52.1983 26.084 52.0999 26.6476 52.2272 26.9064L52.5861 26.9467L52.8581 26.5498C53.3963 26.8949 53.5815 26.6189 53.6973 26.107L54.1661 26.153L54.4265 25.7331C54.9647 25.7331 56.0991 26.4578 56.1165 25.5203C55.7287 25.1349 54.5191 24.7956 54.1024 24.8013C53.7031 24.8071 53.7088 24.9854 53.5526 25.2097Z" fill="white"/>
<path fill-rule="evenodd" clip-rule="evenodd" d="M56.9733 25.5777C57.0543 25.9343 57.3032 25.9918 57.2106 26.3542C56.9502 27.4182 56.464 27.6023 55.6885 27.9531V28.2925C55.9952 28.281 56.6666 28.0854 56.8344 27.9416C57.2569 27.585 58.0729 26.5958 57.8704 25.9976C57.6794 25.4339 57.2106 25.4167 56.9733 25.5777Z" fill="white"/>
<path fill-rule="evenodd" clip-rule="evenodd" d="M49.6348 31.8646L50.1209 33.4693C50.3235 33.3313 51.1048 32.6699 51.3305 32.4801C51.18 32.319 50.4219 31.6173 50.2425 31.5195L49.6348 31.8646Z" fill="white"/>
<path fill-rule="evenodd" clip-rule="evenodd" d="M54.548 26.4234L54.5596 26.9525C54.3339 26.9583 53.4889 26.9353 53.4484 27.2573C53.4252 27.4817 53.5873 27.4644 54.2934 27.5334C54.5306 27.5564 54.8837 27.5162 55.092 27.4241C55.503 27.2401 55.7808 26.7512 55.3988 26.2681L54.548 26.4234Z" fill="white"/>
<path fill-rule="evenodd" clip-rule="evenodd" d="M42.4057 69.0143L40.6347 69.4399C40.6405 68.7842 40.5016 68.1401 40.4727 67.4614C40.4379 66.7654 40.4264 66.1097 40.4379 65.3908C40.4553 64.0622 40.6984 62.8543 41.063 61.7443L41.5318 61.7903L41.4797 64.0392C41.8096 64.0276 42.9092 63.3202 43.2854 63.0959C43.5806 62.9176 43.6327 62.9463 43.6732 62.5265C43.7773 61.4394 43.9568 60.2776 44.2056 59.2595L44.5934 59.2883L44.6165 62.1641C44.9869 62.0893 45.9998 61.1978 46.3644 60.916C46.6595 60.686 46.7 60.7435 46.7521 60.2718C46.8332 59.6104 47.1515 57.2177 47.4003 56.8324C47.7765 56.8094 47.765 56.9301 47.7302 57.281C47.6781 57.8619 47.6087 59.2595 47.7071 59.7542L48.6389 58.8512C48.8472 58.6441 48.8935 58.5751 49.0903 58.3853C49.2871 58.1897 49.4144 58.1092 49.4723 57.7871C49.5996 57.0682 49.8311 55.0954 50.1321 54.6007L50.4504 54.595C50.4388 55.3024 50.2478 56.1307 50.3288 56.9014C50.6761 56.5735 52.2156 54.4569 52.3255 53.9911C50.7629 51.4834 54.0444 52.0643 54.1255 53.6287C54.1718 54.6237 53.1647 54.3362 53.049 54.4627C52.8522 55.0033 52.8754 56.5275 52.9332 57.212C53.0085 58.184 53.1763 58.8627 53.3615 59.7369L54.409 58.2473C55.6476 56.1537 55.2598 56.7864 54.9299 56.1134C54.4959 55.2507 55.2656 54.6295 56.18 55.0551C57.0366 55.4577 57.6269 56.9589 56.0874 56.9819C56.209 58.2128 56.7414 59.3458 57.0366 60.5134C57.3896 60.1741 58.061 59.0525 58.1767 58.6269C58.0205 58.3508 57.5575 57.8907 57.8758 57.3673C58.3272 56.6138 59.8609 57.1947 59.9824 58.1495C60.0635 58.7707 59.641 58.9605 59.1027 59.0122C59.2648 59.6047 60.1676 60.9448 60.5959 61.4969C60.7811 61.2496 61.1226 60.6514 61.2441 60.3811C60.1908 59.7254 60.8216 58.253 62.1701 58.9087C62.7431 59.1848 63.073 59.9095 62.7778 60.3869C62.5984 60.6745 62.0544 60.7147 61.655 60.6112C61.4988 60.8815 61.1284 61.9283 61.1226 62.1584C61.1342 62.1814 62.5348 63.8839 62.8241 64.0737L61.0011 64.5223C60.9027 64.2865 60.6307 63.9184 60.4223 63.7918L59.9593 64.7754L57.6848 65.3333C57.488 64.9709 57.025 64.1772 56.8051 63.4122C56.7704 63.1937 56.6488 63.2339 56.5504 63.4007L55.4855 64.8444L56.0006 65.7416L50.7397 67.03L50.2189 65.6439C49.9932 65.8107 49.316 66.4951 49.2061 66.7309L49.4896 67.3118L44.1651 68.5944C43.9799 67.3291 43.65 66.6101 43.5516 65.224C43.0655 65.4828 42.3478 65.9429 41.8385 66.2363C41.8212 66.7654 42.2668 68.4276 42.4057 69.0143ZM54.791 63.6308L56.3652 61.796C56.0122 60.2661 55.8212 58.9145 55.5029 57.5111C55.4624 57.9022 54.3107 59.967 54.0792 60.3581C53.7088 60.985 53.6972 61.0771 54.0271 61.819C54.2644 62.3597 54.5132 63.1879 54.791 63.6308ZM51.4979 64.1082C51.5847 64.5971 52.2734 66.035 52.5223 66.311C52.6902 66.219 53.4599 65.2873 53.6162 65.0859C53.6046 64.8501 53.2805 64.0852 53.1821 63.8148C53.0721 63.5215 52.8869 62.722 52.7075 62.538L51.4979 64.1082ZM58.5124 64.1772C58.8134 64.0391 59.7104 62.9233 59.8667 62.7105C59.7741 62.3597 59.1027 61.1518 58.8192 60.1626C58.7381 59.898 58.6513 59.4609 58.5471 59.248C58.4025 59.6449 58.2057 60.1165 58.0378 60.5077C57.4649 61.8363 57.0308 61.4969 58.5124 64.1772ZM47.8402 61.5832C47.8402 62.1699 47.9965 62.9003 48.1122 63.441L48.5058 64.9306C48.5578 65.0169 48.5578 64.9997 48.5984 65.0399C48.7488 64.9479 49.5938 64.1772 49.7443 63.9874C49.6228 63.5388 49.2061 60.9218 49.3102 59.9843L47.8402 61.5832ZM44.8423 64.2922C44.848 65.2642 45.2995 66.6619 45.6004 67.4614L47.2499 66.15C47.0473 65.3505 46.7406 63.8724 46.6653 62.8026C46.1097 63.2972 44.9869 64.1312 44.8423 64.2922ZM51.0233 62.676C51.1159 62.561 52.3545 61.2956 52.4297 61.0828C52.0998 59.7139 52.0477 57.3903 52.1924 55.9984C51.7641 56.7231 50.6992 57.9827 50.4041 58.6499C50.161 59.2135 50.8381 62.1066 51.0233 62.676Z" fill="white"/>
<path d="M13.4229 75.9278L93.6208 56.4873V57.7584L13.4229 77.1989V75.9278Z" fill="white"/>
<path fill-rule="evenodd" clip-rule="evenodd" d="M52.8013 86.4587C52.8707 85.1991 52.9402 83.9395 53.0154 82.6799L54.0109 82.4383L55.3883 75.2718L53.9993 75.6111L54.0109 73.5233C56.9104 72.8216 59.8158 72.1199 62.7211 71.4124L62.7095 73.4945L61.5115 73.7879L61.4768 80.6323C61.9687 80.5115 62.4607 80.3907 62.9526 80.2757L62.9295 84.0027L60.736 84.5376L60.7418 82.8869L55.0063 84.2788L54.9947 85.9295C54.2655 86.1021 53.5305 86.2804 52.8013 86.4587ZM26.439 86.4932L26.9888 82.1507L27.6949 81.9782L28.4299 86.0101L26.439 86.4932ZM30.9359 88.0001L28.9392 79.6085L25.6866 80.4137C25.1368 83.5139 24.587 86.614 24.0314 89.7141L23.2848 89.9039L23.3427 92.0263L25.8198 91.4051L26.1959 88.4257L28.7598 87.8046L29.2633 90.5538L31.7693 89.9269L31.7115 87.8046L30.9359 88.0001ZM86.6236 65.6206L88.7477 71.4182L90.9759 64.568L93.6208 63.9238L93.6092 66.0002L92.3938 66.2935L88.412 77.8255L86.1548 78.3777L87.648 74.1445L85.1304 68.0592L83.6141 68.4331L83.5794 75.2775L84.7716 74.9842L84.76 77.0663L81.3685 77.8888L81.3917 73.345L78.3185 74.0869L78.2954 78.6365L74.9039 79.459L74.9154 77.3711L76.1135 77.0835L76.1482 70.2391L74.9502 70.5267L74.9617 68.4446L78.3532 67.6279L78.3301 72.0049L81.4033 71.2629L81.4264 66.8802L86.6236 65.6206ZM73.7637 79.735L70.3722 80.5575L70.4069 73.9719L67.3396 81.288L63.9075 82.122L63.9191 80.0399C64.3185 79.9421 64.7178 79.8443 65.1114 79.7523L65.1461 72.9079L63.9538 73.1954L63.9654 71.1134L67.3569 70.2909L67.3222 76.8247L70.3838 69.5547L73.8216 68.7264L73.81 70.8085L72.612 71.0961L72.5773 77.9405L73.7753 77.653L73.7637 79.735ZM59.318 74.3228L57.4834 74.7656L56.1465 81.9264L59.2833 81.1614L59.318 74.3228ZM19.575 90.0247C19.9223 89.3518 20.0438 88.5523 19.8239 87.8391C19.6502 87.2524 19.2104 86.8843 18.5911 86.7808C17.9545 86.683 17.341 86.8555 16.7333 87.0051C16.7217 87.0051 16.5076 87.0569 16.5076 87.0569C16.496 87.0166 16.496 86.8153 16.496 86.7865L16.5018 85.3199C16.5018 85.2969 16.5134 85.0265 16.5192 85.015C16.5771 85.0035 16.6697 84.9805 16.7333 84.9633L17.2311 84.8425C18.2091 84.6009 19.0194 84.1178 19.4303 83.1745C19.5982 82.7949 19.6792 82.3635 19.6792 81.8804C19.6792 81.1902 19.4535 80.4943 18.7242 80.2814C18.0529 80.0859 16.9822 80.4195 16.3803 80.7818C16.1951 80.8911 16.0388 81.0061 15.871 81.1327C15.871 81.8631 15.871 82.5878 15.8652 83.3183L13.6833 83.859L13.6891 80.3907C13.6891 80.3907 13.9264 80.0801 14.563 79.6488C15.6916 78.878 17.2542 78.2281 18.5911 78.0786C19.4014 77.9808 20.1595 78.0153 20.8656 78.4754C21.2765 78.74 21.5833 79.0909 21.7569 79.5452C21.8437 79.7695 21.9074 80.0054 21.9479 80.2527C22.0579 80.8624 22.0289 81.5468 21.8842 82.1507C21.7106 82.8582 21.3691 83.5254 20.8772 84.0603C20.4605 84.5204 20.0033 84.7965 19.494 85.1301C20.0149 85.1243 20.3968 85.0898 20.9004 85.2739C21.5486 85.5097 21.9595 86.1366 22.1678 86.7578C22.2951 87.1316 22.3588 87.5687 22.353 88.0806C22.353 88.7708 22.2431 89.4093 22.0231 89.9959C21.6643 90.9565 21.1261 91.7387 20.3216 92.3829C19.494 93.05 18.5159 93.4642 17.4857 93.7172C16.6291 93.93 15.68 94.0796 14.7887 93.9933C14.4472 93.9588 13.5965 93.8265 13.4229 93.5504V90.157L15.6105 89.6163C15.6105 90.341 15.6048 91.0715 15.6048 91.7962C17.1384 92.055 18.84 91.4568 19.575 90.0247ZM49.6818 74.5298C50.0406 74.4435 50.3416 74.4033 50.6078 74.4033C52.0894 74.409 52.1473 75.7032 52.1415 76.8247L52.1125 81.7539C52.1068 83.5714 51.991 85.084 49.6413 85.6535L47.0195 86.2861C46.6202 86.3839 46.2613 86.4357 45.9546 86.4357C44.9013 86.4299 44.3804 85.78 44.392 83.9855L44.4151 78.602C44.4267 76.5659 45.1328 75.6284 47.0774 75.1567L49.6818 74.5298ZM46.6607 77.3366L46.626 84.3018L49.867 83.5196L49.9017 76.5544L46.6607 77.3366ZM38.0141 75.6801L37.9909 80.6093L39.4726 80.2527C39.5825 80.2239 39.6925 80.2009 39.7967 80.1664C40.7748 79.8903 41.0526 79.4647 41.0583 77.9578L41.0641 76.5659C41.0699 75.5766 40.9079 75.2028 40.306 75.197C40.1034 75.197 39.8487 75.2373 39.5362 75.312L38.0141 75.6801ZM39.5478 72.9654L39.9529 72.8676C40.5085 72.7353 40.9773 72.672 41.3709 72.672C43.0782 72.6836 43.3791 73.8856 43.3734 75.4846L43.3618 77.7105C43.3444 80.7933 42.1638 81.8919 39.9934 82.421L37.9794 82.9099L37.962 86.1884L41.0178 85.4464L41.0063 87.6723L34.3853 89.277L34.3969 87.0511L35.6123 86.7578L35.6701 76.1288L34.449 76.4279L34.4606 74.202L35.1088 74.0409L39.5478 72.9654Z" fill="white"/>
</svg>
