<svg width="55" height="55" viewBox="0 0 55 55" fill="none" xmlns="http://www.w3.org/2000/svg">
<circle cx="27.5" cy="27.5" r="27" fill="url(#paint0_radial_2623_170)" stroke="url(#paint1_radial_2623_170)"/>
<path d="M27.5003 39.5832C20.8269 39.5832 15.417 34.1733 15.417 27.4998C15.417 24.4051 16.5804 21.5821 18.4938 19.4443M27.5003 39.5832C27.9541 39.5832 28.4021 39.5582 28.8429 39.5094C29.774 39.4065 30.6731 39.1978 31.5281 38.8956M27.5003 39.5832L27.8614 37.4164C28.0595 36.2279 27.7626 35.01 27.0396 34.046L26.9791 33.9654C26.446 33.2545 26.1577 32.3898 26.1577 31.5012V31.046C26.1577 30.4861 26.3327 29.9401 26.6582 29.4844L27.8574 27.8055C28.5736 26.8028 30.1152 26.9885 30.5729 28.1326C30.752 28.5804 31.1282 28.92 31.5919 29.0524L32.162 29.2153C33.8888 29.7087 34.6957 31.6904 33.8047 33.2496L33.063 34.5475C32.9351 34.7714 32.8295 35.0072 32.7476 35.2517L31.5281 38.8956M18.4938 19.4443C20.7063 16.9722 23.9216 15.4165 27.5003 15.4165C29.025 15.4165 30.4838 15.6989 31.8271 16.2142M18.4938 19.4443L19.1069 19.9826C20.158 20.9055 20.6835 22.2893 20.51 23.6772L20.2539 25.7258C20.1723 26.3788 20.5326 27.0071 21.1375 27.2663C21.8756 27.5826 22.7312 27.2511 23.0635 26.5201L23.7961 24.9083C24.0243 24.4064 24.375 23.97 24.816 23.6392L26.1786 22.6173C26.6008 22.3006 27.1143 22.1295 27.642 22.1295H28.9416C30.3341 22.1295 31.1647 20.5775 30.3923 19.4188C29.8942 18.6717 30.045 17.6685 30.7407 17.1009L31.8271 16.2142M31.5281 38.8956C36.2212 37.2368 39.5837 32.761 39.5837 27.4998C39.5837 22.3511 36.3634 17.9545 31.8271 16.2142" stroke="white" stroke-width="2" stroke-linecap="round" stroke-linejoin="round"/>
<defs>
<radialGradient id="paint0_radial_2623_170" cx="0" cy="0" r="1" gradientUnits="userSpaceOnUse" gradientTransform="translate(5.31513 11.5546) rotate(39.7978) scale(54.5165)">
<stop stop-color="#D4AC55"/>
<stop offset="1" stop-color="#6E592C"/>
</radialGradient>
<radialGradient id="paint1_radial_2623_170" cx="0" cy="0" r="1" gradientUnits="userSpaceOnUse" gradientTransform="translate(5.31513 11.5546) rotate(39.7978) scale(54.5165)">
<stop stop-color="#D4AC55"/>
<stop offset="1" stop-color="#6E592C"/>
</radialGradient>
</defs>
</svg>
