<svg width="284" height="152" viewBox="0 0 284 152" fill="none" xmlns="http://www.w3.org/2000/svg">
<g clip-path="url(#clip0_2031_306)">
<mask id="mask0_2031_306" style="mask-type:luminance" maskUnits="userSpaceOnUse" x="0" y="0" width="284" height="152">
<path d="M283.465 0H0V151.181H283.465V0Z" fill="white"/>
</mask>
<g mask="url(#mask0_2031_306)">
<path fill-rule="evenodd" clip-rule="evenodd" d="M-0.00044283 0H283.465V151.181H278.74C278.74 148.572 276.624 146.456 274.015 146.456C271.406 146.456 269.29 148.572 269.29 151.181H259.842C259.842 148.572 257.726 146.456 255.117 146.456C252.508 146.456 250.392 148.572 250.392 151.181H240.943C240.943 148.572 238.827 146.456 236.219 146.456C233.61 146.456 231.494 148.572 231.494 151.181H222.045C222.045 148.572 219.929 146.456 217.32 146.456C214.711 146.456 212.596 148.572 212.596 151.181H203.146C203.146 148.572 201.031 146.456 198.422 146.456C195.813 146.456 193.697 148.572 193.697 151.181H184.248C184.248 148.572 182.133 146.456 179.523 146.456C176.914 146.456 174.799 148.572 174.799 151.181H165.35C165.35 148.572 163.234 146.456 160.625 146.456C158.016 146.456 155.9 148.572 155.9 151.181H146.451C146.451 148.572 144.336 146.456 141.727 146.456C139.118 146.456 137.002 148.572 137.002 151.181H127.553C127.553 148.572 125.437 146.456 122.828 146.456C120.219 146.456 118.104 148.572 118.104 151.181H108.655C108.655 148.572 106.539 146.456 103.93 146.456C101.321 146.456 99.2048 148.572 99.2048 151.181H89.7556C89.7556 148.572 87.6401 146.456 85.031 146.456C82.422 146.456 80.3064 148.572 80.3064 151.181H70.8572C70.8572 148.572 68.7417 146.456 66.1326 146.456C63.5236 146.456 61.408 148.572 61.408 151.181H51.9588C51.9588 148.572 49.8433 146.456 47.2342 146.456C44.6252 146.456 42.5096 148.572 42.5096 151.181H33.0605C33.0605 148.572 30.9449 146.456 28.3359 146.456C25.7268 146.456 23.6113 148.572 23.6113 151.181H14.1621C14.1621 148.572 12.0465 146.456 9.43747 146.456C6.82841 146.456 4.71288 148.572 4.71288 151.181H-0.0117188V0H-0.00044283Z" fill="#E31E24"/>
<path fill-rule="evenodd" clip-rule="evenodd" d="M75.5909 18.8984L78.7907 45.402L87.4436 20.1414L85.0514 46.7299L98.7776 23.8164L90.8984 49.3277L109.098 29.7623L96.0758 53.0817L117.955 37.7205L100.359 57.828L124.96 47.3414L105.046 62.2464L105.654 62.9481L129.806 58.2062L105.536 69.4335L132.284 69.8394L106.205 75.7853L126.425 80.3963L123.672 81.4458L120.18 81.9159L105.536 82.1371L110.271 84.3272L105.283 86.1131L48.8523 99.894L45.2068 100.161L50.823 93.7426L26.2225 104.229L47.6233 88.2122L21.3756 93.3644L45.6457 82.1371L18.8984 81.732L44.9769 75.7853L18.8984 69.8394L45.6457 69.4335L21.3756 58.2062L47.6233 63.3592L26.2225 47.3414L50.823 57.828L33.2274 37.7205L55.1061 53.0817L42.0842 29.7623L60.2835 49.3277L52.4051 23.8164L66.1305 46.7299L63.7391 20.1414L72.3912 45.402L75.5909 18.8984Z" fill="white"/>
<path fill-rule="evenodd" clip-rule="evenodd" d="M65.0157 72.7847C65.1258 72.8723 65.1996 73.0232 65.1354 73.2331L58.4722 81.0673C55.9993 84.221 53.9237 85.961 52.9184 90.0576C52.2644 92.7205 52.9713 96.1561 54.1154 98.1476L88.748 89.7107L101.823 86.5525C103.233 82.5054 104.614 79.0419 105.986 74.8517L108.809 65.8049C108.909 65.4666 109.262 64.496 109.215 64.2124C109.172 63.9548 108.679 63.1265 108.503 62.9625C108.501 62.9617 105.939 62.6312 105.474 63.1794C105.218 63.5411 104.718 65.2611 104.53 65.778L103.619 68.4209C103.434 68.8156 102.919 68.8737 102.497 69.029C99.5234 70.1227 94.0736 72.6849 91.3961 74.1343C90.9789 74.3607 89.3317 75.327 88.996 75.3816C88.4591 73.9374 87.8962 72.5045 87.3029 71.0213C86.9638 70.173 85.6471 67.2187 85.5881 66.4971C86.5101 65.7589 88.9032 61.2469 88.9501 59.6587L84.7034 55.5109C82.6182 53.5654 83.254 54.385 82.6685 51.2252C82.1837 48.6092 82.0683 49.5468 83.9566 46.7565C84.5403 45.8943 85.1241 45.033 85.6801 44.2367C87.2387 42.0032 86.6645 42.3025 87.6568 39.8921C87.8181 39.4991 87.7618 39.0828 87.6863 38.6361C87.5848 38.0367 87.5718 38.0099 86.7435 37.4287C85.6349 36.6507 83.81 35.3938 83.581 35.3201C82.4378 34.9558 83.0909 35.236 82.0059 34.6358C81.6945 34.464 81.6095 34.4068 81.181 34.3356C80.6085 34.2402 80.6042 34.4128 80.2399 34.4736C79.2502 34.6375 76.6429 32.1741 75.3019 33.8464C74.4632 33.8924 74.4536 34.1639 74.1327 34.6852C73.2879 35.0165 73.6877 34.8526 73.2384 35.5101C72.6564 35.3245 71.972 34.6375 71.3328 34.4892C71.0674 34.582 70.9052 34.7407 70.6727 34.863C70.4732 34.9671 70.0257 35.0963 69.8426 35.1571C67.9717 35.7694 66.4772 36.0609 64.5725 36.5596L64.4389 37.7158L65.262 38.1122C65.3774 38.8061 65.1657 39.9172 65.1562 40.6363C65.1337 42.2444 65.6289 44.5421 64.8301 45.4823C63.9037 46.5726 64.5993 46.3488 64.6566 47.3081C63.6314 48.4236 62.4274 49.1348 61.0648 49.8591C60.2295 50.3032 60.3674 50.0681 60.1965 51.0821C60.069 51.8393 60.4177 51.9243 60.4143 52.7657L60.4437 59.0056C60.4663 63.2826 60.4151 62.0752 62.5454 65.1084C63.0641 65.8474 63.0589 65.5152 62.8073 66.5292C62.4942 67.7912 61.5869 70.5477 61.5028 71.5313C62.5836 72.0075 63.8317 72.4664 65.0183 72.7838L65.0157 72.7847Z" fill="#E31E24"/>
<path fill-rule="evenodd" clip-rule="evenodd" d="M105.474 63.178C105.218 63.5397 104.718 65.2597 104.53 65.7766L103.619 68.4195C103.434 68.8142 102.919 68.8723 102.497 69.0275C99.5223 70.1213 94.0726 72.6835 91.395 74.1329C90.9778 74.3593 89.3298 75.3247 88.9941 75.3802C88.4572 73.936 87.8943 72.504 87.301 71.0208C86.9618 70.1725 85.6452 67.2182 85.5862 66.4965C86.5082 65.7593 88.9004 61.2472 88.9481 59.659L84.7015 55.5112C82.6163 53.5657 83.2521 54.3854 82.6666 51.2255C82.1817 48.6095 82.0664 49.5472 83.9547 46.7568C84.5384 45.8946 85.1221 45.0333 85.6773 44.2371C87.2359 42.0036 86.6617 42.3028 87.654 39.8924C87.8153 39.4995 87.759 39.0831 87.6835 38.6364C87.582 38.0379 87.569 38.0102 86.7407 37.429C85.6322 36.651 83.8072 35.3942 83.5782 35.3205C82.435 34.9562 83.0881 35.2363 82.0031 34.6361C81.6917 34.4644 81.6067 34.4071 81.1782 34.336C80.6057 34.2397 80.6014 34.4123 80.2371 34.473C79.2474 34.637 76.6401 32.1736 75.2982 33.8459C74.4595 33.8919 74.4508 34.1634 74.129 34.6847C73.2851 35.016 73.6841 34.8521 73.2348 35.5095C72.6527 35.3239 71.9684 34.637 71.3291 34.4886C71.0637 34.5814 70.9015 34.7402 70.6691 34.8625C70.4696 34.9666 70.022 35.0958 69.839 35.1556C67.968 35.768 66.4736 36.0603 64.5688 36.5582L64.4344 37.7144L65.2575 38.1108C65.3729 38.8056 65.1612 39.9158 65.1517 40.6349C65.1291 42.243 65.6244 44.5407 64.8255 45.4809C63.8992 46.5712 64.5948 46.3474 64.6521 47.3067C63.626 48.4222 62.4229 49.1334 61.0603 49.8577C60.225 50.3018 60.3629 50.0667 60.192 51.0807C60.0645 51.8379 60.4132 51.9229 60.4097 52.7643L60.4392 59.0033C60.4618 63.2803 60.4106 62.0738 62.5409 65.1061C63.0596 65.846 63.0544 65.5129 62.8028 66.5269C62.4897 67.7889 61.5824 70.5455 61.4983 71.5299C62.579 72.0061 63.8272 72.465 65.0138 72.7824C65.1239 72.87 65.1976 73.021 65.1335 73.2309L58.4703 81.065C55.9974 84.2188 53.9226 85.9587 52.9165 90.0554C52.2625 92.7182 52.9694 96.1539 54.1135 98.1454L88.746 89.7084L101.822 86.5503C103.233 82.5031 104.613 79.0397 105.985 74.8494L108.808 65.8026C108.908 65.4644 109.261 64.4938 109.214 64.2101C109.172 63.9525 108.678 63.1242 108.502 62.9603C108.5 62.9594 105.939 62.6289 105.473 63.1771L105.474 63.178ZM57.4459 80.1976L63.0674 73.5882L62.8349 73.5058C62.1766 73.2716 61.5391 73.0166 60.9579 72.7599L60.0775 72.3722L60.1591 71.4198C60.2241 70.6556 60.6595 69.1603 61.0447 67.8384C61.2242 67.2225 61.3916 66.6483 61.5009 66.206L61.5477 66.0238L61.4436 65.879C60.9831 65.2232 60.6587 64.8078 60.4045 64.4816C59.8893 63.8224 59.5901 63.4399 59.3784 62.8241C59.1165 62.0617 59.1113 61.2324 59.1017 59.2678C59.0905 57.0985 59.0705 54.9266 59.0705 52.7582C59.0714 52.5873 59.0306 52.4633 58.9942 52.3505C58.8632 51.9446 58.7461 51.5846 58.8684 50.8586L58.9178 50.5672C58.9942 50.0728 59.0323 49.8325 59.2813 49.4812C59.5398 49.1169 59.7471 49.0146 60.1495 48.8151L60.4306 48.6737V48.6676C61.0984 48.312 61.7143 47.9694 62.2321 47.6181C62.5365 47.4108 62.8288 47.1888 63.1081 46.9416C62.8106 46.3118 62.7751 45.8209 63.802 44.6127C64.0232 44.3524 63.9486 43.2526 63.8766 42.1996C63.8411 41.6748 63.8055 41.1579 63.8133 40.6184C63.8177 40.2914 63.8506 39.9566 63.8836 39.6088C63.9044 39.3928 63.9261 39.1699 63.9391 38.9652L62.9919 38.5089L63.3415 35.4931L64.2349 35.2597C64.8446 35.1001 65.4171 34.9605 65.9722 34.8252C67.1076 34.5485 68.1719 34.2883 69.4261 33.878C69.4443 33.8693 69.5675 33.8294 69.5796 33.8294C69.754 33.7748 70.0125 33.6941 70.0515 33.6733C70.0818 33.6577 70.1313 33.6247 70.179 33.5935L70.1773 33.5909C70.3707 33.4625 70.5624 33.3359 70.8894 33.2214L71.2563 33.0922L71.6301 33.1789C72.1167 33.2917 72.5174 33.5215 72.8965 33.7661C72.985 33.7106 73.0821 33.662 73.2027 33.61C73.5305 33.0453 73.8038 32.7001 74.6703 32.5622C76.1387 31.2438 77.8917 32.0825 79.3376 32.7747C79.7236 32.9595 79.937 33.1442 80.0142 33.1485L80.0133 33.1459L80.0185 33.1433C80.0159 33.1433 80.0142 33.1425 80.0185 33.1407V33.1433C80.3567 33.0046 80.656 32.8857 81.4011 33.0106C82.0299 33.1156 82.1826 33.2006 82.6076 33.4365L82.6501 33.4599L82.651 33.4582C83.0023 33.6525 83.1359 33.7306 83.2243 33.7817V33.7869C83.292 33.826 83.2807 33.8268 83.3033 33.8364H83.3085C83.3284 33.845 83.3249 33.839 83.3969 33.8598C83.4785 33.8832 83.606 33.9214 83.9841 34.0419C84.2166 34.1157 84.7075 34.414 85.2869 34.7992C85.9852 35.2632 86.8751 35.879 87.5152 36.3283C88.0374 36.6944 88.3089 36.8947 88.5474 37.2044C88.8683 37.619 88.9212 37.894 89.0088 38.4135C89.054 38.6807 89.0939 38.9461 89.0991 39.2618C89.1051 39.64 89.054 40.0164 88.8961 40.4007C88.5856 41.1544 88.4347 41.6558 88.3141 42.0522C88.0495 42.9221 87.9108 43.3775 86.7762 45.003C86.6088 45.2441 86.3087 45.6813 85.9357 46.2277L85.0649 47.5045L85.0684 47.5071C84.7006 48.0509 84.4005 48.4647 84.1654 48.7882C83.867 49.2002 83.7066 49.4214 83.6936 49.4674C83.6918 49.4734 83.7387 49.7102 83.8402 50.2168V50.222C83.8636 50.3391 83.8861 50.4475 83.9841 50.9818C84.1221 51.7251 84.194 52.2473 84.2487 52.6428C84.3016 53.0323 84.332 53.25 84.3667 53.3246C84.4074 53.4113 84.6347 53.6212 85.1499 54.0965C86.9011 55.7203 88.5934 57.4377 90.3038 59.1082L90.2865 59.6946C90.2587 60.64 89.6663 62.2213 88.9395 63.6993C88.3514 64.8962 87.6419 66.0845 87.0529 66.8522C87.2949 67.5547 87.8275 68.8168 88.1961 69.6894C88.3609 70.0779 88.498 70.4023 88.5448 70.5212C88.8232 71.2177 89.1095 71.9385 89.4183 72.7312L89.7279 73.5327L90.7575 72.9507C92.1756 72.1831 94.3927 71.0928 96.6244 70.0667C98.6255 69.1464 100.618 68.2868 102.033 67.7664C102.189 67.7091 102.293 67.6779 102.397 67.6458H102.403C102.63 67.5782 103.096 65.8183 103.267 65.3247C103.297 65.2415 103.376 64.9977 103.467 64.7158C103.724 63.917 104.075 62.8284 104.373 62.4051L104.452 62.3106C104.884 61.8032 105.604 61.5924 106.371 61.5378C107.435 61.4614 108.968 61.7043 108.969 61.7052L109.225 61.8014L109.416 61.9784C109.601 62.1501 109.884 62.5552 110.1 62.9325C110.305 63.2933 110.49 63.7062 110.538 63.995C110.628 64.5389 110.357 65.3707 110.177 65.9249C109.178 69.0249 108.279 72.1744 107.26 75.2649C106.427 77.8089 105.601 80.0588 104.769 82.3288C104.189 83.91 103.606 85.5008 103.086 86.9918L102.846 87.6822L89.0583 91.0112L53.4456 99.6867L52.9434 98.8115C52.2642 97.6284 51.723 96.0099 51.4732 94.3194C51.2468 92.7911 51.2554 91.176 51.6102 89.7327C52.4837 86.1738 54.0484 84.3003 55.9714 81.9966C56.4606 81.4111 56.9732 80.797 57.4112 80.2375L57.4433 80.1959L57.4459 80.1976ZM80.022 33.1477C80.048 33.1433 80.028 33.1442 80.0185 33.1433L80.022 33.1477Z" fill="#FEFEFE"/>
<path fill-rule="evenodd" clip-rule="evenodd" d="M79.26 59.875C79.9895 60.0442 81.1813 60.0459 82.1206 60.2289L84.2856 63.5215C84.4921 63.8346 84.8182 64.427 85.1062 64.6326C85.7567 64.1859 87.5036 60.6895 87.3674 60.1882C87.3449 60.1049 79.339 51.818 78.992 51.6445C78.8801 52.3679 78.6642 55.1947 78.7145 55.853L79.26 59.875Z" fill="white"/>
<path fill-rule="evenodd" clip-rule="evenodd" d="M79.1723 71.0702C80.0379 71.4579 79.7231 70.6938 80.4959 70.9202C80.6512 70.9661 80.8654 71.0451 81.1759 71.1665C82.3842 71.6366 80.9305 72.55 82.7069 73.439C82.8031 73.4876 82.7962 73.4633 82.8751 73.5232C83.4823 73.982 83.4823 77.3145 83.8284 78.4828C84.3228 78.3388 86.1208 77.1679 86.6595 76.8495C87.2155 76.5208 87.6977 76.4393 87.7307 75.6422C87.7524 75.1235 87.6188 74.7531 87.3213 74.5302C86.7965 74.1373 86.6656 74.5909 86.8382 73.5813C86.905 73.1901 86.9561 72.8275 86.5823 72.4303C86.1746 71.9957 85.6984 71.9229 85.3099 71.4805C85.1624 70.7389 85.4851 70.0779 85.3498 69.4196C85.2196 68.7873 84.6697 68.619 84.3297 68.2747C84.2291 67.4914 84.4165 67.5331 84.086 66.8105C81.7857 66.8799 79.4481 68.6208 78.8904 70.261C78.6874 70.8568 78.6857 70.8524 79.1723 71.0702Z" fill="white"/>
<path fill-rule="evenodd" clip-rule="evenodd" d="M74.5047 45.2859C74.562 46.0171 75.8734 48.2298 76.1779 49.1258C76.1675 49.3001 74.5212 51.1962 74.4648 51.3784C74.5021 52.5294 75.0963 53.1608 74.8647 54.4792C74.6261 55.8341 74.5585 56.3935 74.7311 57.8533C74.8673 59.0052 75.1726 63.9969 75.4632 64.5737C75.6852 64.7481 76.0669 64.8921 76.4364 64.9181C76.504 63.4227 76.6775 61.7877 76.8492 60.2776C77.0314 58.6869 77.0739 57.1559 77.2682 55.566L77.9144 48.6045C77.9777 47.9115 78.1269 46.8637 78.0826 46.1888C76.8813 45.8766 75.7511 44.7507 74.5047 45.2859Z" fill="white"/>
<path fill-rule="evenodd" clip-rule="evenodd" d="M67.5137 49.3865C67.7166 49.8063 68.5606 50.2981 68.8902 50.7726C68.9579 51.7909 68.918 51.6434 69.2545 52.4154L71.1896 56.6352C71.436 57.1669 71.671 57.4357 71.6762 58.1374C71.6814 58.919 71.7656 62.3937 71.9217 63.0086C72.0318 63.4414 71.9867 63.5351 72.2218 63.7867C72.3667 63.3365 72.8498 58.1149 72.7032 57.2805C72.5904 56.6378 72.4491 55.9508 72.3146 55.3393C71.7387 52.7216 71.3232 50.0448 70.7412 47.4626C70.4263 47.454 69.8226 47.4566 69.5243 47.5173C68.9986 47.6231 67.7652 48.9632 67.5137 49.3865Z" fill="white"/>
<path fill-rule="evenodd" clip-rule="evenodd" d="M71.825 72.7823C71.6393 72.3581 71.3748 72.2323 71.3956 71.6547C71.4546 70.0639 73.2631 71.5315 73.3151 70.6138C73.3403 70.1671 72.3853 68.2719 71.2716 67.8139C70.2784 67.4054 69.9931 67.7142 69.5143 68.1071C69.0554 68.4835 67.5757 69.645 67.5106 70.0925C67.4083 70.7951 67.8671 72.1751 68.2418 72.5758C68.3676 72.7111 68.5307 72.7805 68.7033 72.8941C69.1222 73.1691 69.5498 73.7034 70.1266 73.8864C71.1415 74.2091 71.8354 73.9784 71.825 72.7823Z" fill="white"/>
<path fill-rule="evenodd" clip-rule="evenodd" d="M89.0572 79.3171C89.3781 79.7551 89.5715 79.6137 90.2394 79.2617C92.4356 78.1011 97.3926 75.2023 102.234 74.577L102.286 72.1855C100.502 72.339 93.6959 75.7999 91.8041 76.8832C91.3609 77.1374 90.0798 77.9119 89.2801 78.441C88.6668 78.847 88.7753 78.9337 89.0572 79.3171Z" fill="white"/>
<path fill-rule="evenodd" clip-rule="evenodd" d="M104.092 70.4207C104.312 70.6973 104.525 70.9211 104.696 71.2004C105.016 72.3783 102.925 77.017 102.572 78.541C102.931 78.5913 103.319 78.4144 103.582 78.26C103.889 78.0093 106.664 69.3711 107.168 67.802C107.359 67.2053 107.556 66.6432 107.747 66.0491C108.019 65.2017 108.162 65.1366 107.947 64.1539L106.403 64.0957C105.925 64.7393 104.128 69.9896 104.091 70.4198L104.092 70.4207Z" fill="white"/>
<path fill-rule="evenodd" clip-rule="evenodd" d="M68.9687 36.1975C68.9809 37.0007 69.51 37.7041 69.7606 38.4847C70.1848 39.8032 69.837 39.8847 69.2836 40.7521C68.8135 41.4885 67.2262 44.0455 67.5514 45.1956C67.9478 45.2 68.2158 44.6787 68.3893 44.4532C69.1778 43.4227 73.0697 38.0883 73.2978 37.3433L71.6845 35.7109L68.9687 36.1975Z" fill="white"/>
<path fill-rule="evenodd" clip-rule="evenodd" d="M90.794 82.2749C90.9762 82.5143 91.1731 82.6652 91.4064 82.5221C95.3122 80.3138 97.6333 79.3137 101.152 78.4558L101.256 76.2891C98.8051 76.6283 93.6867 79.5435 90.9736 81.5107C90.4297 81.9045 90.526 81.9201 90.794 82.2749Z" fill="white"/>
<path fill-rule="evenodd" clip-rule="evenodd" d="M64.6875 65.1569C65.2903 65.9132 65.1151 64.986 66.0137 66.0234L65.6797 66.7086L65.8298 67.0165C66.5471 67.1631 66.9487 67.0078 67.0346 67.8431C66.7258 68.4485 66.2314 68.6983 66.6503 69.4547C67.1239 69.4495 68.1604 68.5466 68.4241 68.3167C68.6306 68.1372 68.9983 67.7668 69.1501 67.5708C69.3739 67.2828 69.6046 67.0191 69.6211 66.4943C69.2204 66.0858 68.0321 63.7005 67.4301 62.9355C67.0424 62.9832 66.2184 63.5886 65.8289 63.8124C65.4161 64.0501 64.8124 64.7032 64.6875 65.1569Z" fill="white"/>
<path fill-rule="evenodd" clip-rule="evenodd" d="M63.7951 58.4777C63.7804 58.8125 63.8281 59.0926 63.731 59.378C63.613 59.7249 63.4265 59.7301 63.5644 60.1794C63.678 60.5481 64.2028 61.0381 64.391 61.4311C64.4136 61.7069 63.7474 62.2265 63.9209 62.766C63.9252 62.779 64.0094 62.9681 64.0267 63.0088C64.1646 63.3124 64.1395 63.2803 64.5064 63.2005C65.2922 63.0296 66.3634 62.4893 67.0062 62.2958C67.0339 61.3357 66.9264 58.6624 66.2706 57.9954C66.072 57.7933 65.9705 57.8618 65.7381 57.6649C65.379 57.3622 65.3972 57.0994 64.9383 57.4455C64.5472 57.7404 64.0813 58.2669 63.7951 58.4777Z" fill="white"/>
<path fill-rule="evenodd" clip-rule="evenodd" d="M83.466 38.5632C84.8972 39.1027 84.2614 39.1288 83.6395 41.0691C83.5016 41.4993 83.6247 41.7439 83.211 41.9495C82.8519 42.1282 82.5561 42.0614 82.256 42.3693C82.1563 43.3798 83.3255 42.7136 83.7679 42.5003C84.2796 42.2531 84.7749 41.9729 85.35 41.5765C86.9416 40.4775 86.7594 40.2269 86.5729 38.0298C86.0187 37.767 83.8398 36.1806 83.4218 36.1797C83.2162 36.8042 83.4209 37.9092 83.466 38.5632Z" fill="white"/>
<path fill-rule="evenodd" clip-rule="evenodd" d="M100.292 80.4051C98.3654 80.8362 94.1265 83.0497 92.8359 84.3508C92.9573 84.5555 93.3511 84.8383 93.6191 84.8391C93.764 84.8391 94.3069 84.5573 94.5125 84.4636C96.2195 83.6812 98.2379 82.9752 100.188 82.5718L100.293 80.4043L100.292 80.4051Z" fill="white"/>
<path fill-rule="evenodd" clip-rule="evenodd" d="M61.7754 51.032L63.0721 52.4458C63.3514 52.7528 64.1243 53.6055 64.4851 53.8258L65.65 51.5958C65.8495 51.195 66.1695 50.8169 65.9839 50.3173C65.8269 49.8966 65.6986 49.4308 65.4383 49.1289C64.8936 49.3076 64.1008 49.7647 63.57 50.0336C63.1545 50.2444 61.9931 50.7232 61.7754 51.0302V51.032Z" fill="white"/>
<path fill-rule="evenodd" clip-rule="evenodd" d="M73.8048 39.5536C72.7795 39.7557 72.9183 39.3706 72.4074 40.2405C72.1368 40.702 71.8141 41.1825 71.6719 41.5893C71.8246 41.8799 72.1377 42.1566 72.4655 42.4454C73.1143 43.0144 74.0043 42.7481 74.843 42.6544C75.1501 42.6198 75.2221 42.6189 75.3071 42.2494C75.4129 41.7888 75.2273 41.7862 74.8864 41.6067L74.9246 41.1305C74.9445 40.8789 74.9471 40.8659 74.7225 40.7141C74.536 40.5884 74.4033 40.4661 74.6678 40.3039C74.8231 40.2084 75.9021 40.1477 75.1978 39.4712C74.9289 39.2127 74.791 38.988 74.5282 38.7339C73.9375 38.1632 74.0164 39.2058 73.8056 39.5544L73.8048 39.5536Z" fill="white"/>
<path fill-rule="evenodd" clip-rule="evenodd" d="M76.5147 39.7669C76.5416 40.4703 76.1937 40.8233 76.1816 41.5198C76.6855 41.9119 76.5606 42.3638 76.5034 43.095C77.2337 42.8894 77.2988 42.2874 78.5383 41.8642C78.6475 41.8269 78.6267 41.8512 78.7273 41.793C78.9902 41.6413 78.795 41.5406 79.2183 40.6334C78.9294 40.2057 78.3414 39.8944 77.9389 39.4199L77.9493 38.608C77.4696 38.6028 77.121 38.6636 76.6699 38.602C76.2848 38.5491 75.917 38.451 75.5371 38.5196C75.6551 38.6037 76.3247 39.485 76.5147 39.7669Z" fill="white"/>
<path fill-rule="evenodd" clip-rule="evenodd" d="M75.6623 34.461C74.5356 34.5209 75.1662 34.4246 74.6145 35.0804C74.3734 35.3675 74.2259 35.2243 74.0169 35.4334C73.7523 35.6979 73.6066 36.4994 73.787 36.8732L74.2936 36.9296L74.6848 36.3606C75.4411 36.8515 75.7005 36.4586 75.8696 35.73L76.5262 35.7951L76.9018 35.2009C77.6616 35.1992 79.2602 36.2331 79.2897 34.8982C78.7389 34.3544 77.0284 33.8695 76.4421 33.879C75.8791 33.8877 75.8808 34.141 75.6623 34.461Z" fill="white"/>
<path fill-rule="evenodd" clip-rule="evenodd" d="M80.4969 34.9823C80.607 35.4888 80.9601 35.5704 80.8325 36.0899C80.4622 37.6009 79.7743 37.8628 78.6797 38.3564V38.843C79.1091 38.8256 80.0562 38.5463 80.2982 38.3408C80.8915 37.8368 82.0469 36.4291 81.7624 35.5764C81.4944 34.7758 80.8334 34.7507 80.4969 34.9823Z" fill="white"/>
<path fill-rule="evenodd" clip-rule="evenodd" d="M70.1289 43.9232L70.8106 46.2009C71.1038 46.0049 72.2019 45.0638 72.5228 44.794C72.3077 44.5633 71.2382 43.565 70.9841 43.4297L70.1289 43.9232Z" fill="white"/>
<path fill-rule="evenodd" clip-rule="evenodd" d="M77.073 36.179L77.0877 36.938C76.7685 36.9406 75.5733 36.9085 75.5195 37.3656C75.4814 37.6883 75.7138 37.6657 76.7078 37.7628C77.0452 37.7958 77.5448 37.7351 77.8424 37.6033C78.4226 37.3465 78.8155 36.6448 78.2708 35.9648L77.0739 36.1782L77.073 36.179Z" fill="white"/>
<path fill-rule="evenodd" clip-rule="evenodd" d="M59.9112 96.7382L57.4149 97.3419C57.4236 96.4129 57.2241 95.4927 57.1807 94.5281C57.1356 93.5402 57.1209 92.6086 57.133 91.586C57.1556 89.6943 57.5017 87.9803 58.0151 86.4008L58.677 86.4676L58.6024 89.6691C59.0751 89.6483 60.6285 88.6421 61.1533 88.3238C61.5714 88.0697 61.6477 88.1096 61.705 87.5137C61.8524 85.9723 62.1092 84.3157 62.457 82.8732L63.0043 82.9079L63.0338 86.9976C63.5603 86.89 64.9923 85.6289 65.5049 85.2264C65.9256 84.8968 65.9829 84.9766 66.0592 84.3113C66.1676 83.3676 66.6221 79.9701 66.9682 79.4184C67.5051 79.3881 67.4878 79.559 67.4401 80.0586C67.3611 80.8808 67.2666 82.8697 67.408 83.5714L68.7203 82.286C69.0126 81.9928 69.0803 81.8991 69.3544 81.6251C69.6328 81.3466 69.8175 81.2339 69.8982 80.7768C70.0786 79.7576 70.4013 76.9464 70.8254 76.2499L71.2765 76.2386C71.2617 77.2413 70.9937 78.4184 71.1108 79.5165C71.5983 79.0524 73.7754 76.0426 73.928 75.3825C71.7171 71.8124 76.361 72.6416 76.4703 74.8613C76.5406 76.2803 75.1181 75.87 74.9524 76.0504C74.6714 76.8189 74.7052 78.9874 74.785 79.958C74.8978 81.3423 75.1293 82.3068 75.3939 83.5515L76.8693 81.429C78.6257 78.4505 78.0767 79.3534 77.6048 78.3967C76.9985 77.1676 78.0845 76.2907 79.3717 76.8944C80.5895 77.4651 81.4161 79.5963 79.2476 79.6344C79.4159 81.3813 80.1723 82.9929 80.5895 84.6513C81.0821 84.1743 82.0319 82.5766 82.195 81.9694C81.9764 81.5782 81.3207 80.9259 81.7708 80.1783C82.4127 79.1114 84.5785 79.9337 84.7485 81.2902C84.8604 82.1784 84.2663 82.4465 83.5021 82.5184C83.7346 83.365 85.0053 85.2672 85.6168 86.0504C85.8787 85.7017 86.3619 84.8482 86.531 84.464C85.0417 83.5342 85.9308 81.442 87.8407 82.3745C88.6448 82.7674 89.1175 83.7918 88.696 84.4709C88.4401 84.8838 87.6725 84.9428 87.1087 84.7901C86.8918 85.1813 86.3619 86.6671 86.361 86.9967C86.3705 87.0236 88.3551 89.4497 88.7619 89.7133L86.1893 90.3526C86.0496 90.0187 85.6602 89.4948 85.3652 89.3161L84.7112 90.716L81.5028 91.5053C81.227 90.9918 80.5695 89.8617 80.2607 88.7792C80.2078 88.4661 80.0378 88.5259 79.8982 88.7636L78.3933 90.8106L79.1236 92.0917L71.6919 93.9192L70.9521 91.9468C70.6303 92.188 69.6788 93.1638 69.5192 93.4968L69.9242 94.3208L62.398 96.1415C62.1361 94.3434 61.672 93.3268 61.5367 91.3527C60.8454 91.717 59.8358 92.3762 59.115 92.7917C59.0846 93.5445 59.7195 95.9099 59.9112 96.7425V96.7382ZM77.414 89.0828L79.6354 86.4737C79.1366 84.3 78.8695 82.3771 78.4176 80.383C78.3647 80.939 76.7314 83.8733 76.4079 84.4293C75.8866 85.3244 75.8657 85.451 76.3333 86.5092C76.6724 87.2777 77.0167 88.4522 77.414 89.0828ZM72.7588 89.761C72.8811 90.4549 73.8586 92.5011 74.2056 92.8905C74.4406 92.7604 75.5344 91.4342 75.7495 91.1523C75.7356 90.814 75.2811 89.7281 75.1397 89.3464C74.9836 88.9249 74.7191 87.7886 74.4658 87.5302L72.7597 89.7619L72.7588 89.761ZM82.6712 89.8599C83.0997 89.663 84.3643 88.074 84.5803 87.773C84.4536 87.2743 83.5082 85.5551 83.1005 84.1491C82.993 83.7788 82.8681 83.156 82.7172 82.8533C82.5142 83.4127 82.2358 84.0875 81.9972 84.6461C81.194 86.5327 80.5739 86.0513 82.6703 89.8591L82.6712 89.8599ZM67.591 86.1692C67.591 87.008 67.8148 88.0428 67.9796 88.8104L68.5338 90.9311C68.6023 91.0578 68.6049 91.0265 68.6605 91.0864C68.879 90.9537 70.0673 89.8599 70.2807 89.5928C70.1098 88.95 69.5244 85.2316 69.6666 83.8976L67.591 86.1692ZM63.3556 90.0256C63.3669 91.4073 64.0044 93.3953 64.4233 94.5307L66.7618 92.6685C66.4686 91.5244 66.0401 89.4254 65.9291 87.9014C65.1441 88.6057 63.5629 89.7957 63.3556 90.0256ZM72.0883 87.7236C72.2176 87.5588 73.9697 85.7668 74.0746 85.4597C73.6097 83.5125 73.5377 80.2121 73.745 78.2319C73.1344 79.2641 71.6295 81.05 71.214 82.0032C70.8671 82.7986 71.8316 86.9152 72.0883 87.7236Z" fill="#FEFEFE"/>
<path d="M18.9609 106.563L132.275 78.9297V80.7339L18.9609 108.37V106.563Z" fill="#FEFEFE"/>
<path fill-rule="evenodd" clip-rule="evenodd" d="M74.5957 121.539C74.6981 119.749 74.7987 117.96 74.901 116.169L76.3105 115.826L78.2578 105.637L76.2949 106.117L76.3088 103.15C80.4097 102.15 84.5141 101.149 88.6134 100.149L88.5986 103.11L86.9107 103.522L86.8613 113.252C87.5543 113.083 88.2473 112.914 88.9404 112.745L88.9126 118.046L85.8091 118.804L85.8204 116.462L77.7131 118.44L77.7009 120.781C76.6661 121.034 75.6313 121.284 74.5974 121.538L74.5957 121.539ZM37.3549 121.584L38.1277 115.41L39.1252 115.166L40.1652 120.897L37.3549 121.584ZM43.7058 123.726L40.8851 111.796L36.2932 112.944C35.5117 117.352 34.732 121.761 33.9513 126.169L32.8975 126.433L32.9799 129.453L36.4815 128.575L37.0114 124.338L40.6301 123.45L41.3405 127.361L44.8855 126.47L44.7996 123.452L43.7058 123.726ZM122.389 91.9113L125.386 100.152L128.536 90.4116L132.274 89.5L132.258 92.45L130.541 92.8689L124.918 109.264L121.723 110.044L123.832 104.031L120.278 95.38L118.133 95.9056L118.083 105.637L119.771 105.225L119.756 108.184L114.964 109.354L114.996 102.889L110.656 103.947L110.623 110.412L105.83 111.581L105.845 108.621L107.533 108.21L107.583 98.4782L105.894 98.8902L105.909 95.9299L110.702 94.7615L110.671 100.988L115.011 99.9294L115.043 93.7016L122.388 91.9105L122.389 91.9113ZM104.217 111.975L99.4235 113.144L99.4712 103.788L95.1438 114.187L90.2909 115.371L90.3056 112.412C90.8685 112.274 91.4332 112.136 91.9935 112L92.043 102.269L90.3551 102.681L90.3698 99.7203L95.1621 98.5511L95.1152 107.84L99.4426 97.5076L104.296 96.3237L104.281 99.284L102.593 99.696L102.544 109.427L104.231 109.016L104.217 111.975ZM83.8046 104.281L81.212 104.915L79.3246 115.09L83.7552 114.01L83.8046 104.281ZM27.6559 126.61C28.1442 125.652 28.3134 124.514 28.0072 123.498C27.7574 122.665 27.1433 122.141 26.2672 121.999C25.3669 121.853 24.4987 122.101 23.6348 122.316C23.6226 122.318 23.319 122.393 23.3173 122.391C23.3034 122.33 23.3069 122.049 23.3069 122.006L23.3104 119.918C23.3104 119.887 23.3277 119.503 23.3364 119.489C23.4153 119.472 23.5454 119.438 23.6391 119.415L24.3425 119.24C25.7225 118.896 26.8718 118.213 27.4503 116.87C27.6837 116.327 27.8016 115.716 27.8025 115.032C27.8034 114.045 27.4842 113.06 26.4555 112.761C25.5048 112.483 23.9939 112.953 23.1378 113.469C22.8827 113.623 22.659 113.788 22.4204 113.966C22.4196 115.003 22.4178 116.038 22.4161 117.074L19.3291 117.842L19.336 112.909C19.336 112.909 19.6761 112.471 20.5694 111.857C22.1663 110.761 24.3746 109.84 26.2629 109.621C27.4113 109.485 28.4808 109.537 29.4765 110.185C30.0594 110.564 30.4879 111.061 30.7351 111.71C30.8574 112.029 30.9476 112.363 31.0083 112.713C31.1592 113.584 31.1185 114.557 30.9146 115.414C30.6735 116.423 30.1913 117.364 29.4921 118.131C28.9006 118.78 28.257 119.173 27.5397 119.647C28.2778 119.642 28.8182 119.594 29.5294 119.855C30.4385 120.191 31.0248 121.075 31.3188 121.959C31.4949 122.491 31.5834 123.118 31.5825 123.841C31.5808 124.823 31.4247 125.731 31.115 126.566C30.6076 127.93 29.8434 129.048 28.7106 129.962C27.5371 130.91 26.1614 131.498 24.7051 131.86C23.4925 132.161 22.1481 132.369 20.8878 132.248C20.4064 132.201 19.2042 132.015 18.957 131.623L18.9631 126.794L22.0509 126.026C22.0501 127.061 22.0466 128.096 22.0466 129.13C24.2116 129.495 26.6177 128.642 27.655 126.612L27.6559 126.61ZM70.1894 104.575C70.696 104.452 71.1279 104.397 71.4992 104.398C73.5947 104.409 73.6728 106.248 73.6641 107.839L73.6286 114.848C73.6156 117.434 73.4534 119.581 70.1374 120.389L66.4311 121.294C65.8638 121.432 65.3616 121.509 64.9236 121.507C63.4352 121.499 62.7014 120.572 62.7144 118.02L62.7534 110.364C62.7682 107.471 63.7682 106.14 66.5109 105.471L70.1886 104.574L70.1894 104.575ZM65.9245 108.572L65.8742 118.473L70.4557 117.356L70.506 107.454L65.9245 108.572ZM53.7067 106.216L53.6711 113.226L55.7667 112.714C55.922 112.677 56.0755 112.638 56.2281 112.595C57.6055 112.196 57.9967 111.594 58.008 109.449L58.0184 107.476C58.0253 106.067 57.7981 105.532 56.9472 105.528C56.6601 105.527 56.301 105.586 55.856 105.692L53.7067 106.216ZM55.8725 102.358L56.4493 102.217C57.2334 102.026 57.8935 101.938 58.4478 101.941C60.8591 101.954 61.2884 103.665 61.2763 105.933L61.2607 109.097C61.2381 113.487 59.5736 115.047 56.4996 115.796L53.6529 116.49L53.6295 121.152L57.9525 120.098L57.9369 123.262L48.5796 125.544L48.5961 122.38L50.3135 121.961L50.3907 106.854L48.6724 107.273L48.688 104.109L49.6014 103.886L55.8717 102.356L55.8725 102.358Z" fill="#FEFEFE"/>
<path d="M157.258 39.7842H153.461V52.5303H151.125V37.6773H157.259L157.258 39.7842ZM167.288 52.5303H164.847L164.242 49.589H160.8L160.216 52.5303H157.755L161.406 37.6773H163.679L167.288 52.5303ZM163.804 47.4822L162.531 41.2657L161.259 47.4822H163.804ZM177.298 42.2042C177.298 43.762 176.995 44.9017 176.39 45.6251C175.785 46.3485 174.815 46.7102 173.48 46.7102H172.083V52.5303H169.747V37.6773H173.481C174.816 37.6773 175.787 38.039 176.391 38.7624C176.997 39.4858 177.299 40.6325 177.299 42.2042H177.298ZM174.627 44.0083C174.85 43.6119 174.961 43.0108 174.961 42.2042C174.961 41.3975 174.85 40.793 174.627 40.3896C174.404 39.9863 173.995 39.7842 173.396 39.7842H172.081V44.6033H173.396C173.994 44.6033 174.404 44.4047 174.627 44.0083ZM187.724 52.5303H185.284L184.678 49.589H181.236L180.653 52.5303H178.191L181.842 37.6773H184.115L187.724 52.5303ZM184.24 47.4822L182.968 41.2657L181.695 47.4822H184.24ZM197.755 52.5303H195.418V46.0423H192.518V52.5303H190.183V37.6773H192.518V43.9355H195.418V37.6773H197.755V52.5303ZM207.848 39.7842H205.345V52.5303H203.008V39.7842H200.526V37.6773H207.848V39.7842ZM221.926 48.2749C221.926 49.151 221.857 49.8328 221.717 50.3194C221.578 50.806 221.327 51.231 220.966 51.5918C220.339 52.218 219.366 52.5303 218.045 52.5303H214.353V37.6773H218.066C219.387 37.6773 220.347 37.9835 220.945 38.595C221.293 38.9428 221.536 39.3392 221.675 39.7842C221.814 40.2292 221.884 40.8485 221.884 41.6413C221.884 42.7819 221.599 43.644 221.029 44.2278C220.792 44.4637 220.535 44.638 220.257 44.7491C220.591 44.9017 220.862 45.083 221.071 45.2912C221.641 45.8749 221.926 46.8706 221.926 48.2749ZM219.589 48.1084C219.589 47.2879 219.45 46.6972 219.172 46.3346C218.894 45.9729 218.443 45.7925 217.816 45.7925H216.69V50.4234H217.816C218.456 50.4234 218.912 50.25 219.182 49.9021C219.454 49.5543 219.589 48.9558 219.589 48.1084ZM219.548 41.7878C219.548 41.0644 219.419 40.5501 219.162 40.2439C218.904 39.9377 218.469 39.7851 217.858 39.7851H216.69V43.8114H217.858C218.456 43.8114 218.887 43.6518 219.151 43.3318C219.416 43.0117 219.548 42.4974 219.548 41.7878ZM233.834 52.5312H231.248L227.639 44.7916L230.977 37.6782H233.439L230.038 44.6875L233.834 52.5312ZM227.597 52.5312H225.26V37.6782H227.597V52.5312ZM243.781 37.6782L239.86 50.0071C239.526 51.0358 239.095 51.7141 238.567 52.0411C238.038 52.3681 237.169 52.5312 235.959 52.5312V50.4451C236.598 50.4451 237.065 50.3367 237.357 50.1216C237.648 49.9065 237.878 49.5066 238.044 48.922L238.378 47.712L235.124 37.6782H237.669L239.463 44.5418L241.236 37.6782H243.781ZM253.353 48.5881C253.311 49.9932 252.901 51.0497 252.122 51.7592C251.454 52.3854 250.599 52.6977 249.556 52.6977C248.346 52.6977 247.387 52.2736 246.677 51.4253C246.218 50.8693 245.923 50.1563 245.791 49.2872C245.659 48.4181 245.593 47.0242 245.593 45.1047C245.593 43.1852 245.659 41.7913 245.791 40.9222C245.924 40.0531 246.218 39.3401 246.677 38.7841C247.387 37.9358 248.346 37.5117 249.556 37.5117C250.613 37.5117 251.483 37.8317 252.163 38.471C252.915 39.1528 253.311 40.1953 253.353 41.6005H251.016C250.988 40.9326 250.87 40.4538 250.661 40.1615C250.438 39.7998 250.07 39.6194 249.555 39.6194C249.055 39.6194 248.686 39.8076 248.449 40.1823C248.24 40.5163 248.102 41.048 248.032 41.7783C247.963 42.5086 247.928 43.618 247.928 45.1056C247.928 46.594 247.963 47.7025 248.032 48.4328C248.102 49.1631 248.241 49.6948 248.449 50.0288C248.685 50.4044 249.054 50.5917 249.555 50.5917C250.07 50.5917 250.438 50.4113 250.661 50.0496C250.87 49.7295 250.988 49.2429 251.016 48.5889L253.353 48.5881ZM264.551 52.5312H262.111L261.505 49.5899H258.063L257.48 52.5312H255.018L258.669 37.6782H260.942L264.551 52.5312ZM261.067 47.483L259.795 41.2665L258.522 47.483H261.067Z" fill="white"/>
<path d="M160.818 108.25C160.764 110.079 160.229 111.456 159.216 112.38C158.346 113.194 157.233 113.602 155.874 113.602C154.298 113.602 153.049 113.049 152.126 111.944C151.528 111.22 151.143 110.292 150.971 109.16C150.799 108.028 150.713 106.213 150.713 103.713C150.713 101.214 150.799 99.3988 150.971 98.2669C151.143 97.1349 151.528 96.2068 152.126 95.4817C153.049 94.3767 154.299 93.825 155.874 93.825C157.251 93.825 158.383 94.2414 159.27 95.0749C160.248 95.9622 160.764 97.3206 160.818 99.1498H157.776C157.739 98.2807 157.586 97.6562 157.314 97.2755C157.025 96.8045 156.545 96.5694 155.874 96.5694C155.222 96.5694 154.742 96.8131 154.435 97.3023C154.163 97.7369 153.982 98.4299 153.892 99.3806C153.801 100.331 153.755 101.775 153.755 103.713C153.755 105.651 153.801 107.095 153.892 108.046C153.982 108.997 154.163 109.69 154.435 110.125C154.742 110.613 155.223 110.857 155.874 110.857C156.545 110.857 157.025 110.622 157.314 110.151C157.586 109.734 157.74 109.101 157.776 108.249L160.818 108.25ZM174.265 113.385H171.386V97.4116L168.479 99.6391V96.3786L171.386 94.0427H174.265V113.385ZM187.279 99.9105C187.279 101.613 187.016 103.134 186.49 104.474L183.094 113.385H180.106L183.285 105.561C182.996 105.779 182.606 105.887 182.117 105.887C181.03 105.887 180.17 105.488 179.536 104.692C179.174 104.221 178.921 103.656 178.776 102.995C178.631 102.334 178.558 101.306 178.558 99.9114C178.558 98.6797 178.631 97.7421 178.776 97.0994C178.921 96.4566 179.165 95.8816 179.51 95.3742C180.234 94.342 181.374 93.8259 182.932 93.8259C184.472 93.8259 185.604 94.342 186.328 95.3742C186.691 95.9171 186.939 96.5156 187.075 97.167C187.21 97.8193 187.279 98.7335 187.279 99.9105ZM183.964 103.034C184.254 102.672 184.399 101.649 184.399 99.9643C184.399 98.2799 184.254 97.2564 183.964 96.8947C183.711 96.5685 183.367 96.4055 182.932 96.4055C182.479 96.4055 182.126 96.5685 181.873 96.8947C181.583 97.2564 181.439 98.2799 181.439 99.9643C181.439 101.649 181.583 102.672 181.873 103.034C182.126 103.36 182.48 103.523 182.932 103.523C183.368 103.523 183.711 103.36 183.964 103.034ZM198.607 110.369H197.276V113.384H194.396V110.369H189.018V107.788L193.99 94.0419H196.788L191.979 107.788H194.396V104.338H197.276V107.788H198.607V110.369ZM209.175 96.4324L204.094 113.384H201.215L206.295 96.6223H202.927V99.2036H200.156V94.0419H209.175V96.4324ZM224.632 96.7854H219.688V113.384H216.645V94.0419H224.632V96.7854ZM236.422 98.2382C236.585 99.3702 236.667 101.195 236.667 103.712C236.667 106.229 236.585 108.054 236.422 109.186C236.259 110.318 235.87 111.237 235.254 111.943C234.33 113.048 233.08 113.601 231.505 113.601C229.929 113.601 228.68 113.048 227.756 111.943C227.159 111.219 226.774 110.291 226.602 109.159C226.43 108.027 226.344 106.212 226.344 103.712C226.344 101.213 226.429 99.3979 226.602 98.266C226.774 97.1341 227.159 96.206 227.756 95.4809C228.68 94.3758 229.93 93.8242 231.505 93.8242C233.081 93.8242 234.33 94.3767 235.254 95.4809C235.87 96.1869 236.259 97.1063 236.422 98.2382ZM233.502 108.045C233.583 107.095 233.624 105.651 233.624 103.712C233.624 101.774 233.583 100.33 233.502 99.3797C233.42 98.4291 233.243 97.736 232.972 97.3015C232.664 96.8123 232.175 96.5685 231.505 96.5685C230.853 96.5685 230.373 96.8123 230.065 97.3015C229.613 98.0257 229.386 100.163 229.386 103.713C229.386 107.262 229.613 109.4 230.065 110.125C230.373 110.613 230.854 110.857 231.505 110.857C232.176 110.857 232.664 110.613 232.972 110.125C233.243 109.69 233.42 108.996 233.502 108.045ZM251.309 117.051H248.429V113.384H240.606V117.051H237.726V110.64H238.976C240.045 107.923 240.579 104.799 240.579 101.267V94.041H249.707V110.64H251.31L251.309 117.051ZM246.664 110.64V96.7585H243.485V102.028C243.485 105.234 243.014 108.104 242.073 110.64H246.664ZM264.566 113.383H261.387L260.599 109.553H256.117L255.356 113.383H252.151L256.905 94.041H259.866L264.565 113.383H264.566ZM260.029 106.809L258.371 98.7136L256.715 106.809H260.029Z" fill="white"/>
<path d="M153.19 80.6875H151.125V65.8345H153.46V74.9298L156.777 65.8345H158.863V80.6875H156.527V71.5921L153.19 80.6875ZM172.59 65.8345L168.669 78.1634C168.335 79.1921 167.904 79.8704 167.376 80.1974C166.848 80.5244 165.978 80.6875 164.768 80.6875V78.6014C165.408 78.6014 165.874 78.493 166.166 78.2779C166.457 78.0628 166.687 77.6629 166.854 77.0783L167.188 75.8683L163.933 65.8345H166.478L168.272 72.6981L170.046 65.8345H172.59ZM181.498 76.4312C181.498 77.3073 181.429 77.989 181.289 78.4756C181.151 78.9622 180.9 79.3873 180.538 79.7481C179.912 80.3743 178.939 80.6866 177.618 80.6866H173.925V65.8336H177.639C178.96 65.8336 179.92 66.1398 180.517 66.7513C180.865 67.0991 181.109 67.4955 181.248 67.9405C181.387 68.3855 181.457 69.0048 181.457 69.7975C181.457 70.9381 181.171 71.8003 180.602 72.3841C180.365 72.62 180.107 72.7943 179.83 72.9054C180.163 73.058 180.434 73.2393 180.643 73.4475C181.214 74.0312 181.498 75.0269 181.498 76.4312ZM179.162 76.2647C179.162 75.4442 179.023 74.8535 178.744 74.4909C178.467 74.1292 178.015 73.9488 177.389 73.9488H176.262V78.5797H177.389C178.028 78.5797 178.484 78.4063 178.755 78.0584C179.026 77.7106 179.162 77.1121 179.162 76.2647ZM179.12 69.9441C179.12 69.2207 178.992 68.7064 178.734 68.4002C178.476 68.094 178.042 67.9414 177.43 67.9414H176.262V71.9677H177.43C178.028 71.9677 178.46 71.8081 178.724 71.4881C178.988 71.168 179.12 70.6536 179.12 69.9441ZM190.01 80.6875H183.773V65.8345H190.01V67.9414H186.108V72.1559H189.467V74.2628H186.108V78.5806H190.01V80.6875ZM199.585 70.3613C199.585 71.9192 199.282 73.0589 198.678 73.7823C198.072 74.5057 197.102 74.8674 195.768 74.8674H194.37V80.6875H192.034V65.8345H195.768C197.103 65.8345 198.074 66.1962 198.679 66.9196C199.284 67.643 199.586 68.7897 199.586 70.3613H199.585ZM196.914 72.1655C197.137 71.7691 197.248 71.168 197.248 70.3613C197.248 69.5547 197.137 68.9501 196.914 68.5468C196.691 68.1435 196.282 67.9414 195.683 67.9414H194.369V72.7605H195.683C196.281 72.7605 196.691 72.5618 196.914 72.1655ZM207.72 80.6875H201.483V65.8345H207.72V67.9414H203.819V72.1559H207.177V74.2628H203.819V78.5806H207.72V80.6875ZM217.316 80.6875H214.979V74.1995H212.079V80.6875H209.744V65.8345H212.079V72.0926H214.979V65.8345H217.316V80.6875ZM227.391 80.6875H225.055V74.1995H222.155V80.6875H219.819V65.8345H222.155V72.0926H225.055V65.8345H227.391V80.6875ZM237.238 69.0577C237.363 69.9268 237.426 71.3285 237.426 73.261C237.426 75.1944 237.363 76.5952 237.238 77.4643C237.113 78.3334 236.814 79.0394 236.341 79.5815C235.631 80.4298 234.672 80.854 233.462 80.854C232.252 80.854 231.293 80.4298 230.583 79.5815C230.124 79.0256 229.829 78.3126 229.697 77.4435C229.565 76.5744 229.499 75.1805 229.499 73.261C229.499 71.3415 229.565 69.9476 229.697 69.0785C229.829 68.2094 230.124 67.4964 230.583 66.9404C231.293 66.0921 232.252 65.668 233.462 65.668C234.672 65.668 235.631 66.0921 236.341 66.9404C236.814 67.4825 237.113 68.1886 237.238 69.0577ZM234.996 76.5882C235.058 75.8588 235.089 74.7494 235.089 73.261C235.089 71.7726 235.058 70.6641 234.996 69.9337C234.933 69.2043 234.797 68.6717 234.589 68.3378C234.353 67.9622 233.977 67.7748 233.462 67.7748C232.962 67.7748 232.593 67.963 232.356 68.3378C232.008 68.8937 231.835 70.5348 231.835 73.261C231.835 75.9871 232.008 77.6282 232.356 78.1842C232.592 78.5598 232.961 78.7471 233.462 78.7471C233.976 78.7471 234.352 78.5589 234.589 78.1842C234.798 77.8503 234.933 77.3186 234.996 76.5882ZM246.897 76.7444C246.855 78.1495 246.445 79.206 245.666 79.9155C244.998 80.5417 244.143 80.854 243.1 80.854C241.89 80.854 240.931 80.4298 240.221 79.5815C239.763 79.0256 239.467 78.3126 239.335 77.4435C239.203 76.5744 239.137 75.1805 239.137 73.261C239.137 71.3415 239.203 69.9476 239.335 69.0785C239.468 68.2094 239.763 67.4964 240.221 66.9404C240.931 66.0921 241.89 65.668 243.1 65.668C244.157 65.668 245.027 65.988 245.708 66.6273C246.459 67.309 246.855 68.3516 246.897 69.7568H244.56C244.532 69.0889 244.414 68.6101 244.205 68.3178C243.982 67.9561 243.614 67.7757 243.099 67.7757C242.599 67.7757 242.23 67.9639 241.994 68.3386C241.784 68.6726 241.646 69.2043 241.576 69.9346C241.507 70.6649 241.472 71.7743 241.472 73.2618C241.472 74.7503 241.507 75.8588 241.576 76.5891C241.646 77.3194 241.785 77.8511 241.994 78.1851C242.229 78.5606 242.598 78.748 243.099 78.748C243.614 78.748 243.982 78.5676 244.205 78.2059C244.414 77.8858 244.532 77.3992 244.56 76.7452L246.897 76.7444ZM255.137 67.9414H252.634V80.6875H250.297V67.9414H247.814V65.8345H255.137V67.9414ZM258.892 80.6875H256.827V65.8345H259.162V74.9298L262.479 65.8345H264.565V80.6875H262.229V71.5921L258.891 80.6875H258.892Z" fill="white"/>
</g>
</g>
<defs>
<clipPath id="clip0_2031_306">
<rect width="284" height="152" fill="white"/>
</clipPath>
</defs>
</svg>
