<svg width="886" height="472" viewBox="0 0 886 472" fill="none" xmlns="http://www.w3.org/2000/svg">
<g clip-path="url(#clip0_11_103)">
<path fill-rule="evenodd" clip-rule="evenodd" d="M0.491211 0H885.508V472H870.745C870.745 463.862 864.143 457.26 856.006 457.26C847.868 457.26 841.243 463.862 841.243 472H811.763C811.763 463.862 805.138 457.26 797 457.26C788.862 457.26 782.26 463.862 782.26 472H752.757C752.757 463.862 746.155 457.26 737.994 457.26C729.856 457.26 723.254 463.862 723.254 472H693.751C693.751 463.862 687.149 457.26 679.011 457.26C670.85 457.26 664.248 463.862 664.248 472H634.745C634.745 463.862 628.143 457.26 620.005 457.26C611.845 457.26 605.243 463.862 605.243 472H575.74C575.74 463.862 569.138 457.26 561 457.26C552.862 457.26 546.26 463.862 546.26 472H516.757C516.757 463.862 510.155 457.26 501.994 457.26C493.856 457.26 487.254 463.862 487.254 472H457.751C457.751 463.862 451.149 457.26 442.988 457.26C434.85 457.26 428.248 463.862 428.248 472H398.745C398.745 463.862 392.143 457.26 384.006 457.26C375.845 457.26 369.243 463.862 369.243 472H339.74C339.74 463.862 333.138 457.26 325 457.26C316.839 457.26 310.237 463.862 310.237 472H280.734C280.734 463.862 274.132 457.26 265.994 457.26C257.856 457.26 251.254 463.862 251.254 472H221.751C221.751 463.862 215.149 457.26 206.988 457.26C198.85 457.26 192.248 463.862 192.248 472H162.745C162.745 463.862 156.143 457.26 147.983 457.26C139.845 457.26 133.243 463.862 133.243 472H103.74C103.74 463.862 97.1377 457.26 88.9998 457.26C80.839 457.26 74.2369 463.862 74.2369 472H44.734C44.734 463.862 38.132 457.26 29.9941 457.26C21.8561 457.26 15.2312 463.862 15.2312 472H0.491211L0.491211 0Z" fill="#E31E24"/>
<path fill-rule="evenodd" clip-rule="evenodd" d="M236.491 59.0059L246.486 141.761L273.49 62.88L266.04 145.887L308.885 74.3648L284.287 154.002L341.115 92.933L300.449 165.739L368.761 117.759L313.813 180.548L390.631 147.812L328.461 194.348L330.341 196.525L405.76 181.717L329.997 216.79L413.486 218.051L332.083 236.619L395.192 251.015L386.619 254.293L375.707 255.76L329.997 256.448L344.76 263.279L329.195 268.85L153.003 311.878L141.633 312.726L159.17 292.668L82.352 325.426L149.175 275.406L67.2224 291.499L143.008 256.448L59.4971 255.187L140.922 236.619L59.4971 218.051L143.008 216.79L67.2224 181.717L149.175 197.809L82.352 147.812L159.17 180.548L104.221 117.759L172.534 165.739L131.89 92.933L188.695 154.002L164.098 74.3648L206.966 145.887L199.492 62.88L226.497 141.761L236.491 59.0059Z" fill="white"/>
<path fill-rule="evenodd" clip-rule="evenodd" d="M203.481 227.243C203.825 227.518 204.054 227.977 203.848 228.642L183.056 253.101C175.331 262.936 168.843 268.368 165.703 281.16C163.663 289.481 165.863 300.21 169.439 306.422L277.571 280.082L318.398 270.225C322.799 257.594 327.109 246.774 331.396 233.685L340.198 205.443C340.519 204.388 341.62 201.362 341.482 200.468C341.345 199.666 339.809 197.076 339.258 196.571C339.236 196.571 331.258 195.54 329.791 197.259C328.989 198.382 327.43 203.746 326.857 205.374L323.991 213.604C323.418 214.841 321.813 215.025 320.507 215.506C311.223 218.922 294.19 226.922 285.846 231.461C284.539 232.149 279.405 235.175 278.35 235.358C276.677 230.842 274.911 226.372 273.055 221.742C272 219.082 267.897 209.867 267.713 207.62C270.579 205.305 278.052 191.23 278.213 186.256L264.94 173.304C258.429 167.229 260.424 169.796 258.59 159.939C257.077 151.755 256.71 154.69 262.624 145.979C264.435 143.296 266.246 140.591 267.989 138.116C272.848 131.147 271.06 132.064 274.155 124.545C274.659 123.33 274.499 122.023 274.247 120.625C273.949 118.745 273.903 118.676 271.312 116.865C267.851 114.435 262.143 110.493 261.432 110.263C257.879 109.14 259.896 110.011 256.527 108.131C255.541 107.604 255.289 107.421 253.936 107.192C252.148 106.894 252.148 107.444 251.002 107.627C247.907 108.131 239.769 100.452 235.597 105.679C232.961 105.816 232.938 106.664 231.929 108.292C229.293 109.323 230.554 108.819 229.156 110.859C227.322 110.286 225.19 108.131 223.196 107.673C222.37 107.971 221.866 108.452 221.132 108.842C220.513 109.163 219.115 109.576 218.542 109.759C212.696 111.662 208.043 112.579 202.083 114.137L201.67 117.759L204.238 118.997C204.604 121.152 203.94 124.614 203.917 126.86C203.848 131.88 205.384 139.056 202.885 141.99C199.997 145.405 202.174 144.695 202.358 147.698C199.148 151.182 195.389 153.406 191.125 155.652C188.535 157.051 188.947 156.317 188.42 159.481C188.03 161.842 189.108 162.117 189.108 164.73L189.2 184.215C189.268 197.58 189.108 193.797 195.756 203.265C197.383 205.58 197.36 204.549 196.581 207.712C195.595 211.655 192.776 220.251 192.501 223.323C195.87 224.813 199.767 226.257 203.481 227.243Z" fill="#E31E24"/>
<path fill-rule="evenodd" clip-rule="evenodd" d="M329.791 197.259C328.989 198.382 327.43 203.746 326.857 205.374L323.991 213.603C323.418 214.841 321.814 215.025 320.507 215.506C311.223 218.922 294.19 226.922 285.846 231.461C284.54 232.149 279.405 235.175 278.35 235.358C276.677 230.842 274.912 226.372 273.055 221.741C272 219.082 267.897 209.867 267.714 207.62C270.579 205.305 278.052 191.23 278.213 186.255L264.94 173.303C258.429 167.229 260.424 169.796 258.59 159.939C257.077 151.755 256.71 154.689 262.624 145.978C264.435 143.296 266.246 140.591 267.989 138.116C272.848 131.147 271.06 132.064 274.155 124.545C274.659 123.33 274.499 122.023 274.247 120.625C273.949 118.745 273.903 118.676 271.313 116.865C267.851 114.435 262.143 110.492 261.432 110.263C257.879 109.14 259.897 110.011 256.527 108.131C255.541 107.604 255.289 107.421 253.936 107.191C252.148 106.893 252.148 107.444 251.002 107.627C247.907 108.131 239.769 100.452 235.597 105.678C232.961 105.816 232.938 106.664 231.93 108.292C229.293 109.323 230.554 108.819 229.156 110.859C227.322 110.286 225.19 108.131 223.196 107.673C222.37 107.971 221.866 108.452 221.132 108.842C220.514 109.163 219.115 109.575 218.542 109.759C212.697 111.662 208.043 112.578 202.083 114.137L201.67 117.759L204.238 118.997C204.604 121.152 203.94 124.613 203.917 126.86C203.848 131.88 205.384 139.055 202.885 141.99C199.997 145.405 202.175 144.695 202.358 147.698C199.149 151.182 195.389 153.406 191.125 155.652C188.535 157.051 188.948 156.317 188.42 159.48C188.031 161.842 189.108 162.117 189.108 164.73L189.2 184.215C189.268 197.58 189.108 193.797 195.756 203.265C197.383 205.58 197.361 204.549 196.581 207.712C195.595 211.655 192.753 220.251 192.501 223.323C195.87 224.813 199.768 226.257 203.481 227.243C203.825 227.518 204.054 227.977 203.848 228.641L183.056 253.101C175.331 262.935 168.843 268.368 165.703 281.16C163.663 289.481 165.863 300.209 169.439 306.422L277.571 280.082L318.398 270.225C322.799 257.594 327.109 246.774 331.396 233.685L340.198 205.443C340.519 204.388 341.62 201.362 341.482 200.468C341.345 199.666 339.809 197.075 339.259 196.571C339.236 196.571 331.258 195.54 329.791 197.259ZM179.847 250.396L197.406 229.742L196.673 229.49C194.61 228.756 192.638 227.977 190.804 227.174L188.053 225.959L188.306 222.979C188.512 220.595 189.887 215.919 191.079 211.792C191.63 209.89 192.157 208.079 192.501 206.703L192.661 206.13L192.317 205.695C190.896 203.632 189.864 202.348 189.085 201.316C187.48 199.276 186.541 198.084 185.876 196.158C185.05 193.774 185.05 191.184 185.005 185.04C184.982 178.278 184.913 171.492 184.913 164.73C184.913 164.18 184.798 163.79 184.684 163.446C184.271 162.185 183.904 161.062 184.294 158.793L184.432 157.876C184.684 156.34 184.798 155.583 185.578 154.483C186.38 153.36 187.022 153.039 188.283 152.42L189.154 151.961C191.24 150.838 193.165 149.784 194.793 148.683C195.733 148.019 196.65 147.331 197.521 146.551C196.604 144.603 196.489 143.067 199.699 139.285C200.386 138.482 200.134 135.044 199.928 131.766C199.813 130.115 199.699 128.51 199.722 126.814C199.745 125.805 199.836 124.751 199.951 123.674C200.02 122.986 200.066 122.298 200.111 121.656L197.154 120.235L198.255 110.813L201.028 110.08C202.931 109.598 204.719 109.163 206.461 108.727C210.014 107.856 213.338 107.054 217.235 105.77C217.304 105.747 217.694 105.61 217.717 105.61C218.267 105.449 219.069 105.197 219.207 105.128C219.299 105.082 219.436 104.991 219.597 104.876C220.193 104.486 220.789 104.074 221.82 103.73L222.966 103.317L224.135 103.592C225.648 103.936 226.909 104.67 228.078 105.426C228.353 105.243 228.651 105.105 229.041 104.945C230.05 103.18 230.921 102.102 233.626 101.667C238.211 97.5405 243.666 100.177 248.182 102.332C249.397 102.905 250.062 103.478 250.314 103.501V103.478C251.369 103.042 252.309 102.675 254.647 103.065C256.595 103.386 257.077 103.661 258.406 104.395L258.544 104.463C259.644 105.059 260.057 105.312 260.332 105.472V105.495C260.538 105.61 260.515 105.61 260.584 105.633C260.653 105.678 260.63 105.655 260.859 105.724C261.111 105.793 261.524 105.908 262.693 106.274C263.427 106.527 264.963 107.444 266.774 108.659C268.951 110.103 271.725 112.028 273.72 113.427C275.347 114.573 276.195 115.192 276.952 116.155C277.96 117.461 278.121 118.309 278.396 119.937C278.534 120.762 278.648 121.587 278.671 122.573C278.694 123.765 278.534 124.934 278.029 126.149C277.066 128.488 276.585 130.046 276.218 131.284C275.393 134.012 274.957 135.433 271.427 140.5C270.9 141.256 269.96 142.631 268.791 144.328L266.086 148.317C264.94 150.036 264 151.32 263.266 152.328C262.349 153.612 261.845 154.3 261.799 154.437C261.799 154.46 261.937 155.194 262.258 156.775V156.798C262.326 157.165 262.395 157.509 262.716 159.182C263.129 161.498 263.358 163.125 263.541 164.363C263.702 165.578 263.794 166.266 263.908 166.495C264.023 166.77 264.733 167.412 266.361 168.902C271.817 173.968 277.112 179.332 282.431 184.536L282.385 186.37C282.293 189.327 280.459 194.256 278.19 198.886C276.333 202.623 274.132 206.337 272.298 208.721C273.055 210.921 274.705 214.864 275.851 217.592C276.379 218.784 276.791 219.816 276.952 220.183C277.823 222.36 278.717 224.607 279.68 227.083L280.642 229.581L283.852 227.77C288.276 225.363 295.199 221.971 302.168 218.761C308.426 215.873 314.638 213.191 319.063 211.563C319.544 211.403 319.865 211.288 320.186 211.196H320.209C320.92 210.99 322.387 205.488 322.914 203.953C323.006 203.7 323.258 202.921 323.533 202.05C324.335 199.551 325.436 196.158 326.375 194.829L326.605 194.531C327.957 192.949 330.204 192.307 332.611 192.124C335.912 191.895 340.703 192.651 340.703 192.651L341.505 192.949L342.101 193.499C342.674 194.049 343.568 195.31 344.233 196.479C344.875 197.603 345.471 198.909 345.608 199.803C345.883 201.5 345.058 204.09 344.485 205.832C341.368 215.506 338.571 225.34 335.384 234.991C332.771 242.923 330.204 249.96 327.613 257.044C325.802 261.973 323.968 266.947 322.341 271.601L321.607 273.755L278.556 284.163L167.376 311.236L165.795 308.508C163.686 304.817 161.989 299.751 161.21 294.478C160.499 289.71 160.522 284.667 161.645 280.174C164.373 269.056 169.256 263.21 175.262 256.012C176.775 254.178 178.38 252.253 179.755 250.511L179.847 250.396ZM250.337 103.501C250.406 103.478 250.36 103.478 250.314 103.478L250.337 103.501Z" fill="#FEFEFE"/>
<path fill-rule="evenodd" clip-rule="evenodd" d="M247.953 186.943C250.223 187.47 253.959 187.47 256.894 188.043L263.656 198.313C264.298 199.299 265.307 201.156 266.201 201.798C268.241 200.399 273.697 189.488 273.261 187.906C273.192 187.654 248.205 161.773 247.128 161.246C246.761 163.492 246.097 172.318 246.257 174.381L247.953 186.943Z" fill="white"/>
<path fill-rule="evenodd" clip-rule="evenodd" d="M247.678 221.902C250.383 223.094 249.397 220.71 251.804 221.42C252.309 221.558 252.973 221.81 253.936 222.2C257.719 223.667 253.18 226.509 258.704 229.283C259.025 229.444 259.002 229.352 259.232 229.558C261.134 230.98 261.134 241.387 262.212 245.032C263.77 244.573 269.364 240.928 271.06 239.943C272.779 238.911 274.292 238.659 274.407 236.16C274.476 234.556 274.04 233.387 273.123 232.699C271.473 231.461 271.083 232.882 271.61 229.742C271.817 228.504 271.977 227.381 270.808 226.143C269.547 224.79 268.057 224.561 266.842 223.185C266.384 220.87 267.392 218.807 266.957 216.744C266.567 214.772 264.848 214.245 263.793 213.168C263.472 210.715 264.046 210.852 263.014 208.606C255.839 208.812 248.549 214.245 246.807 219.357C246.165 221.237 246.165 221.214 247.678 221.902Z" fill="white"/>
<path fill-rule="evenodd" clip-rule="evenodd" d="M233.099 141.393C233.282 143.663 237.385 150.586 238.325 153.383C238.302 153.933 233.167 159.847 232.984 160.42C233.099 163.996 234.955 165.968 234.222 170.094C233.488 174.335 233.282 176.077 233.809 180.639C234.245 184.215 235.185 199.803 236.102 201.614C236.789 202.164 237.981 202.6 239.127 202.692C239.334 198.015 239.884 192.903 240.434 188.204C240.984 183.229 241.122 178.461 241.741 173.487L243.758 151.755C243.941 149.577 244.423 146.322 244.285 144.213C240.526 143.227 236.996 139.72 233.099 141.393Z" fill="white"/>
<path fill-rule="evenodd" clip-rule="evenodd" d="M211.275 154.185C211.917 155.492 214.553 157.028 215.562 158.518C215.791 161.704 215.654 161.246 216.708 163.653L222.76 176.811C223.517 178.484 224.25 179.309 224.273 181.51C224.296 183.94 224.548 194.806 225.03 196.709C225.373 198.061 225.236 198.359 225.97 199.138C226.428 197.74 227.941 181.441 227.482 178.828C227.116 176.834 226.68 174.679 226.268 172.776C224.457 164.592 223.173 156.248 221.362 148.179C220.376 148.156 218.473 148.156 217.557 148.362C215.906 148.683 212.055 152.878 211.275 154.185Z" fill="white"/>
<path fill-rule="evenodd" clip-rule="evenodd" d="M224.731 227.243C224.158 225.913 223.333 225.524 223.402 223.713C223.585 218.738 229.224 223.323 229.385 220.458C229.476 219.059 226.496 213.145 223.012 211.724C219.917 210.44 219.023 211.403 217.533 212.641C216.089 213.81 211.481 217.432 211.275 218.83C210.954 221.031 212.375 225.34 213.545 226.601C213.957 227.014 214.461 227.22 214.989 227.587C216.295 228.435 217.648 230.108 219.436 230.682C222.599 231.69 224.777 230.957 224.731 227.243Z" fill="white"/>
<path fill-rule="evenodd" clip-rule="evenodd" d="M278.533 247.645C279.542 248.998 280.161 248.562 282.224 247.462C289.101 243.84 304.575 234.785 319.682 232.836L319.842 225.363C314.272 225.845 293.021 236.665 287.13 240.034C285.732 240.837 281.743 243.244 279.244 244.894C277.319 246.178 277.662 246.43 278.533 247.645Z" fill="white"/>
<path fill-rule="evenodd" clip-rule="evenodd" d="M325.482 219.861C326.169 220.732 326.834 221.42 327.361 222.291C328.37 225.982 321.837 240.447 320.736 245.215C321.86 245.375 323.075 244.825 323.9 244.344C324.84 243.565 333.505 216.583 335.087 211.678C335.683 209.821 336.302 208.079 336.898 206.222C337.746 203.563 338.204 203.356 337.517 200.307L332.703 200.124C331.212 202.118 325.596 218.509 325.482 219.861Z" fill="white"/>
<path fill-rule="evenodd" clip-rule="evenodd" d="M215.814 113.014C215.86 115.513 217.51 117.713 218.29 120.143C219.619 124.27 218.519 124.522 216.8 127.227C215.333 129.519 210.381 137.519 211.39 141.096C212.628 141.118 213.476 139.491 214.003 138.78C216.479 135.571 228.628 118.905 229.339 116.59L224.296 111.501L215.814 113.014Z" fill="white"/>
<path fill-rule="evenodd" clip-rule="evenodd" d="M283.967 256.884C284.54 257.617 285.136 258.098 285.869 257.64C298.065 250.74 305.309 247.622 316.289 244.94L316.633 238.178C308.976 239.232 292.999 248.356 284.517 254.477C282.82 255.714 283.118 255.76 283.967 256.884Z" fill="white"/>
<path fill-rule="evenodd" clip-rule="evenodd" d="M202.45 203.425C204.352 205.787 203.802 202.898 206.599 206.13L205.567 208.262L206.026 209.225C208.272 209.684 209.51 209.202 209.785 211.816C208.823 213.695 207.287 214.475 208.593 216.836C210.06 216.836 213.293 214.016 214.118 213.283C214.76 212.732 215.929 211.563 216.387 210.967C217.098 210.073 217.809 209.248 217.854 207.598C216.617 206.337 212.903 198.887 211.023 196.502C209.808 196.64 207.241 198.52 206.026 199.23C204.742 199.964 202.839 202.004 202.45 203.425Z" fill="white"/>
<path fill-rule="evenodd" clip-rule="evenodd" d="M199.676 182.565C199.63 183.619 199.767 184.49 199.469 185.384C199.103 186.462 198.53 186.485 198.942 187.883C199.309 189.029 200.936 190.565 201.533 191.803C201.601 192.651 199.515 194.279 200.065 195.975C200.088 195.998 200.34 196.594 200.386 196.732C200.822 197.672 200.753 197.58 201.899 197.328C204.352 196.778 207.699 195.104 209.693 194.485C209.785 191.505 209.441 183.161 207.401 181.075C206.782 180.433 206.461 180.662 205.728 180.043C204.627 179.08 204.673 178.278 203.229 179.355C202.014 180.272 200.57 181.923 199.676 182.565Z" fill="white"/>
<path fill-rule="evenodd" clip-rule="evenodd" d="M261.089 120.396C265.559 122.069 263.564 122.161 261.639 128.213C261.203 129.565 261.57 130.322 260.286 130.963C259.163 131.514 258.246 131.307 257.306 132.27C257.008 135.434 260.653 133.347 262.029 132.683C263.633 131.903 265.169 131.032 266.98 129.794C271.932 126.379 271.359 125.576 270.785 118.722C269.066 117.897 262.258 112.945 260.951 112.945C260.309 114.894 260.951 118.355 261.089 120.396Z" fill="white"/>
<path fill-rule="evenodd" clip-rule="evenodd" d="M313.607 251.038C307.601 252.391 294.374 259.291 290.339 263.348C290.706 263.99 291.944 264.884 292.792 264.884C293.228 264.884 294.924 263.99 295.566 263.715C300.907 261.262 307.211 259.061 313.286 257.801L313.607 251.038Z" fill="white"/>
<path fill-rule="evenodd" clip-rule="evenodd" d="M193.372 159.32L197.406 163.744C198.277 164.707 200.684 167.366 201.83 168.054L205.452 161.085C206.094 159.847 207.08 158.655 206.507 157.096C206.003 155.79 205.613 154.346 204.788 153.383C203.091 153.956 200.615 155.377 198.965 156.225C197.658 156.867 194.036 158.38 193.372 159.32Z" fill="white"/>
<path fill-rule="evenodd" clip-rule="evenodd" d="M230.921 123.49C227.711 124.109 228.147 122.917 226.565 125.622C225.717 127.066 224.709 128.579 224.273 129.84C224.731 130.757 225.717 131.605 226.749 132.522C228.766 134.287 231.54 133.462 234.153 133.164C235.116 133.05 235.345 133.05 235.62 131.903C235.941 130.459 235.368 130.459 234.291 129.886L234.405 128.419C234.474 127.617 234.497 127.594 233.786 127.112C233.213 126.723 232.801 126.333 233.603 125.829C234.107 125.531 237.477 125.347 235.276 123.238C234.428 122.413 233.993 121.725 233.167 120.923C231.333 119.158 231.586 122.413 230.921 123.49Z" fill="white"/>
<path fill-rule="evenodd" clip-rule="evenodd" d="M239.38 124.155C239.472 126.356 238.371 127.456 238.348 129.634C239.907 130.849 239.517 132.27 239.334 134.562C241.626 133.921 241.833 132.041 245.707 130.711C246.051 130.597 245.982 130.665 246.28 130.482C247.105 130.023 246.509 129.703 247.816 126.86C246.922 125.53 245.088 124.568 243.827 123.078L243.873 120.533C242.36 120.533 241.283 120.716 239.861 120.533C238.669 120.35 237.523 120.052 236.331 120.258C236.698 120.533 238.784 123.284 239.38 124.155Z" fill="white"/>
<path fill-rule="evenodd" clip-rule="evenodd" d="M236.721 107.604C233.213 107.788 235.162 107.49 233.442 109.53C232.686 110.424 232.228 109.965 231.586 110.63C230.76 111.455 230.302 113.954 230.875 115.123L232.457 115.307L233.672 113.519C236.033 115.054 236.835 113.839 237.362 111.547L239.426 111.753L240.595 109.897C242.956 109.897 247.953 113.129 248.045 108.957C246.326 107.26 240.984 105.747 239.15 105.77C237.385 105.793 237.408 106.596 236.721 107.604Z" fill="white"/>
<path fill-rule="evenodd" clip-rule="evenodd" d="M251.827 109.209C252.171 110.79 253.271 111.065 252.859 112.67C251.713 117.392 249.558 118.218 246.142 119.754V121.266C247.495 121.221 250.452 120.35 251.208 119.708C253.042 118.126 256.664 113.725 255.77 111.065C254.945 108.567 252.859 108.498 251.827 109.209Z" fill="white"/>
<path fill-rule="evenodd" clip-rule="evenodd" d="M219.436 137.13L221.568 144.236C222.485 143.64 225.923 140.683 226.909 139.858C226.244 139.124 222.898 136.006 222.118 135.594L219.436 137.13Z" fill="white"/>
<path fill-rule="evenodd" clip-rule="evenodd" d="M241.122 112.968L241.168 115.329C240.182 115.329 236.446 115.237 236.262 116.659C236.148 117.667 236.881 117.599 239.976 117.897C241.03 118.011 242.589 117.828 243.529 117.415C245.34 116.613 246.555 114.412 244.859 112.303L241.122 112.968Z" fill="white"/>
<path fill-rule="evenodd" clip-rule="evenodd" d="M187.549 302.021L179.755 303.923C179.778 301.012 179.159 298.146 179.022 295.12C178.884 292.049 178.838 289.137 178.861 285.951C178.93 280.037 180.03 274.672 181.612 269.744L183.698 269.95L183.446 279.945C184.936 279.899 189.773 276.736 191.423 275.75C192.73 274.971 192.959 275.085 193.143 273.228C193.601 268.414 194.403 263.234 195.481 258.74L197.2 258.855L197.292 271.624C198.942 271.28 203.412 267.337 205.017 266.076C206.324 265.045 206.507 265.297 206.736 263.234C207.08 260.276 208.502 249.663 209.579 247.943C211.252 247.852 211.207 248.379 211.046 249.938C210.794 252.505 210.496 258.718 210.954 260.918L215.058 256.907C215.952 255.99 216.181 255.692 217.029 254.843C217.9 253.972 218.473 253.628 218.725 252.184C219.299 249.021 220.307 240.241 221.614 238.063L223.035 238.017C222.989 241.158 222.141 244.826 222.508 248.264C224.044 246.82 230.829 237.421 231.311 235.358C224.411 224.194 238.898 226.785 239.242 233.731C239.471 238.155 235.024 236.871 234.497 237.444C233.626 239.828 233.741 246.614 233.993 249.64C234.337 253.949 235.047 256.975 235.895 260.849L240.48 254.225C245.982 244.917 244.263 247.737 242.795 244.757C240.893 240.929 244.285 238.178 248.297 240.058C252.102 241.846 254.693 248.494 247.907 248.631C248.435 254.064 250.796 259.107 252.102 264.288C253.638 262.798 256.596 257.801 257.123 255.921C256.435 254.683 254.395 252.666 255.793 250.327C257.788 246.981 264.55 249.548 265.1 253.789C265.444 256.563 263.587 257.388 261.203 257.617C261.937 260.276 265.903 266.214 267.805 268.644C268.631 267.566 270.121 264.907 270.648 263.692C266.017 260.804 268.791 254.27 274.751 257.182C277.25 258.397 278.74 261.606 277.41 263.715C276.608 264.999 274.224 265.182 272.459 264.701C271.794 265.939 270.121 270.569 270.121 271.601C270.166 271.692 276.356 279.257 277.617 280.083L269.593 282.077C269.158 281.045 267.943 279.395 267.026 278.845L264.986 283.223L254.968 285.676C254.097 284.071 252.034 280.541 251.071 277.171C250.91 276.185 250.383 276.369 249.948 277.125L245.248 283.498L247.518 287.51L224.319 293.218L222.027 287.051C221.018 287.808 218.038 290.857 217.533 291.888L218.817 294.456L195.297 300.141C194.495 294.524 193.028 291.361 192.615 285.195C190.461 286.341 187.297 288.404 185.051 289.688C184.959 292.049 186.953 299.43 187.549 302.021ZM242.199 278.134L249.122 269.973C247.564 263.188 246.738 257.182 245.317 250.969C245.157 252.712 240.045 261.858 239.036 263.6C237.408 266.397 237.363 266.787 238.807 270.088C239.861 272.495 240.939 276.163 242.199 278.134ZM227.666 280.243C228.033 282.421 231.081 288.794 232.182 290.008C232.915 289.619 236.331 285.47 236.996 284.598C236.95 283.521 235.529 280.151 235.093 278.959C234.612 277.63 233.786 274.076 232.984 273.274L227.666 280.243ZM258.613 280.564C259.942 279.945 263.885 274.971 264.573 274.031C264.16 272.472 261.226 267.108 259.942 262.729C259.621 261.56 259.209 259.635 258.75 258.672C258.109 260.437 257.237 262.523 256.504 264.288C253.982 270.157 252.057 268.666 258.613 280.564ZM211.527 269.033C211.527 271.647 212.215 274.879 212.742 277.286L214.462 283.888C214.668 284.3 214.691 284.186 214.851 284.392C215.539 283.957 219.253 280.541 219.918 279.716C219.39 277.721 217.556 266.099 217.992 261.927L211.527 269.033ZM198.3 281.068C198.323 285.378 200.318 291.59 201.624 295.143L208.937 289.321C208.02 285.745 206.691 279.188 206.324 274.443C203.894 276.644 198.942 280.358 198.3 281.068ZM225.557 273.893C225.969 273.366 231.448 267.772 231.769 266.81C230.325 260.735 230.096 250.442 230.738 244.253C228.835 247.485 224.135 253.055 222.829 256.035C221.751 258.511 224.754 271.371 225.557 273.893Z" fill="#FEFEFE"/>
<path d="M59.6802 332.715L413.462 246.43V252.069L59.6802 338.354V332.715Z" fill="#FEFEFE"/>
<path fill-rule="evenodd" clip-rule="evenodd" d="M233.396 379.457C233.717 373.863 234.015 368.293 234.336 362.699L238.738 361.622L244.812 329.804L238.692 331.317L238.738 322.056C251.552 318.938 264.366 315.797 277.158 312.68L277.112 321.918L271.839 323.202L271.679 353.599C273.857 353.072 276.012 352.544 278.166 352.017L278.098 368.568L268.401 370.929L268.424 363.616L243.116 369.783L243.07 377.096C239.861 377.875 236.629 378.677 233.396 379.457ZM117.127 379.594L119.534 360.315L122.652 359.559L125.884 377.462L117.127 379.594ZM136.956 386.288L128.153 349.037L113.803 352.636C111.373 366.39 108.943 380.144 106.49 393.922L103.212 394.747L103.465 404.169L114.399 401.418L116.05 388.191L127.351 385.417L129.575 397.635L140.624 394.862L140.372 385.44L136.956 386.288ZM382.607 286.959L391.96 312.68L401.794 282.283L413.462 279.44L413.417 288.656L408.052 289.962L390.493 341.151L380.521 343.581L387.123 324.807L376.028 297.802L369.311 299.43L369.174 329.827L374.423 328.52L374.377 337.781L359.431 341.426L359.523 321.23L345.975 324.531L345.86 344.727L330.914 348.372L330.96 339.134L336.232 337.85L336.393 307.476L331.12 308.76L331.166 299.499L346.112 295.854L346.021 315.293L359.569 311.992L359.683 292.553L382.607 286.959ZM325.871 349.61L310.902 353.255L311.062 324.05L297.537 356.51L282.384 360.201L282.43 350.963C284.195 350.527 285.96 350.114 287.703 349.679L287.863 319.305L282.591 320.589L282.637 311.35L297.606 307.682L297.468 336.704L310.97 304.427L326.123 300.737L326.077 309.975L320.805 311.259L320.644 341.655L325.917 340.372L325.871 349.61ZM262.143 325.586L254.051 327.557L248.159 359.33L261.982 355.96L262.143 325.586ZM86.8448 395.297C88.3578 392.294 88.885 388.741 87.9452 385.577C87.1658 382.987 85.2402 381.336 82.5122 380.901C79.6926 380.442 76.9876 381.222 74.2826 381.887C74.2368 381.887 73.2969 382.116 73.2969 382.116C73.251 381.933 73.274 381.061 73.274 380.924V374.391C73.274 374.299 73.3198 373.107 73.3427 373.061C73.5949 373.015 74.0075 372.901 74.3055 372.832L76.4833 372.282C80.793 371.204 84.392 369.072 86.203 364.877C86.9365 363.181 87.3033 361.278 87.3033 359.146C87.3033 356.052 86.2946 352.98 83.0853 352.04C80.1282 351.192 75.4059 352.659 72.7238 354.264C71.9444 354.745 71.2337 355.249 70.5002 355.822C70.5002 359.055 70.4773 362.287 70.4773 365.519L60.8493 367.926L60.8722 352.521C60.8722 352.521 61.9267 351.146 64.7234 349.22C69.6979 345.805 76.5979 342.939 82.4893 342.252C86.0883 341.816 89.4123 341.999 92.5299 344.017C94.3409 345.186 95.6705 346.745 96.4499 348.785C96.8396 349.77 97.1147 350.802 97.298 351.902C97.7794 354.63 97.6419 357.656 97.023 360.338C96.2665 363.479 94.7535 366.436 92.5758 368.82C90.7189 370.837 88.7246 372.075 86.478 373.565C88.7933 373.542 90.4668 373.382 92.6904 374.207C95.5329 375.262 97.3668 378.013 98.2838 380.763C98.8339 382.437 99.109 384.385 99.109 386.655C99.0861 389.727 98.6047 392.546 97.6419 395.16C96.0602 399.423 93.6761 402.908 90.1229 405.75C86.478 408.707 82.1684 410.564 77.6295 411.688C73.8471 412.627 69.652 413.269 65.7091 412.902C64.1962 412.742 60.4596 412.169 59.6802 410.954L59.7031 395.87L69.354 393.463C69.3311 396.695 69.3311 399.928 69.3311 403.16C76.0936 404.306 83.5896 401.624 86.8448 395.297ZM219.642 326.503C221.224 326.113 222.553 325.93 223.723 325.953C230.256 325.976 230.508 331.729 230.485 336.681L230.37 358.573C230.325 366.642 229.82 373.359 219.482 375.881L207.905 378.7C206.117 379.136 204.558 379.365 203.183 379.365C198.552 379.342 196.26 376.431 196.306 368.476L196.42 344.567C196.466 335.535 199.584 331.386 208.157 329.3L219.642 326.503ZM206.323 338.973L206.163 369.898L220.467 366.39L220.628 335.489L206.323 338.973ZM168.178 331.615L168.064 353.507L174.597 351.902C175.078 351.788 175.56 351.673 176.041 351.536C180.351 350.298 181.566 348.418 181.612 341.724L181.635 335.558C181.657 331.156 180.947 329.483 178.288 329.483C177.394 329.46 176.27 329.643 174.872 329.987L168.178 331.615ZM174.941 319.58L176.729 319.144C179.182 318.548 181.245 318.273 182.987 318.273C190.506 318.319 191.836 323.66 191.813 330.744L191.767 340.624C191.698 354.332 186.494 359.192 176.889 361.53L168.018 363.708L167.926 378.265L181.428 374.964L181.382 384.844L152.177 391.973L152.223 382.093L157.588 380.786L157.817 333.609L152.453 334.916L152.498 325.036L155.364 324.348L174.941 319.58Z" fill="#FEFEFE"/>
<path d="M491.472 124.224H479.62V164.019H472.331V117.644H491.472V124.224ZM522.786 164.019H515.175L513.272 154.827H502.521L500.71 164.019H493.031L504.424 117.644H511.53L522.786 164.019ZM511.92 148.248L507.931 128.831L503.965 148.248H511.92ZM554.031 131.765C554.031 136.625 553.091 140.201 551.211 142.448C549.309 144.717 546.283 145.841 542.11 145.841H537.755V164.019H530.465V117.644H542.11C546.283 117.644 549.309 118.768 551.211 121.037C553.091 123.284 554.031 126.86 554.031 131.765ZM545.709 137.405C546.397 136.167 546.741 134.287 546.741 131.765C546.741 129.244 546.397 127.364 545.709 126.103C544.999 124.842 543.738 124.224 541.858 124.224H537.755V139.262H541.858C543.738 139.262 544.999 138.643 545.709 137.405ZM586.605 164.019H578.972L577.092 154.827H566.341L564.507 164.019H556.828L568.221 117.644H575.327L586.605 164.019ZM575.717 148.248L571.751 128.831L567.762 148.248H575.717ZM617.919 164.019H610.607V143.755H601.552V164.019H594.262V117.644H601.552V137.175H610.607V117.644H617.919V164.019ZM649.416 124.224H641.6V164.019H634.31V124.224H626.562V117.644H649.416V124.224ZM693.384 150.723C693.384 153.451 693.155 155.583 692.719 157.096C692.284 158.632 691.505 159.962 690.381 161.085C688.433 163.033 685.384 164.019 681.258 164.019H669.727V117.644H681.326C685.453 117.644 688.456 118.584 690.313 120.51C691.39 121.587 692.169 122.825 692.605 124.224C693.018 125.599 693.247 127.547 693.247 130.023C693.247 133.576 692.353 136.259 690.565 138.092C689.831 138.826 689.029 139.376 688.158 139.72C689.212 140.201 690.06 140.752 690.702 141.416C692.49 143.227 693.384 146.345 693.384 150.723ZM686.072 150.196C686.072 147.652 685.636 145.795 684.788 144.672C683.917 143.548 682.495 142.975 680.547 142.975H677.017V157.44H680.547C682.541 157.44 683.963 156.89 684.811 155.812C685.659 154.712 686.072 152.855 686.072 150.196ZM685.957 130.459C685.957 128.212 685.544 126.608 684.742 125.645C683.94 124.705 682.587 124.224 680.685 124.224H677.017V136.786H680.685C682.541 136.786 683.894 136.281 684.719 135.296C685.544 134.287 685.957 132.682 685.957 130.459ZM730.544 164.019H722.475L711.219 139.858L721.626 117.644H729.306L718.692 139.514L730.544 164.019ZM711.081 164.019H703.792V117.644H711.081V164.019ZM761.605 117.644L749.364 156.133C748.332 159.343 746.98 161.452 745.33 162.483C743.679 163.492 740.974 164.019 737.192 164.019V157.509C739.186 157.509 740.63 157.165 741.547 156.5C742.464 155.812 743.175 154.575 743.702 152.741L744.733 148.958L734.578 117.644H742.533L748.126 139.078L753.674 117.644H761.605ZM791.498 151.709C791.36 156.088 790.077 159.389 787.647 161.612C785.561 163.561 782.902 164.523 779.646 164.523C775.864 164.523 772.861 163.217 770.66 160.558C769.216 158.815 768.299 156.592 767.886 153.887C767.474 151.182 767.267 146.826 767.267 140.82C767.267 134.837 767.474 130.482 767.886 127.777C768.299 125.049 769.216 122.825 770.66 121.083C772.861 118.447 775.864 117.117 779.646 117.117C782.947 117.117 785.652 118.126 787.784 120.12C790.122 122.252 791.36 125.507 791.498 129.886H784.208C784.116 127.8 783.75 126.31 783.085 125.393C782.397 124.269 781.251 123.696 779.646 123.696C778.088 123.696 776.918 124.292 776.185 125.461C775.543 126.493 775.107 128.166 774.878 130.436C774.672 132.705 774.557 136.19 774.557 140.82C774.557 145.474 774.672 148.935 774.878 151.205C775.107 153.497 775.543 155.148 776.185 156.202C776.918 157.371 778.088 157.944 779.646 157.944C781.251 157.944 782.397 157.394 783.085 156.271C783.75 155.262 784.116 153.749 784.208 151.709H791.498ZM826.457 164.019H818.846L816.943 154.827H806.192L804.381 164.019H796.702L808.095 117.644H815.201L826.457 164.019ZM815.591 148.248L811.602 128.831L807.636 148.248H815.591Z" fill="white"/>
<path d="M502.59 337.965C502.407 343.696 500.756 347.983 497.593 350.871C494.865 353.415 491.38 354.676 487.139 354.676C482.234 354.676 478.337 352.957 475.448 349.518C473.568 347.249 472.376 344.361 471.849 340.807C471.299 337.277 471.024 331.615 471.024 323.821C471.024 316.004 471.299 310.342 471.849 306.811C472.376 303.281 473.568 300.37 475.448 298.1C478.337 294.662 482.234 292.943 487.139 292.943C491.449 292.943 494.979 294.226 497.753 296.84C500.802 299.613 502.407 303.854 502.59 309.562H493.077C492.962 306.857 492.481 304.886 491.632 303.717C490.738 302.227 489.248 301.493 487.139 301.493C485.122 301.493 483.609 302.273 482.646 303.786C481.798 305.161 481.248 307.316 480.95 310.273C480.675 313.253 480.537 317.769 480.537 323.821C480.537 329.85 480.675 334.366 480.95 337.346C481.248 340.303 481.798 342.481 482.646 343.833C483.609 345.346 485.122 346.126 487.139 346.126C489.248 346.126 490.738 345.392 491.632 343.902C492.481 342.618 492.962 340.624 493.077 337.965H502.59ZM544.563 354.011H535.577V304.129L526.499 311.098V300.92L535.577 293.607H544.563V354.011ZM585.207 311.946C585.207 317.242 584.382 322.01 582.731 326.182L572.141 354.011H562.811L572.737 329.575C571.82 330.262 570.605 330.606 569.092 330.606C565.699 330.606 562.994 329.346 561.023 326.87C559.899 325.403 559.097 323.638 558.638 321.551C558.203 319.488 557.974 316.279 557.974 311.946C557.974 308.095 558.203 305.161 558.638 303.167C559.097 301.149 559.853 299.361 560.931 297.78C563.2 294.547 566.753 292.943 571.636 292.943C576.427 292.943 579.958 294.547 582.227 297.78C583.35 299.476 584.13 301.333 584.565 303.373C584.978 305.413 585.207 308.256 585.207 311.946ZM574.846 321.689C575.763 320.566 576.198 317.356 576.198 312.107C576.198 306.857 575.763 303.648 574.846 302.525C574.066 301.493 572.989 300.989 571.636 300.989C570.215 300.989 569.115 301.493 568.312 302.525C567.418 303.648 566.96 306.857 566.96 312.107C566.96 317.356 567.418 320.566 568.312 321.689C569.115 322.698 570.215 323.225 571.636 323.225C572.989 323.225 574.066 322.698 574.846 321.689ZM620.556 344.59H616.406V354.011H607.42V344.59H590.617V336.544L606.137 293.607H614.893L599.878 336.544H607.42V325.769H616.406V336.544H620.556V344.59ZM653.566 301.081L637.703 354.011H628.716L644.58 301.677H634.058V309.723H625.392V293.607H653.566V301.081ZM701.82 302.181H686.393V354.011H676.879V293.607H701.82V302.181ZM738.636 306.72C739.14 310.25 739.392 315.958 739.392 323.821C739.392 331.661 739.14 337.369 738.636 340.899C738.131 344.429 736.917 347.295 734.991 349.518C732.103 352.957 728.205 354.676 723.277 354.676C718.371 354.676 714.451 352.957 711.586 349.518C709.706 347.249 708.514 344.361 707.964 340.807C707.437 337.277 707.161 331.615 707.161 323.821C707.161 316.004 707.437 310.342 707.964 306.811C708.514 303.281 709.706 300.37 711.586 298.1C714.451 294.662 718.371 292.943 723.277 292.943C728.205 292.943 732.103 294.662 734.991 298.1C736.917 300.324 738.131 303.19 738.636 306.72ZM729.512 337.346C729.764 334.366 729.902 329.85 729.902 323.821C729.902 317.769 729.764 313.253 729.512 310.273C729.26 307.316 728.71 305.161 727.862 303.786C726.899 302.273 725.363 301.493 723.277 301.493C721.237 301.493 719.747 302.273 718.784 303.786C717.363 306.055 716.652 312.726 716.652 323.821C716.652 334.893 717.363 341.564 718.784 343.833C719.747 345.346 721.237 346.126 723.277 346.126C725.363 346.126 726.899 345.346 727.862 343.833C728.71 342.481 729.26 340.303 729.512 337.346ZM785.102 365.45H776.116V354.011H751.702V365.45H742.693V345.438H746.613C749.937 336.956 751.611 327.214 751.611 316.187V293.607H780.105V345.438H785.102V365.45ZM770.614 345.438V302.089H760.688V318.548C760.688 328.566 759.221 337.529 756.264 345.438H770.614ZM826.502 354.011H816.577L814.124 342.045H800.117L797.756 354.011H787.738L802.593 293.607H811.831L826.502 354.011ZM812.336 333.472L807.155 308.21L801.997 333.472H812.336Z" fill="white"/>
<path d="M478.772 251.909H472.331V205.557H479.62V233.937L489.982 205.557H496.492V251.909H489.202V223.529L478.772 251.909ZM539.337 205.557L527.095 244.046C526.064 247.255 524.711 249.364 523.061 250.396C521.41 251.405 518.705 251.909 514.923 251.909V245.399C516.917 245.399 518.361 245.078 519.278 244.39C520.195 243.725 520.906 242.487 521.433 240.653L522.465 236.871L512.31 205.557H520.264L525.857 226.968L531.405 205.557H539.337ZM567.143 238.636C567.143 241.364 566.937 243.496 566.501 245.009C566.066 246.545 565.286 247.851 564.163 248.998C562.192 250.946 559.166 251.909 555.039 251.909H543.509V205.557H555.108C559.234 205.557 562.215 206.497 564.094 208.422C565.172 209.5 565.928 210.738 566.364 212.136C566.799 213.512 567.029 215.437 567.029 217.913C567.029 221.489 566.135 224.171 564.346 226.005C563.613 226.739 562.811 227.289 561.939 227.633C562.994 228.114 563.842 228.664 564.484 229.329C566.272 231.14 567.143 234.258 567.143 238.636ZM559.853 238.109C559.853 235.541 559.418 233.707 558.547 232.584C557.699 231.438 556.277 230.888 554.329 230.888H550.799V245.353H554.329C556.323 245.353 557.744 244.802 558.593 243.725C559.441 242.625 559.853 240.768 559.853 238.109ZM559.739 218.371C559.739 216.125 559.326 214.52 558.524 213.557C557.722 212.595 556.369 212.136 554.443 212.136H550.799V224.698H554.443C556.323 224.698 557.676 224.194 558.501 223.208C559.326 222.2 559.739 220.595 559.739 218.371ZM593.735 251.909H574.25V205.557H593.735V212.136H581.539V225.271H592.038V231.851H581.539V245.353H593.735V251.909ZM623.627 219.678C623.627 224.538 622.687 228.114 620.785 230.361C618.905 232.63 615.879 233.753 611.707 233.753H607.329V251.909H600.039V205.557H611.707C615.879 205.557 618.905 206.68 620.785 208.927C622.687 211.196 623.627 214.772 623.627 219.678ZM615.283 225.317C615.971 224.079 616.338 222.2 616.338 219.678C616.338 217.156 615.971 215.277 615.283 214.016C614.595 212.755 613.312 212.136 611.432 212.136H607.329V227.174H611.432C613.312 227.174 614.595 226.555 615.283 225.317ZM649.027 251.909H629.542V205.557H649.027V212.136H636.831V225.271H647.33V231.851H636.831V245.353H649.027V251.909ZM678.988 251.909H671.675V231.667H662.644V251.909H655.331V205.557H662.644V225.088H671.675V205.557H678.988V251.909ZM710.44 251.909H703.15V231.667H694.095V251.909H686.805V205.557H694.095V225.088H703.15V205.557H710.44V251.909ZM741.18 215.621C741.57 218.326 741.776 222.704 741.776 228.733C741.776 234.762 741.57 239.14 741.18 241.868C740.791 244.573 739.851 246.774 738.384 248.47C736.16 251.107 733.18 252.436 729.397 252.436C725.615 252.436 722.612 251.107 720.411 248.47C718.967 246.728 718.05 244.504 717.638 241.799C717.225 239.072 717.019 234.716 717.019 228.733C717.019 222.75 717.225 218.394 717.638 215.666C718.05 212.961 718.967 210.738 720.411 208.996C722.612 206.359 725.615 205.03 729.397 205.03C733.18 205.03 736.16 206.359 738.384 208.996C739.851 210.692 740.791 212.893 741.18 215.621ZM734.189 239.117C734.372 236.848 734.464 233.386 734.464 228.733C734.464 224.079 734.372 220.618 734.189 218.348C733.982 216.056 733.57 214.406 732.905 213.374C732.171 212.182 731.002 211.609 729.397 211.609C727.839 211.609 726.67 212.182 725.936 213.374C724.859 215.093 724.308 220.228 724.308 228.733C724.308 237.238 724.859 242.373 725.936 244.115C726.67 245.284 727.839 245.857 729.397 245.857C731.002 245.857 732.171 245.284 732.905 244.115C733.57 243.06 733.982 241.41 734.189 239.117ZM771.348 239.622C771.21 244 769.927 247.301 767.497 249.502C765.411 251.473 762.752 252.436 759.473 252.436C755.714 252.436 752.711 251.107 750.487 248.47C749.066 246.728 748.149 244.504 747.736 241.799C747.324 239.072 747.118 234.716 747.118 228.733C747.118 222.75 747.324 218.394 747.736 215.666C748.149 212.961 749.066 210.738 750.487 208.996C752.711 206.359 755.714 205.03 759.473 205.03C762.774 205.03 765.502 206.016 767.634 208.033C769.973 210.142 771.21 213.397 771.348 217.798H764.035C763.966 215.712 763.577 214.199 762.935 213.305C762.247 212.159 761.078 211.609 759.473 211.609C757.915 211.609 756.768 212.182 756.035 213.374C755.37 214.406 754.957 216.056 754.728 218.348C754.522 220.618 754.407 224.079 754.407 228.733C754.407 233.386 754.522 236.848 754.728 239.117C754.957 241.41 755.37 243.06 756.035 244.115C756.768 245.284 757.915 245.857 759.473 245.857C761.078 245.857 762.247 245.307 762.935 244.161C763.577 243.175 763.966 241.662 764.035 239.622H771.348ZM797.068 212.136H789.251V251.909H781.962V212.136H774.213V205.557H797.068V212.136ZM808.782 251.909H802.341V205.557H809.631V233.937L819.992 205.557H826.502V251.909H819.213V223.529L808.782 251.909Z" fill="white"/>
</g>
<defs>
<clipPath id="clip0_11_103">
<rect width="886" height="472" fill="white"/>
</clipPath>
</defs>
</svg>
