<svg width="139" height="227" viewBox="0 0 139 227" fill="none" xmlns="http://www.w3.org/2000/svg">
<path fill-rule="evenodd" clip-rule="evenodd" d="M0 0.14624H139V224.62H134.654C134.654 222.236 132.715 220.301 130.316 220.301C127.91 220.301 125.971 222.236 125.971 224.62H117.279C117.279 222.236 115.34 220.301 112.941 220.301C110.535 220.301 108.596 222.236 108.596 224.62H99.9044C99.9044 222.236 97.9646 220.301 95.5663 220.301C93.1604 220.301 91.2206 222.236 91.2206 224.62H82.5294C82.5294 222.236 80.5896 220.301 78.1913 220.301C75.7854 220.301 73.8456 222.236 73.8456 224.62H65.1544C65.1544 222.236 63.2146 220.301 60.8163 220.301C58.4104 220.301 56.4706 222.236 56.4706 224.62H47.7794C47.7794 222.236 45.8396 220.301 43.4413 220.301C41.0354 220.301 39.0956 222.236 39.0956 224.62H30.4044C30.4044 222.236 28.4646 220.301 26.0663 220.301C23.6604 220.301 21.7206 222.236 21.7206 224.62H13.0294C13.0294 222.236 11.0896 220.301 8.69126 220.301C6.28537 220.301 4.34563 222.236 4.34563 224.62H0L0 0.14624Z" fill="#E31E24"/>
<path fill-rule="evenodd" clip-rule="evenodd" d="M69.5 17.4133L72.4397 41.6292L80.3941 18.549L78.1988 42.8471L90.8146 21.9113L83.5744 45.2156L100.31 27.3433L88.3336 48.6452L108.453 34.6133L92.2732 52.9862L114.889 43.4L96.5812 57.021L97.1376 57.6636L119.347 53.3299L97.0323 63.5886L121.625 63.9622L97.6488 69.3942L116.234 73.6082L113.708 74.5646L110.498 74.998L97.0323 75.1997L101.385 77.1947L96.7993 78.831L44.9149 91.4208L41.5617 91.6674L46.7268 85.8021L24.1115 95.3809L43.7871 80.7512L19.6531 85.4584L41.9677 75.1997L17.375 74.8261L41.3511 69.3942L17.375 63.9622L41.9677 63.5886L19.6531 53.3299L43.7871 58.0371L24.1115 43.4L46.7268 52.9862L30.5472 34.6133L50.6664 48.6452L38.6896 27.3433L55.4256 45.2156L48.1854 21.9113L60.8012 42.8471L58.6058 18.549L66.5603 41.6292L69.5 17.4133Z" fill="white"/>
<path fill-rule="evenodd" clip-rule="evenodd" d="M59.7787 66.652C59.8764 66.7267 59.9441 66.8687 59.884 67.063L53.764 74.2209C51.4859 77.0975 49.5762 78.689 48.6515 82.4323C48.05 84.8681 48.7041 88.0062 49.7567 89.8219L81.5971 82.1185L93.619 79.2269C94.9121 75.5284 96.1827 72.3679 97.4458 68.5349L100.04 60.2712C100.137 59.9648 100.461 59.0757 100.416 58.8142C100.378 58.5825 99.9269 57.8279 99.7615 57.6785C99.7615 57.6785 97.4082 57.3721 96.9797 57.8727C96.7391 58.2015 96.2805 59.778 96.1076 60.2487L95.273 62.6621C95.1001 63.0207 94.6264 63.0731 94.243 63.215C91.5063 64.2162 86.4915 66.5624 84.033 67.8849C83.6496 68.0866 82.1309 68.9757 81.8226 69.0206C81.3339 67.7055 80.8152 66.398 80.2663 65.0381C79.9581 64.2611 78.7476 61.5638 78.695 60.9062C79.537 60.2338 81.7399 56.1094 81.785 54.6599L77.8755 50.8642C75.9583 49.0934 76.5447 49.8406 76.0109 46.9491C75.5598 44.5581 75.4545 45.4173 77.1913 42.8695C77.7251 42.0775 78.2664 41.2929 78.7777 40.5682C80.2062 38.5284 79.6799 38.7974 80.5971 36.5932C80.74 36.2346 80.6873 35.8535 80.6197 35.4501C80.5295 34.9046 80.5144 34.8747 79.7551 34.3442C78.7326 33.6344 77.056 32.4838 76.8454 32.4165C75.7929 32.0878 76.3943 32.3418 75.3944 31.7964C75.1087 31.6395 75.0335 31.5872 74.6426 31.5199C74.1163 31.4303 74.1088 31.5872 73.7704 31.6469C72.8607 31.7964 70.4699 29.5474 69.2368 31.0716C68.4624 31.1164 68.4549 31.363 68.1617 31.8412C67.3798 32.1401 67.7482 31.9906 67.3347 32.5959C66.8009 32.424 66.1693 31.7964 65.5829 31.6619C65.3423 31.7441 65.1919 31.886 64.9739 31.9981C64.7935 32.0952 64.38 32.2148 64.2146 32.2671C62.4928 32.8275 61.117 33.0965 59.3652 33.5522L59.2449 34.6057L60.0043 34.9719C60.1095 35.607 59.914 36.6156 59.9065 37.2732C59.884 38.7451 60.3351 40.8446 59.6058 41.7039C58.7562 42.6976 59.3953 42.4959 59.4479 43.3701C58.5006 44.3937 57.3954 45.0438 56.1398 45.7013C55.3729 46.1047 55.5007 45.8955 55.3429 46.822C55.2301 47.5094 55.5458 47.5916 55.5458 48.3612L55.5684 54.0621C55.591 57.9699 55.5459 56.864 57.5006 59.6361C57.9818 60.3085 57.9743 60.0096 57.7412 60.9361C57.4555 62.0868 56.621 64.6048 56.5458 65.5088C57.5382 65.9422 58.6885 66.3606 59.7787 66.652Z" fill="#E31E24"/>
<path fill-rule="evenodd" clip-rule="evenodd" d="M96.9796 57.8728C96.739 58.2016 96.2804 59.7781 96.1075 60.2488L95.2729 62.6622C95.1 63.0208 94.6263 63.0806 94.2429 63.2151C91.5062 64.2163 86.4914 66.5625 84.0329 67.8849C83.6495 68.0867 82.1308 68.9758 81.8225 69.0206C81.3338 67.7056 80.8151 66.3981 80.2662 65.0382C79.958 64.2612 78.7475 61.5639 78.6949 60.9063C79.5369 60.2339 81.7398 56.1095 81.7849 54.66L77.8754 50.8643C75.9582 49.0935 76.5446 49.8407 76.0108 46.9491C75.5597 44.5582 75.4544 45.4174 77.1912 42.8696C77.725 42.0776 78.2663 41.293 78.7776 40.5683C80.2061 38.5285 79.6798 38.7975 80.597 36.5933C80.7399 36.2347 80.6872 35.8536 80.6196 35.4501C80.5294 34.9047 80.5143 34.8748 79.755 34.3443C78.7325 33.6345 77.0559 32.4839 76.8453 32.4166C75.7928 32.0879 76.3942 32.3419 75.3943 31.7965C75.1086 31.6396 75.0334 31.5873 74.6425 31.52C74.1162 31.4304 74.1087 31.5873 73.7703 31.647C72.8606 31.7965 70.4697 29.5475 69.2367 31.0717C68.4623 31.1165 68.4548 31.3631 68.1616 31.8413C67.3797 32.1402 67.7481 31.9907 67.3346 32.5959C66.8008 32.4241 66.1692 31.7965 65.5828 31.662C65.3422 31.7442 65.1918 31.8861 64.9738 31.9982C64.7934 32.0953 64.3799 32.2149 64.2145 32.2672C62.4927 32.8276 61.1169 33.0966 59.3651 33.5523L59.2448 34.6058L60.0042 34.972C60.1094 35.6071 59.9139 36.6157 59.9064 37.2733C59.8839 38.7452 60.335 40.8447 59.6057 41.704C58.7561 42.6977 59.3952 42.496 59.4478 43.3702C58.5005 44.3938 57.3953 45.0439 56.1397 45.7014C55.3728 46.1048 55.5006 45.8956 55.3428 46.8221C55.23 47.5095 55.5457 47.5917 55.5457 48.3613L55.5683 54.0622C55.5909 57.97 55.5458 56.8641 57.5005 59.6362C57.9817 60.3161 57.9742 60.0097 57.7411 60.9362C57.4554 62.0869 56.6209 64.6049 56.5457 65.5089C57.5381 65.9423 58.6884 66.3607 59.7786 66.6521C59.8763 66.7268 59.944 66.8688 59.8839 67.0631L53.7639 74.221C51.4858 77.0976 49.5761 78.6891 48.6514 82.4324C48.0499 84.8682 48.704 88.0063 49.7566 89.8219L81.597 82.1186L93.6189 79.227C94.912 75.5285 96.1826 72.368 97.4457 68.535L100.04 60.2712C100.137 59.9649 100.461 59.0758 100.416 58.8143C100.378 58.5826 99.9268 57.828 99.7614 57.6786C99.7614 57.6786 97.4081 57.3722 96.9796 57.8728ZM52.8166 73.4215L57.9892 67.3843L57.7712 67.3096C57.1697 67.1004 56.5833 66.8613 56.0495 66.6297L55.2375 66.2785L55.3127 65.4043C55.3728 64.7095 55.7713 63.3421 56.1247 62.1317C56.2901 61.5713 56.448 61.0483 56.5457 60.6448L56.5908 60.473L56.4931 60.346C56.072 59.7408 55.7713 59.3672 55.5382 59.0683C55.0646 58.4631 54.7864 58.1119 54.5909 57.5515C54.3503 56.8567 54.3503 56.0946 54.3428 54.3013C54.3278 52.3213 54.3127 50.3338 54.3127 48.3538C54.3127 48.1969 54.2751 48.0848 54.2451 47.9802C54.1173 47.6141 54.012 47.2854 54.1248 46.6204L54.1699 46.3514C54.2451 45.9031 54.2751 45.679 54.5082 45.3577C54.7413 45.0289 54.9368 44.9318 55.3052 44.7525L55.5608 44.6254V44.618C56.1773 44.2892 56.7412 43.9754 57.2148 43.6541C57.5005 43.4673 57.7637 43.2656 58.0268 43.0414C57.7486 42.4661 57.7186 42.0178 58.6584 40.912C58.8614 40.6729 58.7937 39.6642 58.7335 38.7078C58.696 38.2296 58.6659 37.7514 58.6734 37.2583C58.6734 36.9594 58.7035 36.6531 58.7335 36.3393C58.7561 36.1375 58.7787 35.9358 58.7862 35.749L57.914 35.3306L58.2373 32.581L59.0568 32.3643C59.6207 32.2149 60.147 32.0879 60.6583 31.9683C61.7033 31.7143 62.6807 31.4752 63.831 31.1016C63.8461 31.0941 63.9588 31.0568 63.9739 31.0568C64.1317 31.0045 64.3723 30.9297 64.4099 30.9148C64.4325 30.8999 64.4776 30.87 64.5227 30.8401C64.7031 30.7205 64.8761 30.6085 65.1768 30.5039L65.5151 30.3843L65.861 30.4665C66.3046 30.5636 66.673 30.7728 67.0263 30.997C67.1015 30.9522 67.1917 30.9073 67.3045 30.855C67.6052 30.3395 67.8533 30.0257 68.6503 29.8987C70.0036 28.6957 71.6125 29.4578 72.9433 30.0929C73.2967 30.2648 73.4997 30.4291 73.5673 30.4366L73.5748 30.4291C73.5673 30.4291 73.5673 30.4291 73.5748 30.4291C73.8831 30.3021 74.1613 30.1975 74.8455 30.3096C75.4244 30.4067 75.5597 30.4814 75.9507 30.6981L75.9882 30.7205H75.9958C76.3191 30.8924 76.4394 30.9671 76.5221 31.0119V31.0194C76.5822 31.0568 76.5747 31.0568 76.5897 31.0642H76.5972C76.6123 31.0717 76.6123 31.0642 76.6799 31.0867C76.7551 31.1091 76.8679 31.139 77.2213 31.251C77.4318 31.3183 77.8829 31.5947 78.4167 31.9459C79.0558 32.3643 79.8753 32.9322 80.4617 33.3431C80.9429 33.6793 81.191 33.8587 81.4165 34.1426C81.7097 34.5237 81.7549 34.7702 81.8376 35.2484C81.8827 35.4875 81.9203 35.7341 81.9203 36.018C81.9278 36.3692 81.8827 36.7129 81.7323 37.064C81.4466 37.7514 81.3113 38.2072 81.1985 38.5733C80.9579 39.3653 80.8301 39.7838 79.785 41.2706C79.6347 41.4873 79.3565 41.8908 79.0106 42.3839L78.2137 43.557C77.8754 44.0501 77.6047 44.4312 77.3867 44.73C77.116 45.1036 76.9656 45.3054 76.9506 45.3502C76.9506 45.3502 76.9957 45.5669 77.0859 46.0301V46.0376C77.1085 46.1422 77.131 46.2393 77.2213 46.7325C77.3491 47.4124 77.4167 47.8906 77.4619 48.2492C77.5145 48.6079 77.537 48.8021 77.5746 48.8694C77.6122 48.9516 77.8152 49.1384 78.2889 49.5792C79.9053 51.0586 81.4616 52.6277 83.033 54.1594L83.0179 54.6899C82.9879 55.5566 82.4465 56.9986 81.7774 58.351C81.2361 59.4419 80.582 60.5328 80.0407 61.2351C80.2662 61.8702 80.7549 63.0283 81.0932 63.8203C81.2436 64.179 81.3714 64.4778 81.4165 64.5824C81.6722 65.2175 81.9353 65.875 82.2135 66.5998L82.4992 67.332L83.4465 66.8015C84.7547 66.0992 86.7922 65.1055 88.8447 64.1715C90.6792 63.3272 92.5137 62.5427 93.8144 62.0645C93.9572 62.0122 94.0549 61.9823 94.1527 61.9524C94.3632 61.8926 94.7917 60.2862 94.9496 59.8379C94.9797 59.7557 95.0474 59.539 95.1301 59.2775C95.3707 58.5453 95.694 57.5515 95.9646 57.1705L96.0398 57.0808C96.4383 56.6176 97.0999 56.4233 97.7991 56.3785C98.784 56.3038 100.19 56.5279 100.19 56.5279L100.431 56.6176L100.603 56.7745C100.769 56.9314 101.032 57.305 101.235 57.6487C101.423 57.9774 101.588 58.3585 101.633 58.62C101.716 59.1206 101.468 59.8752 101.303 60.3833C100.385 63.2151 99.5584 66.0917 98.6186 68.916C97.8517 71.2398 97.0999 73.302 96.333 75.3716C95.7992 76.8137 95.2654 78.2706 94.7842 79.6305L94.5662 80.2656L81.8902 83.3066L49.1401 91.2341L48.6815 90.4346C48.0574 89.3512 47.5612 87.8718 47.3281 86.3327C47.1252 84.9354 47.1327 83.456 47.456 82.141C48.2604 78.8908 49.6964 77.1723 51.4633 75.0728C51.9144 74.5348 52.388 73.9744 52.7865 73.4663L52.8166 73.4215ZM73.5748 30.4366C73.5974 30.4291 73.5824 30.4291 73.5748 30.4291V30.4366Z" fill="white"/>
<path fill-rule="evenodd" clip-rule="evenodd" d="M72.8754 54.8542C73.5445 55.0111 74.6422 55.0111 75.5068 55.1755L77.4992 58.1866C77.6872 58.4705 77.9879 59.016 78.2511 59.2028C78.845 58.7918 80.4539 55.6014 80.3337 55.1381C80.3111 55.0634 72.9506 47.4946 72.6273 47.3376C72.5296 47.9952 72.3266 50.5804 72.3717 51.1781L72.8754 54.8542Z" fill="white"/>
<path fill-rule="evenodd" clip-rule="evenodd" d="M72.7926 65.0831C73.5895 65.4417 73.3038 64.7394 74.0106 64.9486C74.1534 64.9934 74.3489 65.0606 74.6346 65.1727C75.7473 65.6061 74.409 66.4354 76.0405 67.2499C76.1308 67.2947 76.1232 67.2723 76.1984 67.3246C76.7548 67.743 76.7548 70.7915 77.0781 71.8599C77.5292 71.7254 79.1832 70.657 79.6794 70.3656C80.1907 70.0667 80.6343 69.992 80.6643 69.2598C80.6794 68.789 80.5591 68.4528 80.2884 68.2436C79.7997 67.885 79.687 68.3034 79.8448 67.3769C79.905 67.0257 79.9501 66.6895 79.6043 66.3308C79.2358 65.9348 78.7923 65.8676 78.4389 65.4641C78.3036 64.7842 78.5968 64.179 78.4765 63.5812C78.3562 62.9984 77.8449 62.849 77.5367 62.5352C77.4465 61.8179 77.6194 61.8553 77.3111 61.1978C75.1985 61.2575 73.0482 62.849 72.537 64.3434C72.349 64.8888 72.349 64.8888 72.7926 65.0831Z" fill="white"/>
<path fill-rule="evenodd" clip-rule="evenodd" d="M68.4985 41.5248C68.5512 42.1973 69.7616 44.2146 70.0398 45.0365C70.0323 45.1934 68.5136 46.9269 68.4609 47.0913C68.4985 48.1448 69.0474 48.7201 68.8293 49.9231C68.6113 51.1634 68.5512 51.6789 68.709 53.0089C68.8369 54.0624 69.115 58.6201 69.3782 59.1506C69.5887 59.3075 69.9345 59.442 70.2729 59.4645C70.3405 58.0971 70.4984 56.6028 70.6563 55.228C70.8217 53.771 70.8593 52.3738 71.0397 50.9168L71.6337 44.5583C71.6938 43.9232 71.8292 42.9669 71.7916 42.3467C70.6864 42.0628 69.6488 41.0392 68.4985 41.5248Z" fill="white"/>
<path fill-rule="evenodd" clip-rule="evenodd" d="M62.0703 45.268C62.2583 45.6566 63.0327 46.1049 63.3409 46.5382C63.4011 47.4722 63.3635 47.3302 63.6717 48.0401L65.4536 51.8955C65.6791 52.3811 65.8972 52.6277 65.8972 53.2703C65.9047 53.9801 65.9799 57.1556 66.1227 57.716C66.228 58.112 66.1829 58.2016 66.4009 58.4258C66.5362 58.0148 66.9798 53.2479 66.8445 52.4857C66.7392 51.8955 66.6114 51.2678 66.4836 50.7075C65.9573 48.3165 65.5739 45.8733 65.0401 43.5122C64.7469 43.5047 64.198 43.5047 63.9198 43.5645C63.4387 43.6616 62.3034 44.887 62.0703 45.268Z" fill="white"/>
<path fill-rule="evenodd" clip-rule="evenodd" d="M66.0407 66.6524C65.8678 66.2639 65.6272 66.1443 65.6422 65.6213C65.6948 64.1643 67.3639 65.5092 67.409 64.6649C67.4316 64.2615 66.5519 62.528 65.5294 62.1096C64.6197 61.736 64.3566 62.0199 63.913 62.3786C63.492 62.7223 62.1311 63.7833 62.071 64.1942C61.9808 64.8368 62.4018 66.092 62.7476 66.4581C62.8604 66.5852 63.0108 66.6449 63.1687 66.7495C63.5521 67.0036 63.9506 67.4892 64.4769 67.6611C65.4091 67.9525 66.0482 67.7433 66.0407 66.6524Z" fill="white"/>
<path fill-rule="evenodd" clip-rule="evenodd" d="M81.8827 72.6219C82.1759 73.0179 82.3564 72.8909 82.9729 72.5696C84.9878 71.5087 89.5439 68.8637 94.0023 68.2883L94.0475 66.0991C92.4084 66.2411 86.1456 69.4016 84.4089 70.3954C84.0029 70.627 82.8225 71.3368 82.0857 71.8225C81.5218 72.1886 81.6271 72.2708 81.8827 72.6219Z" fill="white"/>
<path fill-rule="evenodd" clip-rule="evenodd" d="M95.709 64.4928C95.912 64.7469 96.1074 64.9486 96.2578 65.2027C96.5585 66.2786 94.6338 70.5225 94.3105 71.9123C94.6414 71.9571 94.9947 71.7927 95.2353 71.6582C95.521 71.4266 98.0697 63.5365 98.5359 62.1019C98.7088 61.5564 98.8892 61.0409 99.0697 60.4955C99.3178 59.7259 99.4531 59.6661 99.2501 58.762L97.8291 58.7097C97.3931 59.3 95.739 64.0968 95.709 64.4928Z" fill="white"/>
<path fill-rule="evenodd" clip-rule="evenodd" d="M63.4095 33.2237C63.4246 33.9559 63.9057 34.5985 64.1388 35.3083C64.5298 36.5113 64.2065 36.586 63.7028 37.3855C63.2667 38.0579 61.8081 40.3891 62.1089 41.4426C62.4697 41.4426 62.7178 40.9719 62.8757 40.7627C63.605 39.8212 67.1838 34.9497 67.3943 34.2697L65.9056 32.7754L63.4095 33.2237Z" fill="white"/>
<path fill-rule="evenodd" clip-rule="evenodd" d="M83.4775 75.3194C83.6505 75.5436 83.8309 75.678 84.0414 75.551C87.6352 73.5337 89.7704 72.6146 93.0033 71.8301L93.1011 69.8501C90.8456 70.1639 86.139 72.8238 83.6429 74.6245C83.1467 74.9832 83.2369 74.9981 83.4775 75.3194Z" fill="white"/>
<path fill-rule="evenodd" clip-rule="evenodd" d="M59.4766 59.6807C60.0329 60.3756 59.8675 59.5238 60.6945 60.4728L60.3863 61.1004L60.5291 61.3768C61.1832 61.5113 61.5516 61.3694 61.6343 62.139C61.3486 62.6919 60.8975 62.916 61.281 63.6109C61.717 63.6034 62.6719 62.7815 62.9125 62.5648C63.1004 62.4079 63.4388 62.0642 63.5816 61.8849C63.7846 61.6234 63.9951 61.3843 64.0102 60.9061C63.6418 60.5325 62.5516 58.3508 61.9952 57.6484C61.6419 57.6933 60.8825 58.2462 60.5216 58.4554C60.1457 58.6721 59.5893 59.2698 59.4766 59.6807Z" fill="white"/>
<path fill-rule="evenodd" clip-rule="evenodd" d="M58.6592 53.5764C58.6441 53.8827 58.6892 54.1368 58.599 54.3983C58.4863 54.7196 58.3208 54.7196 58.4487 55.1305C58.5464 55.4742 59.0351 55.915 59.208 56.2737C59.2231 56.5277 58.6141 57.0059 58.7719 57.499C58.7795 57.5065 58.8547 57.6784 58.8697 57.7157C58.9975 57.9997 58.9749 57.9698 59.3133 57.895C60.035 57.7381 61.02 57.245 61.6064 57.0657C61.6365 56.1915 61.5387 53.7482 60.9297 53.1356C60.7493 52.9562 60.6591 53.016 60.441 52.8367C60.1102 52.5602 60.1328 52.3211 59.7042 52.6349C59.3509 52.9039 58.9223 53.3821 58.6592 53.5764Z" fill="white"/>
<path fill-rule="evenodd" clip-rule="evenodd" d="M76.7392 35.3829C78.0549 35.8761 77.476 35.8985 76.9046 37.6693C76.7768 38.0653 76.8895 38.2894 76.5061 38.4762C76.1753 38.6406 75.9046 38.5808 75.6264 38.8573C75.5362 39.7838 76.6114 39.1711 77.0174 38.9768C77.491 38.7527 77.9421 38.4986 78.4759 38.1325C79.9345 37.1313 79.7691 36.8997 79.5962 34.8898C79.0924 34.6507 77.085 33.2012 76.7016 33.2012C76.5136 33.7765 76.7016 34.7852 76.7392 35.3829Z" fill="white"/>
<path fill-rule="evenodd" clip-rule="evenodd" d="M92.2122 73.6157C90.4379 74.0117 86.5434 76.0291 85.3555 77.2171C85.4682 77.4039 85.8291 77.6654 86.0772 77.6654C86.2126 77.6654 86.7088 77.4114 86.8967 77.3217C88.4681 76.6044 90.3251 75.9618 92.1145 75.5957L92.2122 73.6157Z" fill="white"/>
<path fill-rule="evenodd" clip-rule="evenodd" d="M56.8008 46.7775L57.9887 48.0701C58.2443 48.3466 58.9586 49.1311 59.2894 49.3329L60.357 47.2931C60.5449 46.927 60.8382 46.5833 60.6652 46.1275C60.5224 45.739 60.4021 45.3131 60.169 45.0366C59.6653 45.201 58.936 45.6194 58.4473 45.866C58.0639 46.0602 56.9963 46.4936 56.8008 46.7775Z" fill="white"/>
<path fill-rule="evenodd" clip-rule="evenodd" d="M67.8607 36.2869C66.9134 36.4737 67.0412 36.1225 66.5751 36.9145C66.327 37.3329 66.0263 37.7738 65.8984 38.1474C66.0413 38.4089 66.327 38.6629 66.6277 38.9244C67.2217 39.4474 68.0412 39.2009 68.8156 39.1187C69.0938 39.0888 69.1614 39.0888 69.2441 38.7451C69.3343 38.3267 69.1689 38.3267 68.8532 38.1623L68.8908 37.7289C68.9058 37.4973 68.9058 37.4824 68.7028 37.3479C68.5299 37.2283 68.4096 37.1163 68.6502 36.9743C68.793 36.8846 69.7854 36.8323 69.1389 36.2122C68.8908 35.9731 68.7629 35.7713 68.5224 35.5397C67.981 35.0167 68.0562 35.9656 67.8607 36.2869Z" fill="white"/>
<path fill-rule="evenodd" clip-rule="evenodd" d="M70.3498 36.481C70.3723 37.1236 70.0566 37.4449 70.0415 38.0875C70.5077 38.4461 70.3949 38.8571 70.3422 39.522C71.0114 39.3353 71.0715 38.7898 72.2143 38.4013C72.3121 38.3639 72.2895 38.3863 72.3873 38.334C72.6278 38.1995 72.4474 38.1024 72.8384 37.2731C72.5752 36.8845 72.0339 36.6006 71.658 36.1672L71.673 35.4275C71.2294 35.4201 70.9061 35.4724 70.4926 35.4201C70.1393 35.3678 69.8009 35.2781 69.4551 35.3453C69.5603 35.4201 70.1768 36.227 70.3498 36.481Z" fill="white"/>
<path fill-rule="evenodd" clip-rule="evenodd" d="M69.5676 31.6321C68.5301 31.6919 69.109 31.6023 68.6053 32.2C68.3797 32.4615 68.2444 32.3345 68.0564 32.5213C67.8083 32.7679 67.6805 33.5001 67.8459 33.8363L68.3121 33.8886L68.6654 33.3731C69.3646 33.8214 69.6052 33.4627 69.7556 32.7977L70.3646 32.8575L70.7029 32.3121C71.4021 32.3121 72.8757 33.2535 72.8983 32.0356C72.3946 31.535 70.8232 31.0942 70.2819 31.1017C69.7631 31.1091 69.7706 31.3408 69.5676 31.6321Z" fill="white"/>
<path fill-rule="evenodd" clip-rule="evenodd" d="M74.0109 32.1104C74.1161 32.5736 74.4394 32.6484 74.3191 33.1191C73.9808 34.5013 73.3493 34.7404 72.3418 35.1962V35.637C72.7403 35.6221 73.6124 35.3681 73.8304 35.1813C74.3793 34.718 75.4394 33.4329 75.1762 32.6558C74.9281 31.9236 74.3191 31.9012 74.0109 32.1104Z" fill="white"/>
<path fill-rule="evenodd" clip-rule="evenodd" d="M64.4785 40.2769L65.1101 42.3615C65.3732 42.1822 66.3882 41.323 66.6814 41.0764C66.4859 40.8672 65.501 39.9556 65.2679 39.8286L64.4785 40.2769Z" fill="white"/>
<path fill-rule="evenodd" clip-rule="evenodd" d="M70.8609 33.2086L70.8759 33.896C70.5827 33.9034 69.485 33.8736 69.4324 34.292C69.4023 34.5834 69.6128 34.561 70.5301 34.6506C70.8383 34.6805 71.297 34.6282 71.5676 34.5087C72.1014 34.2696 72.4623 33.6345 71.9661 33.0068L70.8609 33.2086Z" fill="white"/>
<path fill-rule="evenodd" clip-rule="evenodd" d="M55.0873 88.5367L52.7867 89.0897C52.7942 88.2379 52.6137 87.401 52.5761 86.5194C52.531 85.6153 52.516 84.7635 52.531 83.8296C52.5536 82.1036 52.8694 80.5345 53.343 79.0925L53.952 79.1522L53.8843 82.0737C54.3129 82.0588 55.7414 81.1397 56.2301 80.8483C56.6135 80.6167 56.6812 80.6541 56.7338 80.1086C56.8691 78.6965 57.1022 77.1872 57.4255 75.8647L57.9292 75.902L57.9593 79.6379C58.4405 79.5408 59.7562 78.3827 60.2299 78.0165C60.6133 77.7177 60.6659 77.7924 60.7336 77.1797C60.8388 76.3205 61.2524 73.2122 61.5757 72.7116C62.0643 72.6817 62.0493 72.8386 62.0042 73.2944C61.9365 74.0491 61.8463 75.8647 61.9741 76.5072L63.1846 75.3342C63.4552 75.0652 63.5154 74.9755 63.771 74.729C64.0266 74.4749 64.1921 74.3703 64.2672 73.9519C64.4326 73.018 64.7334 70.4551 65.1243 69.8126L65.5378 69.8051C65.5228 70.7241 65.2747 71.8001 65.38 72.8013C65.8311 72.3754 67.831 69.6258 67.9738 69.0206C65.9438 65.7629 70.2068 66.5175 70.312 68.5499C70.3722 69.8425 69.064 69.4689 68.9136 69.6333C68.658 70.3356 68.688 72.3156 68.7632 73.2047C68.861 74.4675 69.079 75.3491 69.3196 76.4848L70.6804 74.5497C72.2894 71.8299 71.7856 72.6518 71.3571 71.7776C70.7932 70.6569 71.7931 69.8499 72.981 70.4028C74.0938 70.9259 74.8606 72.876 72.8608 72.9059C73.0186 74.5048 73.7103 75.9768 74.0938 77.4935C74.5524 77.0527 75.4245 75.5957 75.5749 75.0428C75.3719 74.6841 74.7704 74.0864 75.1839 73.4065C75.7704 72.4277 77.7627 73.1823 77.9206 74.4226C78.0259 75.2296 77.477 75.4762 76.7778 75.5434C76.9884 76.313 78.1612 78.0539 78.7176 78.7712C78.9582 78.4499 79.4018 77.6728 79.5596 77.3217C78.1913 76.4699 79.0108 74.5571 80.7626 75.4089C81.5069 75.7676 81.9355 76.709 81.552 77.3291C81.3189 77.7027 80.6122 77.755 80.0934 77.6205C79.8904 77.9717 79.4093 79.3316 79.4018 79.6304C79.4168 79.6603 81.2362 81.872 81.6122 82.1185L79.2439 82.7013C79.1161 82.395 78.7627 81.9168 78.492 81.7524L77.8906 83.0301L74.9358 83.7548C74.6802 83.2841 74.0787 82.253 73.793 81.2593C73.7479 80.9753 73.59 81.0277 73.4622 81.2443L72.0788 83.1197L72.748 84.2853L65.9138 85.959L65.2371 84.1583C64.9439 84.375 64.0642 85.2641 63.9214 85.5705L64.2898 86.3251L57.3729 87.9913C57.1323 86.3475 56.7037 85.4136 56.5759 83.6129C55.9444 83.9491 55.0121 84.5468 54.3505 84.9279C54.3279 85.6153 54.9068 87.7746 55.0873 88.5367ZM71.1766 81.5432L73.2216 79.1597C72.763 77.1722 72.5149 75.4164 72.1014 73.5933C72.0488 74.1014 70.5526 76.7837 70.2519 77.2918C69.7707 78.1062 69.7557 78.2258 70.1842 79.1896C70.4925 79.8919 70.8158 80.9679 71.1766 81.5432ZM66.8987 82.1634C67.0114 82.7985 67.9061 84.6664 68.2294 85.025C68.4475 84.9055 69.4474 83.6951 69.6504 83.4336C69.6354 83.1272 69.2143 82.1335 69.0865 81.7823C68.9437 81.4012 68.7031 80.3627 68.47 80.1236L66.8987 82.1634ZM76.011 82.253C76.4019 82.0737 77.5673 80.6242 77.7703 80.3477C77.65 79.8919 76.7778 78.3229 76.4094 77.0377C76.3042 76.694 76.1914 76.1262 76.0561 75.8497C75.8681 76.3653 75.6125 76.978 75.3945 77.4861C74.6501 79.212 74.0863 78.7712 76.011 82.253ZM62.1471 78.8833C62.1471 79.6454 62.35 80.5943 62.5004 81.2966L63.0117 83.2318C63.0793 83.3439 63.0793 83.3215 63.132 83.3738C63.3274 83.2542 64.4251 82.253 64.6206 82.0064C64.4627 81.4237 63.9214 78.024 64.0567 76.8061L62.1471 78.8833ZM58.2525 82.4024C58.26 83.6652 58.8465 85.4808 59.2374 86.5194L61.3802 84.8158C61.117 83.7773 60.7186 81.857 60.6208 80.4673C59.899 81.1098 58.4405 82.1932 58.2525 82.4024ZM66.2822 80.3029C66.4025 80.1535 68.0114 78.5097 68.1091 78.2332C67.6806 76.455 67.6129 73.4364 67.8009 71.6282C67.2445 72.5696 65.8611 74.206 65.4777 75.0727C65.1619 75.8049 66.0416 79.5632 66.2822 80.3029Z" fill="white"/>
<path d="M17.4355 97.5179L121.618 72.2634V73.9147L17.4355 99.1691V97.5179Z" fill="white"/>
<path fill-rule="evenodd" clip-rule="evenodd" d="M68.5907 111.198C68.6809 109.562 68.7711 107.926 68.8689 106.289L70.162 105.976L71.9514 96.6658L70.147 97.1066L70.162 94.3944C73.9287 93.4828 77.703 92.5713 81.4772 91.6523L81.4622 94.357L79.9058 94.7381L79.8607 103.629C80.4998 103.473 81.1389 103.316 81.7779 103.166L81.7479 108.008L78.8984 108.703L78.9059 106.558L71.4552 108.367L71.4401 110.511C70.4928 110.735 69.538 110.967 68.5907 111.198ZM34.3444 111.243L35.0587 105.602L35.9759 105.378L36.9307 110.616L34.3444 111.243ZM40.1862 113.201L37.5924 102.299L33.367 103.346C32.6528 107.373 31.9385 111.4 31.2168 115.427L30.2469 115.674L30.3221 118.431L33.5399 117.624L34.0286 113.754L37.3593 112.947L38.0134 116.518L41.2688 115.704L41.1937 112.947L40.1862 113.201ZM112.528 84.1282L115.287 91.6597L118.182 82.7609L121.618 81.9241L121.603 84.6214L120.024 85.0024L114.851 99.9833L111.919 100.701L113.859 95.2013L110.588 87.2963L108.619 87.7819L108.573 96.6733L110.122 96.2922L110.107 98.997L105.701 100.065L105.732 94.1628L101.739 95.1266L101.709 101.037L97.3034 102.105L97.3184 99.393L98.8747 99.0194L98.9199 90.128L97.3636 90.5016L97.3786 87.7969L101.784 86.7359L101.754 92.4219L105.747 91.458L105.777 85.7645L112.528 84.1282ZM95.8223 102.464L91.4165 103.532L91.4616 94.9772L87.4769 104.481L83.0185 105.565L83.0335 102.86C83.5523 102.733 84.071 102.606 84.5823 102.486L84.6274 93.5949L83.0786 93.9685L83.0936 91.2637L87.4994 90.1953L87.4543 98.6832L91.4315 89.2389L95.8975 88.163L95.8824 90.8677L94.3261 91.2413L94.281 100.133L95.8373 99.7591L95.8223 102.464ZM77.0564 95.433L74.673 96.0083L72.9363 105.311L77.0113 104.317L77.0564 95.433ZM25.4276 115.831C25.8787 114.957 26.0366 113.918 25.7509 112.992C25.5253 112.229 24.9539 111.751 24.1495 111.617C23.3224 111.49 22.5255 111.714 21.7361 111.908C21.721 111.908 21.4428 111.975 21.4428 111.975C21.4278 111.923 21.4278 111.662 21.4278 111.624L21.4353 109.719C21.4353 109.689 21.4504 109.338 21.4579 109.323C21.5331 109.308 21.6534 109.278 21.7361 109.256L22.3826 109.099C23.6533 108.785 24.7058 108.157 25.2396 106.932C25.4577 106.439 25.5629 105.878 25.5629 105.251C25.5629 104.354 25.2697 103.45 24.3224 103.174C23.4503 102.92 22.0594 103.353 21.2774 103.824C21.0369 103.966 20.8339 104.115 20.6158 104.279C20.6158 105.228 20.6158 106.17 20.6083 107.119L17.7739 107.821L17.7814 103.316C17.7814 103.316 18.0896 102.912 18.9167 102.352C20.3828 101.351 22.4127 100.506 24.1495 100.312C25.202 100.185 26.187 100.23 27.1042 100.828C27.638 101.171 28.0365 101.627 28.262 102.217C28.3748 102.509 28.4575 102.815 28.5101 103.136C28.653 103.928 28.6154 104.817 28.4274 105.602C28.2019 106.521 27.7583 107.388 27.1192 108.083C26.5779 108.68 25.984 109.039 25.3223 109.472C25.999 109.465 26.4952 109.42 27.1493 109.659C27.9914 109.965 28.5252 110.78 28.7958 111.587C28.9612 112.073 29.0439 112.64 29.0364 113.305C29.0364 114.202 28.8936 115.031 28.6079 115.793C28.1417 117.041 27.4425 118.057 26.3975 118.894C25.3223 119.761 24.0517 120.299 22.7135 120.628C21.6007 120.904 20.3677 121.098 19.2099 120.986C18.7663 120.941 17.6611 120.77 17.4355 120.411V116.003L20.2775 115.3C20.2775 116.242 20.27 117.191 20.27 118.132C22.2624 118.468 24.4728 117.691 25.4276 115.831ZM64.5383 95.702C65.0044 95.5899 65.3954 95.5376 65.7412 95.5376C67.6659 95.545 67.7411 97.2262 67.7336 98.6832L67.696 105.086C67.6885 107.448 67.5381 109.413 64.4856 110.152L61.0798 110.974C60.561 111.101 60.0949 111.168 59.6964 111.168C58.3281 111.161 57.6514 110.317 57.6665 107.985L57.6965 100.992C57.7116 98.3469 58.6288 97.1291 61.155 96.5164L64.5383 95.702ZM60.6137 99.3482L60.5686 108.396L64.7789 107.38L64.824 98.332L60.6137 99.3482ZM49.3812 97.1963L49.3511 103.6L51.2758 103.136C51.4187 103.099 51.5615 103.069 51.6969 103.024C52.9675 102.666 53.3283 102.113 53.3359 100.155L53.3434 98.3469C53.3509 97.0618 53.1404 96.5761 52.3585 96.5687C52.0953 96.5687 51.7645 96.621 51.3585 96.7181L49.3812 97.1963ZM51.3736 93.6696L51.8998 93.5426C52.6216 93.3708 53.2306 93.2886 53.7419 93.2886C55.9598 93.3035 56.3507 94.8651 56.3432 96.9423L56.3282 99.8338C56.3056 103.839 54.7719 105.266 51.9525 105.953L49.3361 106.588L49.3135 110.847L53.2832 109.883L53.2682 112.775L44.6672 114.859L44.6822 111.968L46.2611 111.587L46.3362 97.7791L44.7499 98.1676L44.7649 95.2761L45.607 95.0669L51.3736 93.6696Z" fill="white"/>
<path d="M23.1779 140.211H19.6893V151.852H17.5391V138.283H23.1779V140.211ZM32.4029 151.852H30.1549L29.5986 149.17H26.4333L25.8995 151.852H23.6365L26.9897 138.283H29.0798L32.4029 151.852ZM29.2001 147.242L28.0272 141.564L26.8543 147.242H29.2001ZM41.6054 142.423C41.6054 143.842 41.3272 144.888 40.7709 145.546C40.2145 146.204 39.3198 146.54 38.0943 146.54H36.8087V151.852H34.6584V138.283H38.0943C39.3198 138.283 40.2145 138.612 40.7709 139.277C41.3272 139.935 41.6054 140.981 41.6054 142.423ZM39.1469 144.067C39.3499 143.708 39.4552 143.155 39.4552 142.423C39.4552 141.683 39.3499 141.13 39.1469 140.764C38.9439 140.391 38.568 140.211 38.0192 140.211H36.8087V144.612H38.0192C38.568 144.612 38.9439 144.433 39.1469 144.067ZM51.1914 151.852H48.9434L48.387 149.17H45.2218L44.688 151.852H42.4249L45.7781 138.283H47.8682L51.1914 151.852ZM47.9885 147.242L46.8157 141.564L45.6503 147.242H47.9885ZM60.4089 151.852H58.2662V145.927H55.5972V151.852H53.4469V138.283H55.5972V143.999H58.2662V138.283H60.4089V151.852ZM69.6941 140.211H67.3935V151.852H65.2432V140.211H62.9577V138.283H69.6941V140.211ZM82.6333 147.967C82.6333 148.766 82.5731 149.386 82.4453 149.835C82.3175 150.283 82.0844 150.664 81.7536 151C81.1747 151.568 80.28 151.852 79.0696 151.852H75.6713V138.283H79.0846C80.3026 138.283 81.1822 138.56 81.7311 139.12C82.0544 139.442 82.2799 139.8 82.4077 140.211C82.5355 140.615 82.5957 141.183 82.5957 141.907C82.5957 142.946 82.3326 143.738 81.8138 144.268C81.5957 144.485 81.3552 144.642 81.0995 144.747C81.4078 144.888 81.6559 145.053 81.8514 145.24C82.3701 145.778 82.6333 146.682 82.6333 147.967ZM80.4905 147.817C80.4905 147.063 80.3627 146.525 80.1071 146.196C79.8515 145.867 79.4305 145.695 78.8591 145.695H77.8215V149.932H78.8591C79.4455 149.932 79.8665 149.768 80.1146 149.454C80.3627 149.132 80.4905 148.587 80.4905 147.817ZM80.4454 142.042C80.4454 141.377 80.3327 140.906 80.0921 140.63C79.859 140.346 79.4605 140.211 78.8966 140.211H77.8215V143.887H78.8966C79.4455 143.887 79.844 143.745 80.0845 143.446C80.3251 143.155 80.4454 142.684 80.4454 142.042ZM93.5876 151.852H91.2042L87.8886 144.784L90.9561 138.283H93.2192L90.0915 144.687L93.5876 151.852ZM87.851 151.852H85.7008V138.283H87.851V151.852ZM102.73 138.283L99.1211 149.551C98.8204 150.492 98.4219 151.105 97.9332 151.404C97.452 151.703 96.6476 151.852 95.5348 151.852V149.947C96.1288 149.947 96.5573 149.85 96.8205 149.655C97.0911 149.454 97.3017 149.095 97.452 148.557L97.7603 147.451L94.768 138.283H97.1062L98.7602 144.552L100.392 138.283H102.73ZM111.526 148.251C111.489 149.536 111.113 150.5 110.399 151.15C109.782 151.725 109 152.009 108.038 152.009C106.925 152.009 106.046 151.621 105.391 150.843C104.97 150.335 104.7 149.685 104.579 148.893C104.459 148.094 104.392 146.824 104.392 145.068C104.392 143.319 104.459 142.042 104.579 141.25C104.7 140.45 104.97 139.8 105.391 139.292C106.046 138.523 106.925 138.134 108.038 138.134C109.008 138.134 109.812 138.425 110.436 139.008C111.128 139.628 111.489 140.585 111.526 141.87H109.384C109.354 141.257 109.248 140.816 109.053 140.555C108.85 140.219 108.512 140.054 108.038 140.054C107.579 140.054 107.241 140.226 107.023 140.57C106.835 140.876 106.7 141.362 106.64 142.027C106.572 142.699 106.542 143.708 106.542 145.068C106.542 146.428 106.572 147.444 106.64 148.109C106.7 148.774 106.835 149.259 107.023 149.566C107.241 149.909 107.579 150.081 108.038 150.081C108.512 150.081 108.85 149.917 109.053 149.588C109.248 149.297 109.354 148.849 109.384 148.251H111.526ZM121.827 151.852H119.586L119.03 149.17H115.865L115.323 151.852H113.06L116.421 138.283H118.511L121.827 151.852ZM118.624 147.242L117.451 141.564L116.286 147.242H118.624Z" fill="white"/>
<path d="M26.449 202.765C26.4039 204.438 25.9077 205.694 24.9754 206.538C24.1784 207.285 23.1559 207.659 21.9079 207.659C20.4568 207.659 19.3065 207.151 18.4569 206.142C17.9081 205.484 17.5547 204.633 17.3968 203.601C17.239 202.563 17.1562 200.904 17.1562 198.625C17.1562 196.339 17.239 194.68 17.3968 193.642C17.5547 192.611 17.9081 191.766 18.4569 191.101C19.3065 190.093 20.4568 189.584 21.9079 189.584C23.171 189.584 24.2085 189.966 25.028 190.728C25.9227 191.542 26.4039 192.782 26.449 194.449H23.6521C23.6221 193.657 23.4792 193.089 23.2311 192.738C22.9604 192.312 22.5244 192.095 21.9079 192.095C21.3064 192.095 20.8628 192.319 20.5771 192.767C20.329 193.163 20.1636 193.791 20.0809 194.665C19.9982 195.532 19.9531 196.854 19.9531 198.625C19.9531 200.396 19.9982 201.711 20.0809 202.578C20.1636 203.452 20.329 204.08 20.5771 204.483C20.8628 204.924 21.3064 205.148 21.9079 205.148C22.5244 205.148 22.9604 204.931 23.2311 204.506C23.4792 204.124 23.6221 203.542 23.6521 202.765H26.449ZM38.8167 207.457H36.1703V192.865L33.4937 194.897V191.923L36.1703 189.786H38.8167V207.457ZM50.7785 195.143C50.7785 196.705 50.5379 198.095 50.0567 199.32L46.9291 207.457H44.1849L47.1095 200.306C46.8389 200.508 46.4855 200.605 46.0344 200.605C45.0344 200.605 44.245 200.247 43.6586 199.514C43.3278 199.089 43.0947 198.566 42.9594 197.968C42.824 197.363 42.7639 196.421 42.7639 195.143C42.7639 194.023 42.824 193.163 42.9594 192.581C43.0947 191.99 43.3203 191.467 43.636 191.004C44.3052 190.055 45.3502 189.584 46.7787 189.584C48.1997 189.584 49.2372 190.055 49.9064 191.004C50.2372 191.497 50.4702 192.043 50.5905 192.64C50.7183 193.238 50.7785 194.068 50.7785 195.143ZM47.7335 197.998C47.9967 197.669 48.132 196.735 48.132 195.196C48.132 193.657 47.9967 192.723 47.7335 192.394C47.5005 192.095 47.1847 191.946 46.7787 191.946C46.3652 191.946 46.0419 192.095 45.8088 192.394C45.5457 192.723 45.4104 193.657 45.4104 195.196C45.4104 196.735 45.5457 197.669 45.8088 197.998C46.0419 198.297 46.3652 198.446 46.7787 198.446C47.1847 198.446 47.5005 198.297 47.7335 197.998ZM61.1915 204.707H59.9735V207.457H57.3195V204.707H52.3799V202.346L56.9511 189.786H59.5224L55.1016 202.346H57.3195V199.193H59.9735V202.346H61.1915V204.707ZM70.9127 191.968L66.2363 207.457H63.5898L68.2663 192.14H65.1687V194.501H62.62V189.786H70.9127V191.968ZM85.1225 192.289H80.5739V207.457H77.777V189.786H85.1225V192.289ZM95.964 193.619C96.1144 194.658 96.1896 196.324 96.1896 198.625C96.1896 200.919 96.1144 202.593 95.964 203.624C95.8137 204.655 95.4528 205.499 94.8889 206.142C94.0393 207.151 92.889 207.659 91.4455 207.659C89.9944 207.659 88.8441 207.151 87.9945 206.142C87.4457 205.484 87.0923 204.633 86.9344 203.601C86.7766 202.563 86.6938 200.904 86.6938 198.625C86.6938 196.339 86.7766 194.68 86.9344 193.642C87.0923 192.611 87.4457 191.766 87.9945 191.101C88.8441 190.093 89.9944 189.584 91.4455 189.584C92.889 189.584 94.0393 190.093 94.8889 191.101C95.4528 191.744 95.8137 192.588 95.964 193.619ZM93.28 202.578C93.3551 201.711 93.3927 200.396 93.3927 198.625C93.3927 196.854 93.3551 195.532 93.28 194.665C93.2048 193.791 93.0394 193.163 92.7913 192.767C92.5056 192.319 92.062 192.095 91.4455 192.095C90.844 192.095 90.4004 192.319 90.1147 192.767C89.7012 193.425 89.4907 195.375 89.4907 198.625C89.4907 201.868 89.7012 203.818 90.1147 204.483C90.4004 204.924 90.844 205.148 91.4455 205.148C92.062 205.148 92.5056 204.924 92.7913 204.483C93.0394 204.08 93.2048 203.452 93.28 202.578ZM109.647 210.812H107.001V207.457H99.8059V210.812H97.1594V204.954H98.3098C99.2947 202.473 99.7834 199.612 99.7834 196.391V189.786H108.174V204.954H109.647V210.812ZM105.377 204.954V192.267H102.46V197.086C102.46 200.015 102.024 202.638 101.159 204.954H105.377ZM121.842 207.457H118.918L118.196 203.96H114.068L113.369 207.457H110.422L114.798 189.786H117.519L121.842 207.457ZM117.67 201.45L116.143 194.053L114.625 201.45H117.67Z" fill="white"/>
<path d="M19.4337 177.585H17.5391V164.009H19.6893V172.325L22.7343 164.009H24.6515V177.585H22.5087V169.269L19.4337 177.585ZM37.2748 164.009L33.666 175.276C33.3653 176.217 32.9668 176.838 32.4781 177.136C31.9969 177.435 31.1925 177.585 30.0797 177.585V175.679C30.6737 175.679 31.1022 175.575 31.3654 175.381C31.636 175.186 31.8466 174.82 31.9969 174.282L32.3052 173.176L29.3129 164.009H31.6511L33.3051 170.285L34.9366 164.009H37.2748ZM45.4624 173.692C45.4624 174.491 45.4022 175.119 45.2744 175.56C45.1466 176.008 44.9135 176.397 44.5827 176.725C44.0038 177.293 43.1091 177.585 41.8986 177.585H38.5003V164.009H41.9137C43.1317 164.009 44.0113 164.292 44.5602 164.853C44.8834 165.167 45.109 165.533 45.2368 165.936C45.3646 166.34 45.4248 166.908 45.4248 167.632C45.4248 168.678 45.1616 169.463 44.6429 169.993C44.4248 170.21 44.1842 170.374 43.9286 170.472C44.2369 170.614 44.485 170.778 44.6804 170.972C45.1992 171.503 45.4624 172.414 45.4624 173.692ZM43.3196 173.543C43.3196 172.795 43.1918 172.25 42.9287 171.921C42.6806 171.592 42.2595 171.428 41.6881 171.428H40.6506V175.657H41.6881C42.2746 175.657 42.6956 175.5 42.9437 175.179C43.1918 174.865 43.3196 174.32 43.3196 173.543ZM43.2745 167.767C43.2745 167.102 43.1617 166.639 42.9211 166.355C42.6881 166.078 42.2896 165.936 41.7257 165.936H40.6506V169.612H41.7257C42.2746 169.612 42.673 169.47 42.9136 169.179C43.1542 168.888 43.2745 168.417 43.2745 167.767ZM53.289 177.585H47.5525V164.009H53.289V165.936H49.7027V169.784H52.7928V171.712H49.7027V175.657H53.289V177.585ZM62.093 168.148C62.093 169.568 61.8149 170.614 61.2585 171.271C60.7021 171.936 59.815 172.265 58.582 172.265H57.2963V177.585H55.1536V164.009H58.582C59.815 164.009 60.7021 164.345 61.2585 165.002C61.8149 165.66 62.093 166.713 62.093 168.148ZM59.642 169.799C59.845 169.433 59.9428 168.888 59.9428 168.148C59.9428 167.408 59.845 166.855 59.642 166.489C59.4315 166.123 59.0556 165.936 58.5068 165.936H57.2963V170.337H58.5068C59.0556 170.337 59.4315 170.158 59.642 169.799ZM69.5738 177.585H63.8373V164.009H69.5738V165.936H65.9876V169.784H69.0776V171.712H65.9876V175.657H69.5738V177.585ZM78.3929 177.585H76.2502V171.652H73.5811V177.585H71.4309V164.009H73.5811V169.732H76.2502V164.009H78.3929V177.585ZM87.6631 177.585H85.5128V171.652H82.8438V177.585H80.701V164.009H82.8438V169.732H85.5128V164.009H87.6631V177.585ZM96.7152 166.952C96.828 167.752 96.8881 169.03 96.8881 170.8C96.8881 172.564 96.828 173.841 96.7152 174.641C96.6024 175.433 96.3243 176.075 95.8882 176.576C95.2341 177.346 94.3544 177.734 93.2417 177.734C92.129 177.734 91.2494 177.346 90.5953 176.576C90.1742 176.06 89.9036 175.41 89.7833 174.618C89.6555 173.826 89.5953 172.549 89.5953 170.8C89.5953 169.045 89.6555 167.767 89.7833 166.975C89.9036 166.183 90.1742 165.533 90.5953 165.025C91.2494 164.248 92.129 163.859 93.2417 163.859C94.3544 163.859 95.2341 164.248 95.8882 165.025C96.3243 165.518 96.6024 166.16 96.7152 166.952ZM94.6552 173.834C94.7078 173.169 94.7379 172.16 94.7379 170.8C94.7379 169.441 94.7078 168.424 94.6552 167.759C94.595 167.087 94.4672 166.601 94.2793 166.295C94.0612 165.959 93.7154 165.787 93.2417 165.787C92.7831 165.787 92.4448 165.959 92.2267 166.295C91.9035 166.81 91.7456 168.305 91.7456 170.8C91.7456 173.288 91.9035 174.79 92.2267 175.298C92.4448 175.642 92.7831 175.806 93.2417 175.806C93.7154 175.806 94.0612 175.642 94.2793 175.298C94.4672 174.992 94.595 174.506 94.6552 173.834ZM105.594 173.983C105.557 175.261 105.181 176.232 104.459 176.875C103.85 177.45 103.061 177.734 102.106 177.734C100.993 177.734 100.106 177.346 99.4594 176.576C99.0384 176.06 98.7602 175.41 98.6399 174.618C98.5196 173.826 98.4595 172.549 98.4595 170.8C98.4595 169.045 98.5196 167.767 98.6399 166.975C98.7602 166.183 99.0384 165.533 99.4594 165.025C100.106 164.248 100.993 163.859 102.106 163.859C103.076 163.859 103.873 164.151 104.504 164.733C105.188 165.361 105.557 166.31 105.594 167.595H103.444C103.422 166.982 103.309 166.549 103.121 166.28C102.918 165.951 102.58 165.787 102.106 165.787C101.64 165.787 101.301 165.959 101.083 166.295C100.895 166.601 100.768 167.087 100.7 167.759C100.64 168.424 100.61 169.441 100.61 170.8C100.61 172.16 100.64 173.169 100.7 173.834C100.768 174.506 100.895 174.992 101.083 175.298C101.301 175.642 101.64 175.806 102.106 175.806C102.58 175.806 102.918 175.642 103.121 175.313C103.309 175.022 103.422 174.581 103.444 173.983H105.594ZM113.173 165.936H110.872V177.585H108.722V165.936H106.437V164.009H113.173V165.936ZM116.624 177.585H114.722V164.009H116.872V172.325L119.924 164.009H121.842V177.585H119.691V169.269L116.624 177.585Z" fill="white"/>
</svg>
