<svg width="660" height="304" viewBox="0 0 660 304" fill="none" xmlns="http://www.w3.org/2000/svg">
<path d="M632.501 214.5C594.4 309.57 437.598 298.772 389.196 279.11C340.794 259.448 262.314 170.42 343.205 149.39C424.097 128.36 382.084 302.674 189.29 264.86C-3.50461 227.046 -42.442 87.3393 51.5239 13.1348" stroke="#838383" stroke-width="4" stroke-dasharray="10 10"/>
<mask id="mask0_4012_51" style="mask-type:luminance" maskUnits="userSpaceOnUse" x="609" y="169" width="41" height="53">
<path d="M629.5 220.917C629.5 220.917 648.563 205.667 648.563 189.146C648.563 178.618 640.028 170.083 629.5 170.083C618.973 170.083 610.438 178.618 610.438 189.146C610.438 205.667 629.5 220.917 629.5 220.917Z" fill="white" stroke="white" stroke-width="2" stroke-linejoin="round"/>
<path d="M629.5 196.771C630.502 196.771 631.493 196.574 632.418 196.19C633.343 195.807 634.184 195.245 634.892 194.537C635.6 193.829 636.162 192.989 636.545 192.064C636.928 191.139 637.125 190.147 637.125 189.146C637.125 188.144 636.928 187.153 636.545 186.228C636.162 185.303 635.6 184.462 634.892 183.754C634.184 183.046 633.343 182.484 632.418 182.101C631.493 181.718 630.502 181.521 629.5 181.521C627.478 181.521 625.539 182.324 624.109 183.754C622.679 185.184 621.875 187.123 621.875 189.146C621.875 191.168 622.679 193.107 624.109 194.537C625.539 195.967 627.478 196.771 629.5 196.771Z" fill="black" stroke="black" stroke-width="2" stroke-linejoin="round"/>
</mask>
<g mask="url(#mask0_4012_51)">
<path d="M599 165H660V226H599V165Z" fill="#E32125"/>
</g>
</svg>
