<svg width="55" height="55" viewBox="0 0 55 55" fill="none" xmlns="http://www.w3.org/2000/svg">
<circle cx="27.5" cy="27.5" r="27.5" fill="#E32125"/>
<g clip-path="url(#clip0_2421_2138)">
<path d="M21.5533 32.9811C21.8029 32.8178 22.0524 32.6471 22.3019 32.4839C22.6372 32.2612 22.9024 32.2686 23.0739 32.4987C23.2455 32.7288 23.1597 32.9811 22.84 33.1964C22.3643 33.5229 21.8887 33.8421 21.413 34.1612C21.2414 34.28 21.0699 34.3765 20.8437 34.28C20.602 34.1761 20.5474 33.9683 20.5474 33.7456C20.5396 33.0405 20.5474 32.3354 20.5474 31.6303C20.5474 31.2666 20.5318 31.2592 20.1497 31.2592C19.4947 31.2592 18.8475 31.2666 18.1925 31.2592C18.0054 31.2592 17.865 31.3112 17.7402 31.4596C17.0228 32.3057 16.2976 33.137 15.5646 33.9757C15.4555 34.0944 15.4087 34.2206 15.4087 34.3765C15.4087 36.566 15.4165 38.7555 15.4087 40.945C15.4087 41.2419 15.5802 41.2196 15.783 41.2196C18.9879 41.2196 22.1928 41.2196 25.3977 41.2196C26.0761 41.2196 26.7623 41.2122 27.4407 41.2196C27.659 41.2196 27.7214 41.1528 27.698 40.9376C27.5187 39.2676 27.3549 37.5977 27.1912 35.9277C27.0274 34.3023 26.8558 32.6843 26.6921 31.0588C26.5907 30.0568 26.4816 29.0474 26.388 28.0455C26.3724 27.8451 26.31 27.7634 26.0917 27.7708C25.8031 27.7857 25.5068 27.7857 25.2183 27.7708C25.0078 27.7634 24.9142 27.8451 24.8986 28.038C24.8206 28.8693 24.7348 29.7006 24.6569 30.5319C24.5321 31.7788 24.4073 33.0257 24.2826 34.2651C24.2436 34.6585 24.2124 35.0593 24.1578 35.4527C24.111 35.7867 23.9083 35.9722 23.6432 35.9351C23.3702 35.9054 23.2065 35.6902 23.2377 35.3562C23.3312 34.3245 23.4482 33.2929 23.5496 32.2538C23.6821 30.9698 23.8069 29.6932 23.9317 28.4091C23.9707 28.0529 24.0019 27.6892 24.0486 27.3329C24.0876 27.0657 24.2514 26.9099 24.5399 26.9099C25.2807 26.9025 26.0215 26.9025 26.7623 26.9099C27.0742 26.9099 27.2457 27.088 27.2769 27.4072C27.4173 28.847 27.5577 30.2869 27.698 31.7268C27.7448 32.2018 27.737 32.2018 28.2283 32.2092C28.587 32.2092 28.9535 32.2018 29.3122 32.2092C29.5149 32.2167 29.6163 32.1573 29.6319 31.9495C29.6553 31.5041 29.6942 31.0588 29.7176 30.6209C29.8034 29.2033 29.8736 27.7857 29.9594 26.3755C29.975 26.0638 30.1465 25.8931 30.474 25.8782C31.0589 25.8634 31.6437 25.8634 32.2285 25.8782C32.5794 25.8856 32.7432 26.0563 32.7744 26.4126C32.8757 27.3997 32.9771 28.3869 33.0785 29.374C33.1253 29.8268 33.1799 30.2795 33.2267 30.7322C33.2422 30.9104 33.3202 30.992 33.5152 30.992C33.9908 30.9846 34.4665 30.9846 34.95 30.992C35.1371 30.992 35.2073 30.9252 35.2151 30.7471C35.2853 29.4111 35.371 28.0826 35.449 26.754C35.4724 26.3903 35.488 26.0341 35.5114 25.6704C35.5426 25.2919 35.7141 25.1434 36.1118 25.1434C36.6577 25.1434 37.2035 25.136 37.7494 25.1434C38.1393 25.1434 38.303 25.3141 38.3342 25.6852C38.459 27.1845 38.5915 28.6763 38.7163 30.1756C38.8255 31.4373 38.9268 32.7065 39.036 33.9683C39.1608 35.4304 39.2933 36.8851 39.4181 38.3473C39.4883 39.1563 39.5585 39.9727 39.613 40.7891C39.6442 41.2196 39.652 41.2345 40.1121 41.2345C40.5488 41.2345 40.9855 41.2345 41.4299 41.2345C41.7652 41.2419 41.968 41.3978 41.9836 41.6501C41.9992 41.9099 41.812 42.1028 41.4767 42.1103C40.4864 42.1325 39.4883 42.1325 38.498 42.1325C30.7781 42.1325 23.0583 42.1325 15.3463 42.1325C14.8083 42.1325 14.278 42.1325 13.74 42.1325C13.623 42.1325 13.506 42.1251 13.3891 42.1028C13.1317 42.0583 12.9836 41.9099 12.9992 41.6575C13.0148 41.4126 13.1785 41.2642 13.4358 41.2419C13.662 41.2196 13.8881 41.2196 14.1065 41.2345C14.395 41.2567 14.473 41.1454 14.473 40.8856C14.4652 38.7035 14.473 36.5289 14.4652 34.3468C14.4652 33.998 14.5743 33.7308 14.8083 33.471C15.6036 32.5803 16.3834 31.6823 17.1554 30.7694C17.3815 30.5022 17.6233 30.3686 17.9976 30.376C18.9489 30.3983 19.908 30.3834 20.8593 30.3834C21.3428 30.3834 21.4988 30.5467 21.4988 31.0143C21.4988 31.6155 21.4988 32.2167 21.4988 32.8253C21.4988 32.855 21.4754 32.9143 21.5533 32.9811ZM36.5251 41.2196C37.11 41.2196 37.6948 41.2196 38.2796 41.2196C38.7475 41.2196 38.7475 41.2048 38.7085 40.7669C38.5915 39.4754 38.4824 38.184 38.3732 36.8926C38.2718 35.6828 38.1705 34.473 38.0691 33.2632C37.9365 31.7639 37.8118 30.2721 37.6792 28.7802C37.6012 27.9341 37.531 27.0806 37.4531 26.2345C37.4453 26.1157 37.4219 25.9896 37.2659 26.0118C36.993 26.0489 36.6889 25.8931 36.4393 26.1157C36.4159 26.138 36.4237 26.1899 36.4237 26.2271C36.3458 27.5853 36.26 28.9435 36.182 30.3092C36.1196 31.3928 36.065 32.4764 35.9949 33.5601C35.9715 33.9089 35.7765 34.0944 35.4802 34.0796C35.2073 34.0648 35.0435 33.8569 35.0591 33.5155C35.0747 33.0702 35.1059 32.6249 35.1449 32.187C35.1683 31.9792 35.1137 31.8901 34.8876 31.8975C34.4821 31.9049 34.0688 31.9049 33.6633 31.8975C33.4216 31.8901 33.3592 31.994 33.3826 32.2018C33.445 32.7659 33.4996 33.3225 33.562 33.8866C33.8115 36.2394 34.0688 38.5848 34.3105 40.9376C34.3339 41.1602 34.4197 41.2419 34.6614 41.2419C35.2775 41.2122 35.9013 41.2196 36.5251 41.2196ZM31.0199 41.2122C31.0199 41.2196 31.0199 41.2196 31.0199 41.2122C31.6905 41.2122 32.3611 41.2122 33.0395 41.2122C33.406 41.2122 33.4216 41.1825 33.3826 40.8485C33.25 39.6907 33.1175 38.5254 33.0005 37.3676C32.8368 35.8089 32.6808 34.2503 32.5093 32.6917C32.3221 30.9401 32.1428 29.1885 31.9322 27.4443C31.8386 26.6204 32.0414 26.7837 31.0901 26.7614C30.9107 26.754 30.8561 26.8357 30.8483 26.9915C30.7547 28.6466 30.6612 30.3018 30.5598 31.9569C30.5052 32.8624 30.4506 33.7679 30.3883 34.6734C30.3805 34.7847 30.3649 34.896 30.2791 34.9851C30.1543 35.1187 29.9984 35.1855 29.8112 35.1335C29.5851 35.0667 29.4759 34.9109 29.4759 34.6956C29.4837 34.2726 29.5071 33.8421 29.5383 33.419C29.5617 33.1667 29.4603 33.0925 29.203 33.0999C28.8599 33.1147 28.5168 33.1147 28.1815 33.0999C27.9163 33.085 27.8384 33.1815 27.8618 33.4265C27.9475 34.2577 28.0255 35.089 28.1113 35.9128C28.2828 37.5754 28.4544 39.2305 28.6182 40.8931C28.6415 41.1231 28.7117 41.2196 28.9691 41.2122C29.6553 41.2048 30.3415 41.2122 31.0199 41.2122Z" fill="white"/>
<path d="M20.6643 36.0835C20.6643 36.269 20.6799 36.4546 20.6643 36.6401C20.641 36.8925 20.446 37.0706 20.2043 37.0632C19.9469 37.0558 19.7754 36.9073 19.752 36.6698C19.7052 36.2765 19.7052 35.8757 19.752 35.4749C19.7832 35.2374 19.9391 35.0889 20.2043 35.0815C20.4382 35.0741 20.641 35.2448 20.6643 35.4971C20.6799 35.6901 20.6643 35.8831 20.6643 36.0835Z" fill="white"/>
<path d="M17.514 36.0837C17.514 36.2618 17.5218 36.4399 17.514 36.6106C17.4984 36.863 17.3113 37.0411 17.0774 37.056C16.8434 37.0708 16.6407 36.9149 16.6017 36.6552C16.5471 36.2618 16.5549 35.861 16.6017 35.4676C16.6329 35.2301 16.7888 35.0817 17.054 35.0817C17.2957 35.0817 17.4906 35.245 17.514 35.4973C17.5218 35.6977 17.514 35.8907 17.514 36.0837Z" fill="white"/>
<path d="M19.0892 36.0614C19.0892 36.247 19.097 36.4325 19.0892 36.6181C19.0658 36.8778 18.8865 37.0485 18.6525 37.056C18.4186 37.0708 18.2159 36.9149 18.1847 36.6552C18.1301 36.2692 18.1379 35.8758 18.1769 35.4899C18.2081 35.2227 18.3874 35.0817 18.6369 35.0817C18.8943 35.0817 19.0658 35.2524 19.0892 35.5344C19.097 35.6235 19.097 35.72 19.097 35.8091C19.097 35.8981 19.097 35.9798 19.0892 36.0614Z" fill="white"/>
<path d="M31.0199 41.2122C31.0199 41.2196 31.0199 41.2196 31.0199 41.2122ZM31.0199 41.2122C31.6905 41.2122 32.3611 41.2122 33.0395 41.2122C33.406 41.2122 33.4216 41.1825 33.3826 40.8485C33.25 39.6907 33.1175 38.5254 33.0005 37.3676C32.8368 35.8089 32.6808 34.2503 32.5093 32.6917C32.3221 30.9401 32.1428 29.1885 31.9322 27.4443C31.8386 26.6204 32.0414 26.7837 31.0901 26.7614C30.9107 26.754 30.8561 26.8357 30.8483 26.9915C30.7547 28.6466 30.6612 30.3018 30.5598 31.9569C30.5052 32.8624 30.4506 33.7679 30.3883 34.6734C30.3805 34.7847 30.3649 34.896 30.2791 34.9851C30.1543 35.1187 29.9984 35.1855 29.8112 35.1335C29.5851 35.0667 29.4759 34.9109 29.4759 34.6956C29.4837 34.2726 29.5071 33.8421 29.5383 33.419C29.5617 33.1667 29.4603 33.0925 29.203 33.0999C28.8599 33.1147 28.5168 33.1147 28.1815 33.0999C27.9163 33.085 27.8384 33.1815 27.8618 33.4265C27.9475 34.2577 28.0255 35.089 28.1113 35.9128C28.2828 37.5754 28.4544 39.2305 28.6182 40.8931C28.6415 41.1231 28.7117 41.2196 28.9691 41.2122C29.6553 41.2048 30.3415 41.2122 31.0199 41.2122ZM21.5533 32.9811C21.8029 32.8178 22.0524 32.6471 22.3019 32.4839C22.6372 32.2612 22.9024 32.2686 23.0739 32.4987C23.2455 32.7288 23.1597 32.9811 22.84 33.1964C22.3643 33.5229 21.8887 33.8421 21.413 34.1612C21.2414 34.28 21.0699 34.3765 20.8437 34.28C20.602 34.1761 20.5474 33.9683 20.5474 33.7456C20.5396 33.0405 20.5474 32.3354 20.5474 31.6303C20.5474 31.2666 20.5318 31.2592 20.1497 31.2592C19.4947 31.2592 18.8475 31.2666 18.1925 31.2592C18.0054 31.2592 17.865 31.3112 17.7402 31.4596C17.0228 32.3057 16.2976 33.137 15.5646 33.9757C15.4555 34.0944 15.4087 34.2206 15.4087 34.3765C15.4087 36.566 15.4165 38.7555 15.4087 40.945C15.4087 41.2419 15.5802 41.2196 15.783 41.2196C18.9879 41.2196 22.1928 41.2196 25.3977 41.2196C26.0761 41.2196 26.7623 41.2122 27.4407 41.2196C27.659 41.2196 27.7214 41.1528 27.698 40.9376C27.5187 39.2676 27.3549 37.5977 27.1912 35.9277C27.0274 34.3023 26.8558 32.6843 26.6921 31.0588C26.5907 30.0568 26.4816 29.0474 26.388 28.0455C26.3724 27.8451 26.31 27.7634 26.0917 27.7708C25.8031 27.7857 25.5068 27.7857 25.2183 27.7708C25.0078 27.7634 24.9142 27.8451 24.8986 28.038C24.8206 28.8693 24.7348 29.7006 24.6569 30.5319C24.5321 31.7788 24.4073 33.0257 24.2826 34.2651C24.2436 34.6585 24.2124 35.0593 24.1578 35.4527C24.111 35.7867 23.9083 35.9722 23.6432 35.9351C23.3702 35.9054 23.2065 35.6902 23.2377 35.3562C23.3312 34.3245 23.4482 33.2929 23.5496 32.2538C23.6821 30.9698 23.8069 29.6932 23.9317 28.4091C23.9707 28.0529 24.0019 27.6892 24.0486 27.3329C24.0876 27.0657 24.2514 26.9099 24.5399 26.9099C25.2807 26.9025 26.0215 26.9025 26.7623 26.9099C27.0742 26.9099 27.2457 27.088 27.2769 27.4072C27.4173 28.847 27.5577 30.2869 27.698 31.7268C27.7448 32.2018 27.737 32.2018 28.2283 32.2092C28.587 32.2092 28.9535 32.2018 29.3122 32.2092C29.5149 32.2167 29.6163 32.1573 29.6319 31.9495C29.6553 31.5041 29.6942 31.0588 29.7176 30.6209C29.8034 29.2033 29.8736 27.7857 29.9594 26.3755C29.975 26.0638 30.1465 25.8931 30.474 25.8782C31.0589 25.8634 31.6437 25.8634 32.2285 25.8782C32.5794 25.8856 32.7432 26.0563 32.7744 26.4126C32.8757 27.3997 32.9771 28.3869 33.0785 29.374C33.1253 29.8268 33.1799 30.2795 33.2266 30.7322C33.2422 30.9104 33.3202 30.992 33.5152 30.992C33.9908 30.9846 34.4665 30.9846 34.95 30.992C35.1371 30.992 35.2073 30.9252 35.2151 30.7471C35.2853 29.4111 35.371 28.0826 35.449 26.754C35.4724 26.3903 35.488 26.0341 35.5114 25.6704C35.5426 25.2919 35.7141 25.1434 36.1118 25.1434C36.6577 25.1434 37.2035 25.136 37.7494 25.1434C38.1393 25.1434 38.303 25.3141 38.3342 25.6852C38.459 27.1845 38.5915 28.6763 38.7163 30.1756C38.8255 31.4373 38.9268 32.7065 39.036 33.9683C39.1608 35.4304 39.2933 36.8851 39.4181 38.3473C39.4883 39.1563 39.5585 39.9727 39.613 40.7891C39.6442 41.2196 39.652 41.2345 40.1121 41.2345C40.5488 41.2345 40.9855 41.2345 41.4299 41.2345C41.7652 41.2419 41.968 41.3978 41.9836 41.6501C41.9992 41.9099 41.812 42.1028 41.4767 42.1103C40.4864 42.1325 39.4883 42.1325 38.498 42.1325C30.7781 42.1325 23.0583 42.1325 15.3463 42.1325C14.8083 42.1325 14.278 42.1325 13.74 42.1325C13.623 42.1325 13.506 42.1251 13.3891 42.1028C13.1317 42.0583 12.9836 41.9099 12.9992 41.6575C13.0148 41.4126 13.1785 41.2642 13.4358 41.2419C13.662 41.2196 13.8881 41.2196 14.1065 41.2345C14.395 41.2567 14.473 41.1454 14.473 40.8856C14.4652 38.7035 14.473 36.5289 14.4652 34.3468C14.4652 33.998 14.5743 33.7308 14.8083 33.471C15.6036 32.5803 16.3834 31.6823 17.1554 30.7694C17.3815 30.5022 17.6233 30.3686 17.9976 30.376C18.9489 30.3983 19.908 30.3834 20.8593 30.3834C21.3428 30.3834 21.4988 30.5467 21.4988 31.0143C21.4988 31.6155 21.4988 32.2167 21.4988 32.8253C21.4988 32.855 21.4754 32.9143 21.5533 32.9811ZM36.5251 41.2196C37.11 41.2196 37.6948 41.2196 38.2796 41.2196C38.7475 41.2196 38.7475 41.2048 38.7085 40.7669C38.5915 39.4754 38.4824 38.184 38.3732 36.8926C38.2718 35.6828 38.1705 34.473 38.0691 33.2632C37.9365 31.7639 37.8118 30.2721 37.6792 28.7802C37.6012 27.9341 37.531 27.0806 37.4531 26.2345C37.4453 26.1157 37.4219 25.9896 37.2659 26.0118C36.993 26.0489 36.6889 25.8931 36.4393 26.1157C36.4159 26.138 36.4237 26.1899 36.4237 26.2271C36.3458 27.5853 36.26 28.9435 36.182 30.3092C36.1196 31.3928 36.065 32.4764 35.9949 33.5601C35.9715 33.9089 35.7765 34.0944 35.4802 34.0796C35.2073 34.0648 35.0435 33.8569 35.0591 33.5155C35.0747 33.0702 35.1059 32.6249 35.1449 32.187C35.1683 31.9792 35.1137 31.8901 34.8876 31.8975C34.4821 31.9049 34.0688 31.9049 33.6633 31.8975C33.4216 31.8901 33.3592 31.994 33.3826 32.2018C33.445 32.7659 33.4996 33.3225 33.562 33.8866C33.8115 36.2394 34.0688 38.5848 34.3105 40.9376C34.3339 41.1602 34.4197 41.2419 34.6614 41.2419C35.2775 41.2122 35.9013 41.2196 36.5251 41.2196ZM20.6643 36.0835C20.6643 36.269 20.6799 36.4546 20.6643 36.6401C20.641 36.8925 20.446 37.0706 20.2043 37.0632C19.9469 37.0558 19.7754 36.9073 19.752 36.6698C19.7052 36.2765 19.7052 35.8757 19.752 35.4749C19.7832 35.2374 19.9391 35.0889 20.2043 35.0815C20.4382 35.0741 20.641 35.2448 20.6643 35.4971C20.6799 35.6901 20.6643 35.8831 20.6643 36.0835ZM17.514 36.0837C17.514 36.2618 17.5218 36.4399 17.514 36.6106C17.4984 36.863 17.3113 37.0411 17.0774 37.056C16.8434 37.0708 16.6407 36.9149 16.6017 36.6552C16.5471 36.2618 16.5549 35.861 16.6017 35.4676C16.6329 35.2301 16.7888 35.0817 17.054 35.0817C17.2957 35.0817 17.4906 35.245 17.514 35.4973C17.5218 35.6977 17.514 35.8907 17.514 36.0837ZM19.0892 36.0614C19.0892 36.247 19.097 36.4325 19.0892 36.6181C19.0658 36.8778 18.8865 37.0485 18.6525 37.056C18.4186 37.0708 18.2159 36.9149 18.1847 36.6552C18.1301 36.2692 18.1379 35.8758 18.1769 35.4899C18.2081 35.2227 18.3874 35.0817 18.6369 35.0817C18.8943 35.0817 19.0658 35.2524 19.0892 35.5344C19.097 35.6235 19.097 35.72 19.097 35.8091C19.097 35.8981 19.097 35.9798 19.0892 36.0614Z" stroke="white" stroke-width="0.3"/>
<path d="M32.3139 17.4009C32.3139 17.4751 32.3061 17.5493 32.3139 17.6236C32.3607 18.1357 32.423 18.1802 32.9377 18.054C33.1794 17.9947 33.4056 17.9798 33.5693 18.1951C33.7643 18.4474 33.6473 18.8037 33.2964 18.863C32.9065 18.9373 32.7739 19.1377 32.6882 19.4865C32.4854 20.3103 31.9474 20.9041 31.1286 21.2455C30.9337 21.3272 30.8479 21.4162 30.8479 21.6315C30.8557 22.1955 30.6529 22.7077 30.2865 23.153C30.1617 23.3014 30.1539 23.3979 30.3098 23.5167C30.4034 23.5835 30.4814 23.6651 30.5594 23.7542C30.7153 23.9397 30.7153 24.1327 30.5594 24.3108C30.4034 24.489 30.1851 24.5187 29.9823 24.3925C29.8264 24.296 29.6938 24.1698 29.5691 24.0436C29.4443 23.9175 29.3273 23.8878 29.1558 23.9546C28.7425 24.1104 28.3214 24.1921 27.8691 24.1327C27.5962 24.0956 27.4714 24.2811 27.3935 24.4964C27.3623 24.5855 27.3701 24.6819 27.3467 24.771C27.2921 25.0159 27.0816 25.1792 26.8554 25.1569C26.6215 25.1347 26.4499 24.9566 26.4343 24.6968C26.3798 24.0956 26.9412 23.3608 27.5494 23.2198C27.6586 23.1975 27.76 23.2124 27.8691 23.2346C28.8673 23.3905 29.803 22.7299 29.9355 21.7873C29.9589 21.5944 29.9122 21.4904 29.6938 21.4608C29.5223 21.4385 29.3507 21.4014 29.1792 21.3569C28.8595 21.2678 28.7191 21.0525 28.7971 20.8002C28.8751 20.5478 29.1168 20.4291 29.4287 20.5107C30.0135 20.6592 30.5672 20.6146 31.074 20.2732C31.5107 19.9763 31.7602 19.5756 31.846 19.0783C31.8694 18.9595 31.8304 18.863 31.768 18.7665C30.7075 17.104 31.8382 14.8551 34.1308 14.7661C34.3023 14.7586 34.4817 14.7809 34.6532 14.8254C34.9027 14.8848 35.0275 15.0555 34.9963 15.3079C34.9651 15.5379 34.7624 15.6938 34.4973 15.679C34.2633 15.6641 34.0294 15.6419 33.7955 15.6864C32.9299 15.8348 32.3061 16.5548 32.3139 17.4009Z" fill="white" stroke="white" stroke-width="0.3"/>
<path d="M24.9922 20.6743C25 20.7633 24.9922 20.8598 25.0156 20.9489C25.1092 21.3497 25.1559 21.4313 25.5458 21.2755C25.6082 21.2532 25.6784 21.2383 25.7408 21.2309C26.0215 21.1864 26.2398 21.3126 26.3022 21.5501C26.3646 21.7653 26.2398 21.988 25.9747 22.0622C25.6862 22.1438 25.4055 22.2477 25.1559 22.4185C24.5399 22.8192 24.3918 23.799 24.8752 24.3482C24.9532 24.4373 25.0546 24.5263 25.0858 24.6451C25.1326 24.838 25.0546 25.0013 24.8908 25.1052C24.6959 25.224 24.5009 25.2092 24.3216 25.0681C23.9317 24.7416 23.7523 24.3111 23.6978 23.8435C23.612 23.1755 23.7601 22.552 24.2514 22.0325C24.3606 21.9138 24.3528 21.8247 24.2982 21.6837C23.5574 19.9989 24.7271 18.1953 26.6297 18.0765C26.7779 18.0691 26.8637 18.0097 26.9572 17.8984C27.3315 17.4457 27.5967 16.9781 27.5733 16.3546C27.5577 15.9538 27.7994 15.5753 28.0645 15.2413C28.2595 14.9964 28.5246 14.937 28.7507 15.0854C28.9769 15.2339 29.0081 15.4937 28.8209 15.746C28.6728 15.9464 28.5636 16.1616 28.4856 16.3917C28.4232 16.5921 28.4544 16.6738 28.6961 16.6144C28.8677 16.5699 29.0392 16.5402 29.2108 16.5328C29.5461 16.5179 29.78 16.696 29.7878 16.9558C29.7956 17.2082 29.6007 17.3863 29.2732 17.4234C28.1347 17.5496 27.5343 18.1953 27.5577 19.2789C27.5577 19.368 27.5655 19.4645 27.5499 19.5535C27.5031 19.7836 27.3471 19.9172 27.1054 19.9246C26.8715 19.9321 26.7155 19.8133 26.6609 19.5906C26.6297 19.4645 26.6063 19.3309 26.6141 19.2047C26.6297 18.9598 26.505 18.9523 26.31 18.9895C25.6394 19.1305 25.0468 19.791 25 20.459C24.9922 20.5258 25 20.5852 25 20.652C25 20.6743 25 20.6743 24.9922 20.6743Z" fill="white" stroke="white" stroke-width="0.3"/>
<path d="M33.6718 22.4923C34.8883 22.5442 35.7382 21.7501 35.6837 20.6442C35.6759 20.5106 35.6525 20.3918 35.5355 20.2953C35.3796 20.1617 35.3172 19.9836 35.4029 19.7906C35.4887 19.5828 35.6759 19.516 35.902 19.5234C36.0969 19.5308 36.2919 19.5086 36.479 19.4789C36.9625 19.4047 37.3602 19.2117 37.6253 18.7961C37.7345 18.6254 37.8904 18.5214 38.1166 18.566C38.3037 18.6031 38.4207 18.7144 38.4753 18.8925C38.5221 19.041 38.4519 19.1672 38.3817 19.2859C38.023 19.85 37.4772 20.1691 36.8143 20.3176C36.6428 20.3547 36.6038 20.4141 36.6116 20.5774C36.6974 22.1063 35.4185 23.3903 33.8122 23.3903C33.7654 23.3903 33.7186 23.3903 33.664 23.3903C33.2118 23.3829 33.0636 23.5165 33.009 23.9544C32.97 24.2661 32.7829 24.4517 32.5178 24.4368C32.2526 24.422 32.0967 24.2216 32.0967 23.9025C32.0967 23.2938 32.5256 22.7149 33.1182 22.5071C33.3209 22.4329 33.5159 22.4923 33.6718 22.4923Z" fill="white" stroke="white" stroke-width="0.3"/>
<path d="M41.0707 19.687C41.0473 19.5386 41.0317 19.3976 41.0083 19.2491C40.9771 18.9745 41.1253 18.7519 41.3904 18.7073C41.6399 18.6628 41.8349 18.8038 41.9128 19.0784C42.3261 20.496 41.2033 22.0547 39.6125 22.2773C39.4176 22.307 39.2304 22.3293 39.0355 22.2996C38.6768 22.2477 38.4429 22.4332 38.3961 22.782C38.3805 22.8934 38.3805 23.0047 38.3259 23.1086C38.2167 23.2942 38.053 23.3684 37.8346 23.3313C37.6007 23.2942 37.4915 23.1309 37.4603 22.9231C37.3668 22.3145 38.0062 21.4832 38.6378 21.3793C38.7392 21.3644 38.8327 21.3867 38.9263 21.4015C40.057 21.5797 41.0629 20.7632 41.0707 19.687Z" fill="white" stroke="white" stroke-width="0.3"/>
<path d="M29.1642 14.0094C28.9225 14.0094 28.7197 13.8165 28.7197 13.5864C28.7197 13.3118 29.016 13 29.2812 13.0075C29.5151 13.0149 29.7256 13.2153 29.7334 13.4379C29.7334 13.6977 29.4293 14.0094 29.1642 14.0094Z" fill="white" stroke="white" stroke-width="0.3"/>
</g>
<defs>
<clipPath id="clip0_2421_2138">
<rect width="29" height="30" fill="white" transform="translate(13 13)"/>
</clipPath>
</defs>
</svg>
