<svg width="28" height="28" viewBox="0 0 28 28" fill="none" xmlns="http://www.w3.org/2000/svg">
<circle cx="14" cy="14" r="14" fill="#D4AC55"/>
<path d="M13.3674 9.00287C15.2802 9.00287 17.0619 9.02846 18.8437 9.19478C19.7084 9.27155 20.2848 9.71934 20.5993 10.5126C20.9137 11.3186 20.9137 12.1758 20.953 13.0202C21.0316 14.5683 21.0316 16.1164 20.7958 17.6645C20.5731 19.1358 20.0097 19.686 18.5162 19.8139C15.909 20.0186 13.2888 20.057 10.6685 19.9163C9.86934 19.8779 9.07017 19.9035 8.27099 19.8011C7.17049 19.6476 6.62023 19.2254 6.3058 18.1891C6.08308 17.4726 6.06998 16.7305 6.04378 16.0013C5.96517 14.4404 5.97827 12.8667 6.20099 11.3058C6.41061 9.89846 6.98707 9.32273 8.44131 9.1692C10.1183 9.01567 11.8083 8.99008 13.3674 9.00287ZM11.7297 14.4788C11.7297 15.1952 11.7428 15.9117 11.7297 16.6282C11.7297 16.9992 11.8607 17.0376 12.1621 16.8585C13.3805 16.142 14.5989 15.4255 15.8173 14.7091C16.1186 14.5299 16.0924 14.4276 15.8173 14.2613C14.5858 13.5704 13.3674 12.8411 12.149 12.1246C11.8345 11.9327 11.7166 12.0095 11.7297 12.3677C11.7297 13.0714 11.7297 13.7751 11.7297 14.4788Z" fill="white"/>
</svg>
