<svg width="26" height="25" viewBox="0 0 26 25" fill="none" xmlns="http://www.w3.org/2000/svg">
<rect x="0.736328" y="0.547058" width="24" height="23" rx="11.5" stroke="#C9C9C9"/>
<path d="M16.2084 9.54708C16.2091 8.776 15.9446 8.02626 15.4559 7.41431C14.9673 6.80237 14.2818 6.36247 13.5059 6.16296C12.73 5.96344 11.9073 6.01547 11.1654 6.31097C10.4235 6.60646 9.80401 7.12888 9.40317 7.79708C9.26503 8.02689 9.22765 8.29997 9.29925 8.55623C9.37084 8.8125 9.54555 9.03097 9.78494 9.16358C10.0243 9.29619 10.3088 9.33207 10.5757 9.26334C10.8427 9.19461 11.0702 9.02689 11.2084 8.79708C11.3456 8.56891 11.543 8.37946 11.7807 8.2478C12.0184 8.11614 12.2881 8.04691 12.5625 8.04708C12.9769 8.04708 13.3744 8.20512 13.6674 8.48642C13.9604 8.76772 14.125 9.14926 14.125 9.54708C14.125 9.94491 13.9604 10.3264 13.6674 10.6077C13.3744 10.889 12.9769 11.0471 12.5625 11.0471H12.5594C12.4923 11.0539 12.426 11.067 12.3615 11.0861C12.2915 11.0927 12.2224 11.1061 12.1552 11.1261C12.0981 11.1562 12.0441 11.1913 11.9938 11.2311C11.9339 11.2624 11.8774 11.2992 11.825 11.3411C11.7782 11.3948 11.7373 11.4531 11.7032 11.5151C11.6652 11.5602 11.6314 11.6084 11.6021 11.6591C11.5793 11.728 11.5642 11.7991 11.5573 11.8711C11.5397 11.9286 11.5275 11.9875 11.5209 12.0471V13.0471L11.523 13.0581V13.5491C11.5235 13.8139 11.6335 14.0678 11.8288 14.2549C12.0241 14.442 12.2887 14.5471 12.5646 14.5471H12.5677C12.7045 14.5468 12.8399 14.5207 12.9662 14.4702C13.0925 14.4197 13.2072 14.3458 13.3037 14.2528C13.4002 14.1597 13.4767 14.0493 13.5288 13.9279C13.5809 13.8065 13.6076 13.6764 13.6073 13.5451L13.6052 12.8831C14.3552 12.6699 15.0136 12.2301 15.4826 11.6291C15.9515 11.0281 16.2061 10.298 16.2084 9.54708ZM11.8302 16.3371C11.684 16.4764 11.584 16.6541 11.543 16.8479C11.502 17.0418 11.5217 17.2429 11.5998 17.4259C11.6778 17.609 11.8106 17.7657 11.9815 17.8762C12.1523 17.9868 12.3534 18.0463 12.5594 18.0471C12.8354 18.0444 13.1 17.9407 13.299 17.7571C13.4924 17.5674 13.6007 17.3125 13.6007 17.0471C13.6007 16.7816 13.4924 16.5268 13.299 16.3371C13.0996 16.1587 12.8372 16.0595 12.5646 16.0595C12.2921 16.0595 12.0296 16.1587 11.8302 16.3371Z" fill="#C9C9C9"/>
</svg>
